<svg version="1.1" xmlns="http://www.w3.org/2000/svg" viewBox="0 0 920 700" width="2760" height="2100">
  <rect x="0" y="0" width="920" height="700" fill="transparent"></rect><g stroke-linecap="round" transform="translate(10 110) rotate(0 450 290)"><path d="M0 0 L900 0 L900 580 L0 580" stroke="none" stroke-width="0" fill="#f1f3f4"></path><path d="M0 0 C214.12 0, 428.25 0, 900 0 M0 0 C293.8 0, 587.61 0, 900 0 M900 0 C900 136.57, 900 273.14, 900 580 M900 0 C900 170.59, 900 341.19, 900 580 M900 580 C608.25 580, 316.5 580, 0 580 M900 580 C661.38 580, 422.76 580, 0 580 M0 580 C0 458.78, 0 337.57, 0 0 M0 580 C0 356.06, 0 132.12, 0 0" stroke="#b5b9bf" stroke-width="2" fill="none"></path></g><g stroke-opacity="0.2" fill-opacity="0.2" stroke-linecap="round" transform="translate(30 170) rotate(0 430 250)"><path d="M0 0 C326.1 0, 652.2 0, 860 0 M0 0 C293.81 0, 587.63 0, 860 0 M860 0 C860 156.94, 860 313.88, 860 500 M860 0 C860 117.61, 860 235.21, 860 500 M860 500 C548.78 500, 237.57 500, 0 500 M860 500 C554.27 500, 248.54 500, 0 500 M0 500 C0 350.59, 0 201.18, 0 0 M0 500 C0 371.36, 0 242.72, 0 0" stroke="#202124" stroke-width="1" fill="none"></path></g><g stroke-opacity="0.8" fill-opacity="0.8" transform="translate(690 130) rotate(0 95.5 11.5)"><text x="0" y="19" font-family="Helvetica, Segoe UI Emoji" font-size="20px" fill="#202124" text-anchor="start" style="white-space: pre;" direction="ltr">Google Cloud Project</text></g><g stroke-linecap="round" transform="translate(90 490) rotate(0 370 60)"><path d="M0 0 L740 0 L740 120 L0 120" stroke="none" stroke-width="0" fill="#e2f2e7"></path><path d="M0 0 C171.67 0, 343.35 0, 740 0 M0 0 C265.45 0, 530.89 0, 740 0 M740 0 C740 26.62, 740 53.23, 740 120 M740 0 C740 32.75, 740 65.49, 740 120 M740 120 C559.15 120, 378.29 120, 0 120 M740 120 C560.25 120, 380.5 120, 0 120 M0 120 C0 92.67, 0 65.34, 0 0 M0 120 C0 75.15, 0 30.31, 0 0" stroke="#e2f2e7" stroke-width="1" fill="none"></path></g><g stroke-linecap="round" transform="translate(370 510) rotate(0 90 40)"><path d="M20 0 L160 0 L168.75 1.25 L175 5 L177.19 7.81 L179.69 15.31 L180 60 L178.75 68.75 L177.19 72.19 L172.19 77.19 L168.75 78.75 L160 80 L20 80 L11.25 78.75 L5 75 L1.25 68.75 L0.31 64.69 L0.31 15.31 L2.81 7.81 L7.81 2.81 L11.25 1.25 L20 0" stroke="none" stroke-width="0" fill="#ffffff"></path><path d="M20 0 M20 0 C52.91 0, 85.82 0, 160 0 M20 0 C51.84 0, 83.69 0, 160 0 M160 0 C173.33 0, 180 6.67, 180 20 M160 0 C173.33 0, 180 6.67, 180 20 M180 20 C180 33.37, 180 46.74, 180 60 M180 20 C180 32.76, 180 45.51, 180 60 M180 60 C180 73.33, 173.33 80, 160 80 M180 60 C180 73.33, 173.33 80, 160 80 M160 80 C127.97 80, 95.94 80, 20 80 M160 80 C131.71 80, 103.42 80, 20 80 M20 80 C6.67 80, 0 73.33, 0 60 M20 80 C6.67 80, 0 73.33, 0 60 M0 60 C0 50.37, 0 40.74, 0 20 M0 60 C0 51.94, 0 43.88, 0 20 M0 20 C0 6.67, 6.67 0, 20 0 M0 20 C0 6.67, 6.67 0, 20 0" stroke="#4285f4" stroke-width="2" fill="none"></path></g><g stroke-linecap="round" transform="translate(90 190) rotate(0 370 140)"><path d="M0 0 L740 0 L740 280 L0 280" stroke="none" stroke-width="0" fill="#ccdffc"></path><path d="M0 0 C269.7 0, 539.4 0, 740 0 M0 0 C287.89 0, 575.78 0, 740 0 M740 0 C740 56.17, 740 112.34, 740 280 M740 0 C740 83.85, 740 167.7, 740 280 M740 280 C543.6 280, 347.21 280, 0 280 M740 280 C579.18 280, 418.36 280, 0 280 M0 280 C0 189.7, 0 99.4, 0 0 M0 280 C0 186.84, 0 93.69, 0 0" stroke="#ccdffc" stroke-width="4" fill="none"></path></g><g stroke-linecap="round" transform="translate(370 230) rotate(0 220 100)"><path d="M0 0 L440 0 L440 200 L0 200" stroke="none" stroke-width="0" fill="#fdde88"></path><path d="M0 0 C137.52 0, 275.04 0, 440 0 M0 0 C170.94 0, 341.88 0, 440 0 M440 0 C440 64.2, 440 128.41, 440 200 M440 0 C440 78.72, 440 157.44, 440 200 M440 200 C310.31 200, 180.63 200, 0 200 M440 200 C289.36 200, 138.71 200, 0 200 M0 200 C0 140.29, 0 80.58, 0 0 M0 200 C0 144, 0 88.01, 0 0" stroke="#fdde88" stroke-width="1" fill="none"></path></g><g stroke-linecap="round" transform="translate(150 290) rotate(0 80 36)"><path d="M18 0 L142 0 L149.88 1.13 L155.5 4.5 L157.47 7.03 L159.72 13.78 L160 54 L158.88 61.88 L157.47 64.97 L152.97 69.47 L149.88 70.88 L142 72 L18 72 L10.13 70.88 L4.5 67.5 L2.53 64.97 L0.28 58.22 L0.28 13.78 L1.13 10.13 L4.5 4.5 L10.13 1.13 L18 0" stroke="none" stroke-width="0" fill="#FFF"></path><path d="M18 0 M18 0 C65.33 0, 112.65 0, 142 0 M18 0 C52.85 0, 87.71 0, 142 0 M142 0 C154 0, 160 6, 160 18 M142 0 C154 0, 160 6, 160 18 M160 18 C160 27.75, 160 37.49, 160 54 M160 18 C160 29.74, 160 41.48, 160 54 M160 54 C160 66, 154 72, 142 72 M160 54 C160 66, 154 72, 142 72 M142 72 C104.13 72, 66.27 72, 18 72 M142 72 C114.13 72, 86.26 72, 18 72 M18 72 C6 72, 0 66, 0 54 M18 72 C6 72, 0 66, 0 54 M0 54 C0 43.58, 0 33.17, 0 18 M0 54 C0 45.93, 0 37.86, 0 18 M0 18 C0 6, 6 0, 18 0 M0 18 C0 6, 6 0, 18 0" stroke="#4285f4" stroke-width="2" fill="none"></path></g><g transform="translate(214 314) rotate(0 38.5 9.5)"><text x="0" y="15" font-family="Helvetica, Segoe UI Emoji" font-size="16px" fill="black" text-anchor="start" style="white-space: pre;" direction="ltr">Cloud Run</text></g><g stroke-linecap="round"><g transform="translate(178.37555503845215 313.5022222995758) rotate(0 8.311112403869629 6.248888850212097)" fill-rule="evenodd"><path d="M0 0 L4.15 12.5 L16.62 12.5 L0 0 L0 0" stroke="none" stroke-width="0" fill="#aecbfa" fill-rule="evenodd"></path><path d="M0 0 C1.56 4.69, 3.12 9.38, 4.15 12.5 M0 0 C1.58 4.75, 3.16 9.51, 4.15 12.5 M4.15 12.5 C8.69 12.5, 13.22 12.5, 16.62 12.5 M4.15 12.5 C7.95 12.5, 11.75 12.5, 16.62 12.5 M16.62 12.5 C10.23 7.69, 3.84 2.89, 0 0 M16.62 12.5 C11.58 8.7, 6.53 4.91, 0 0 M0 0 C0 0, 0 0, 0 0 M0 0 C0 0, 0 0, 0 0 M0 0 C0 0, 0 0, 0 0 M0 0 C0 0, 0 0, 0 0" stroke="transparent" stroke-width="2" fill="none"></path></g></g><g stroke-linecap="round"><g transform="translate(194.9977798461914 326) rotate(0 -8.311112403869629 6.248889923095703)" fill-rule="evenodd"><path d="M0 0 L-12.47 0 L-16.62 12.5 L0 0 L0 0" stroke="none" stroke-width="0" fill="#4285f4" fill-rule="evenodd"></path><path d="M0 0 C-3.56 0, -7.11 0, -12.47 0 M0 0 C-2.54 0, -5.07 0, -12.47 0 M-12.47 0 C-14.08 4.84, -15.68 9.67, -16.62 12.5 M-12.47 0 C-13.6 3.4, -14.73 6.79, -16.62 12.5 M-16.62 12.5 C-13.26 9.97, -9.89 7.44, 0 0 M-16.62 12.5 C-12.52 9.42, -8.42 6.33, 0 0 M0 0 C0 0, 0 0, 0 0 M0 0 C0 0, 0 0, 0 0 M0 0 C0 0, 0 0, 0 0 M0 0 C0 0, 0 0, 0 0" stroke="transparent" stroke-width="2" fill="none"></path></g></g><g stroke-linecap="round"><g transform="translate(171.0866665840149 338.4977798461914) rotate(0 3.644444227218628 -6.248889923095703)" fill-rule="evenodd"><path d="M0 0 L4.17 -2.08 L7.29 -12.5 L3.12 -12.5 L0 0 L0 0" stroke="none" stroke-width="0" fill="#4285f4" fill-rule="evenodd"></path><path d="M0 0 C0.95 -0.48, 1.91 -0.95, 4.17 -2.08 M0 0 C1.06 -0.53, 2.11 -1.06, 4.17 -2.08 M4.17 -2.08 C5.33 -5.94, 6.48 -9.8, 7.29 -12.5 M4.17 -2.08 C4.84 -4.32, 5.51 -6.57, 7.29 -12.5 M7.29 -12.5 C6.42 -12.5, 5.56 -12.5, 3.12 -12.5 M7.29 -12.5 C5.88 -12.5, 4.47 -12.5, 3.12 -12.5 M3.12 -12.5 C2.38 -9.55, 1.65 -6.6, 0 0 M3.12 -12.5 C2.31 -9.26, 1.5 -6.01, 0 0 M0 0 C0 0, 0 0, 0 0 M0 0 C0 0, 0 0, 0 0 M0 0 C0 0, 0 0, 0 0 M0 0 C0 0, 0 0, 0 0" stroke="transparent" stroke-width="2" fill="none"></path></g></g><g stroke-linecap="round"><g transform="translate(171.0866665840149 313.5022222995758) rotate(0 3.644444227218628 6.248888850212097)" fill-rule="evenodd"><path d="M0 0 L3.12 12.5 L7.29 12.5 L4.17 2.08 L0 0 L0 0" stroke="none" stroke-width="0" fill="#aecbfa" fill-rule="evenodd"></path><path d="M0 0 C0.91 3.65, 1.82 7.3, 3.12 12.5 M0 0 C1.05 4.21, 2.1 8.42, 3.12 12.5 M3.12 12.5 C4.06 12.5, 5 12.5, 7.29 12.5 M3.12 12.5 C4.67 12.5, 6.22 12.5, 7.29 12.5 M7.29 12.5 C6.15 8.68, 5 4.87, 4.17 2.08 M7.29 12.5 C6.14 8.65, 4.99 4.81, 4.17 2.08 M4.17 2.08 C3.23 1.61, 2.3 1.15, 0 0 M4.17 2.08 C3.22 1.61, 2.27 1.13, 0 0 M0 0 C0 0, 0 0, 0 0 M0 0 C0 0, 0 0, 0 0 M0 0 C0 0, 0 0, 0 0 M0 0 C0 0, 0 0, 0 0" stroke="transparent" stroke-width="2" fill="none"></path></g></g><g stroke-linecap="round" transform="translate(630 250) rotate(0 80 36.00000000000003)"><path d="M18 0 L142 0 L149.88 1.13 L155.5 4.5 L157.47 7.03 L159.72 13.78 L160 54 L158.88 61.88 L157.47 64.97 L152.97 69.47 L149.88 70.88 L142 72 L18 72 L10.13 70.88 L7.03 69.47 L2.53 64.97 L0.28 58.22 L0.28 13.78 L2.53 7.03 L7.03 2.53 L10.13 1.13 L18 0" stroke="none" stroke-width="0" fill="#FFF"></path><path d="M18 0 M18 0 C67.25 0, 116.5 0, 142 0 M18 0 C67.01 0, 116.02 0, 142 0 M142 0 C154 0, 160 6, 160 18 M142 0 C154 0, 160 6, 160 18 M160 18 C160 32.34, 160 46.68, 160 54 M160 18 C160 28.24, 160 38.48, 160 54 M160 54 C160 66, 154 72, 142 72 M160 54 C160 66, 154 72, 142 72 M142 72 C97.85 72, 53.71 72, 18 72 M142 72 C110.31 72, 78.63 72, 18 72 M18 72 C6 72, 0 66, 0 54 M18 72 C6 72, 0 66, 0 54 M0 54 C0 42.21, 0 30.41, 0 18 M0 54 C0 43.84, 0 33.67, 0 18 M0 18 C0 6, 6 0, 18 0 M0 18 C0 6, 6 0, 18 0" stroke="#4285f4" stroke-width="2" fill="none"></path></g><g transform="translate(694 275.5714285714287) rotate(0 18.857142857142833 10.857142857142861)"><text x="0" y="17.714285714285708" font-family="Helvetica, Segoe UI Emoji" font-size="18.285714285714285px" fill="black" text-anchor="start" style="white-space: pre;" direction="ltr">SQL</text></g><g stroke-linecap="round"><g transform="translate(652.7266669273375 283.9200000762941) rotate(0 4.886666536331177 4.606667518615723)" fill-rule="evenodd"><path d="M0 0 L0 4.01 L9.77 9.21 L9.77 5.2 L0 0 L0 0" stroke="none" stroke-width="0" fill="#aecbfa" fill-rule="evenodd"></path><path d="M0 0 C0 1.37, 0 2.74, 0 4.01 M0 0 C0 0.89, 0 1.78, 0 4.01 M0 4.01 C3.83 6.05, 7.66 8.09, 9.77 9.21 M0 4.01 C2.77 5.49, 5.53 6.96, 9.77 9.21 M9.77 9.21 C9.77 7.95, 9.77 6.69, 9.77 5.2 M9.77 9.21 C9.77 8.41, 9.77 7.6, 9.77 5.2 M9.77 5.2 C6.02 3.2, 2.26 1.2, 0 0 M9.77 5.2 C7.54 4.01, 5.32 2.83, 0 0 M0 0 C0 0, 0 0, 0 0 M0 0 C0 0, 0 0, 0 0 M0 0 C0 0, 0 0, 0 0 M0 0 C0 0, 0 0, 0 0" stroke="#00000000" stroke-width="1" fill="none"></path></g></g><g stroke-linecap="round"><g transform="translate(652.7266669273375 290.12000083923357) rotate(0 4.886666536331177 4.606666564941406)" fill-rule="evenodd"><path d="M0 0 L0 4.01 L9.77 9.21 L9.77 5.2 L0 0 L0 0" stroke="none" stroke-width="0" fill="#aecbfa" fill-rule="evenodd"></path><path d="M0 0 C0 0.82, 0 1.64, 0 4.01 M0 0 C0 0.98, 0 1.96, 0 4.01 M0 4.01 C3.35 5.8, 6.7 7.58, 9.77 9.21 M0 4.01 C2.33 5.25, 4.65 6.49, 9.77 9.21 M9.77 9.21 C9.77 8, 9.77 6.79, 9.77 5.2 M9.77 9.21 C9.77 7.76, 9.77 6.3, 9.77 5.2 M9.77 5.2 C6.67 3.55, 3.57 1.9, 0 0 M9.77 5.2 C6.3 3.35, 2.83 1.51, 0 0 M0 0 C0 0, 0 0, 0 0 M0 0 C0 0, 0 0, 0 0 M0 0 C0 0, 0 0, 0 0 M0 0 C0 0, 0 0, 0 0" stroke="#00000000" stroke-width="1" fill="none"></path></g></g><g stroke-linecap="round"><g transform="translate(662.5000000000002 291.98166823387163) rotate(0 4.886667251586914 -3.455000638961792)" fill-rule="evenodd"><path d="M0 1.15 L9.77 -4.05 L9.77 -8.06 L0 -2.86 L0 1.15 L0 1.15" stroke="none" stroke-width="0" fill="#669df6" fill-rule="evenodd"></path><path d="M0 1.15 C3.69 -0.81, 7.38 -2.77, 9.77 -4.05 M0 1.15 C3.88 -0.91, 7.75 -2.97, 9.77 -4.05 M9.77 -4.05 C9.77 -5.52, 9.77 -6.98, 9.77 -8.06 M9.77 -4.05 C9.77 -5.64, 9.77 -7.23, 9.77 -8.06 M9.77 -8.06 C7.15 -6.67, 4.53 -5.27, 0 -2.86 M9.77 -8.06 C7.33 -6.76, 4.9 -5.47, 0 -2.86 M0 -2.86 C0 -1.38, 0 0.1, 0 1.15 M0 -2.86 C0 -1.89, 0 -0.92, 0 1.15 M0 1.15 C0 1.15, 0 1.15, 0 1.15 M0 1.15 C0 1.15, 0 1.15, 0 1.15 M0 1.15 C0 1.15, 0 1.15, 0 1.15 M0 1.15 C0 1.15, 0 1.15, 0 1.15" stroke="#00000000" stroke-width="1" fill="none"></path></g></g><g stroke-linecap="round"><g transform="translate(662.5000000000002 298.18166732788103) rotate(0 4.886667251586914 -3.4549999237060547)" fill-rule="evenodd"><path d="M0 1.15 L9.77 -4.05 L9.77 -8.06 L0 -2.86 L0 1.15 L0 1.15" stroke="none" stroke-width="0" fill="#669df6" fill-rule="evenodd"></path><path d="M0 1.15 C1.98 0.1, 3.96 -0.95, 9.77 -4.05 M0 1.15 C3.84 -0.89, 7.68 -2.94, 9.77 -4.05 M9.77 -4.05 C9.77 -5.52, 9.77 -6.99, 9.77 -8.06 M9.77 -4.05 C9.77 -5.14, 9.77 -6.23, 9.77 -8.06 M9.77 -8.06 C6.81 -6.48, 3.84 -4.9, 0 -2.86 M9.77 -8.06 C7 -6.59, 4.23 -5.11, 0 -2.86 M0 -2.86 C0 -1.67, 0 -0.49, 0 1.15 M0 -2.86 C0 -1.28, 0 0.3, 0 1.15 M0 1.15 C0 1.15, 0 1.15, 0 1.15 M0 1.15 C0 1.15, 0 1.15, 0 1.15 M0 1.15 C0 1.15, 0 1.15, 0 1.15 M0 1.15 C0 1.15, 0 1.15, 0 1.15" stroke="#00000000" stroke-width="1" fill="none"></path></g></g><g stroke-linecap="round"><g transform="translate(671.0516676902773 280.7283334434034) rotate(0 -3.6650004386901855 -3.455000013113022)" fill-rule="evenodd"><path d="M1.22 1.15 L1.22 -2.86 L-8.55 -8.06 L-8.55 -4.05 L1.22 1.15 L1.22 1.15" stroke="none" stroke-width="0" fill="#4285f4" fill-rule="evenodd"></path><path d="M1.22 1.15 C1.22 0.07, 1.22 -1.01, 1.22 -2.86 M1.22 1.15 C1.22 -0.41, 1.22 -1.98, 1.22 -2.86 M1.22 -2.86 C-1.01 -4.05, -3.24 -5.23, -8.55 -8.06 M1.22 -2.86 C-2.44 -4.81, -6.1 -6.76, -8.55 -8.06 M-8.55 -8.06 C-8.55 -6.71, -8.55 -5.35, -8.55 -4.05 M-8.55 -8.06 C-8.55 -6.66, -8.55 -5.26, -8.55 -4.05 M-8.55 -4.05 C-5.18 -2.25, -1.81 -0.46, 1.22 1.15 M-8.55 -4.05 C-5.33 -2.33, -2.11 -0.62, 1.22 1.15 M1.22 1.15 C1.22 1.15, 1.22 1.15, 1.22 1.15 M1.22 1.15 C1.22 1.15, 1.22 1.15, 1.22 1.15 M1.22 1.15 C1.22 1.15, 1.22 1.15, 1.22 1.15 M1.22 1.15 C1.22 1.15, 1.22 1.15, 1.22 1.15" stroke="#00000000" stroke-width="1" fill="none"></path></g></g><g stroke-linecap="round"><g transform="translate(661.2783333659171 272.6666667461397) rotate(0 -3.6649999022483826 4.606666684150696)" fill-rule="evenodd"><path d="M1.22 0 L-8.55 5.2 L-8.55 9.21 L1.22 4.01 L1.22 0 L1.22 0" stroke="none" stroke-width="0" fill="#669df6" fill-rule="evenodd"></path><path d="M1.22 0 C-0.81 1.08, -2.85 2.17, -8.55 5.2 M1.22 0 C-1.23 1.31, -3.69 2.61, -8.55 5.2 M-8.55 5.2 C-8.55 6.59, -8.55 7.98, -8.55 9.21 M-8.55 5.2 C-8.55 6.22, -8.55 7.25, -8.55 9.21 M-8.55 9.21 C-4.69 7.16, -0.83 5.1, 1.22 4.01 M-8.55 9.21 C-6.15 7.94, -3.76 6.66, 1.22 4.01 M1.22 4.01 C1.22 2.87, 1.22 1.73, 1.22 0 M1.22 4.01 C1.22 2.93, 1.22 1.85, 1.22 0 M1.22 0 C1.22 0, 1.22 0, 1.22 0 M1.22 0 C1.22 0, 1.22 0, 1.22 0 M1.22 0 C1.22 0, 1.22 0, 1.22 0 M1.22 0 C1.22 0, 1.22 0, 1.22 0" stroke="#00000000" stroke-width="1" fill="none"></path></g></g><g stroke-linecap="round"><g transform="translate(652.7266669273375 277.8266668319703) rotate(0 4.886666536331177 4.613333225250244)" fill-rule="evenodd"><path d="M0 0 L0 4.03 L9.77 9.23 L9.77 5.2 L0 0 L0 0" stroke="none" stroke-width="0" fill="#aecbfa" fill-rule="evenodd"></path><path d="M0 0 C0 1.58, 0 3.16, 0 4.03 M0 0 C0 1.47, 0 2.93, 0 4.03 M0 4.03 C2.23 5.21, 4.47 6.4, 9.77 9.23 M0 4.03 C3.07 5.66, 6.15 7.3, 9.77 9.23 M9.77 9.23 C9.77 8.4, 9.77 7.58, 9.77 5.2 M9.77 9.23 C9.77 8.34, 9.77 7.45, 9.77 5.2 M9.77 5.2 C6.98 3.71, 4.18 2.22, 0 0 M9.77 5.2 C7.51 4, 5.25 2.79, 0 0 M0 0 C0 0, 0 0, 0 0 M0 0 C0 0, 0 0, 0 0 M0 0 C0 0, 0 0, 0 0 M0 0 C0 0, 0 0, 0 0" stroke="#00000000" stroke-width="1" fill="none"></path></g></g><g stroke-linecap="round"><g transform="translate(662.5000000000002 285.8999999761582) rotate(0 4.886667251586914 -3.459999918937683)" fill-rule="evenodd"><path d="M0 1.15 L9.77 -4.05 L9.77 -8.07 L0 -2.87 L0 1.15 L0 1.15" stroke="none" stroke-width="0" fill="#669df6" fill-rule="evenodd"></path><path d="M0 1.15 C1.98 0.1, 3.97 -0.96, 9.77 -4.05 M0 1.15 C3.84 -0.89, 7.69 -2.94, 9.77 -4.05 M9.77 -4.05 C9.77 -5.41, 9.77 -6.77, 9.77 -8.07 M9.77 -4.05 C9.77 -4.87, 9.77 -5.69, 9.77 -8.07 M9.77 -8.07 C6.84 -6.51, 3.91 -4.95, 0 -2.87 M9.77 -8.07 C7.19 -6.7, 4.61 -5.33, 0 -2.87 M0 -2.87 C0 -1.41, 0 0.05, 0 1.15 M0 -2.87 C0 -1.83, 0 -0.79, 0 1.15 M0 1.15 C0 1.15, 0 1.15, 0 1.15 M0 1.15 C0 1.15, 0 1.15, 0 1.15 M0 1.15 C0 1.15, 0 1.15, 0 1.15 M0 1.15 C0 1.15, 0 1.15, 0 1.15" stroke="#00000000" stroke-width="1" fill="none"></path></g></g><g stroke-linecap="round" transform="translate(630 333.00000000000017) rotate(0 80 31.49999999999997)"><path d="M15.75 0 L144.25 0 L151.14 0.98 L153.85 2.21 L157.79 6.15 L159.75 12.06 L160 47.25 L159.02 54.14 L157.79 56.85 L153.85 60.79 L151.14 62.02 L144.25 63 L15.75 63 L8.86 62.02 L3.94 59.06 L0.98 54.14 L0.25 50.94 L0.25 12.06 L2.21 6.15 L6.15 2.21 L8.86 0.98 L15.75 0" stroke="none" stroke-width="0" fill="#FFF"></path><path d="M15.75 0 M15.75 0 C52.68 0, 89.61 0, 144.25 0 M15.75 0 C60.53 0, 105.31 0, 144.25 0 M144.25 0 C154.75 0, 160 5.25, 160 15.75 M144.25 0 C154.75 0, 160 5.25, 160 15.75 M160 15.75 C160 27.72, 160 39.69, 160 47.25 M160 15.75 C160 26.13, 160 36.51, 160 47.25 M160 47.25 C160 57.75, 154.75 63, 144.25 63 M160 47.25 C160 57.75, 154.75 63, 144.25 63 M144.25 63 C97.04 63, 49.84 63, 15.75 63 M144.25 63 C96.02 63, 47.78 63, 15.75 63 M15.75 63 C5.25 63, 0 57.75, 0 47.25 M15.75 63 C5.25 63, 0 57.75, 0 47.25 M0 47.25 C0 38.73, 0 30.2, 0 15.75 M0 47.25 C0 37.68, 0 28.11, 0 15.75 M0 15.75 C0 5.25, 5.25 0, 15.75 0 M0 15.75 C0 5.25, 5.25 0, 15.75 0" stroke="#4285f4" stroke-width="2" fill="none"></path></g><g stroke-linecap="round"><g transform="translate(646.854766190052 354.9820142984392) rotate(0 1.9464030265808105 1.508273422718048)" fill-rule="evenodd"><path d="M0 0 L3.89 0 L3.89 3.02 L0 3.02 L0 0" stroke="none" stroke-width="0" fill="#669df6" fill-rule="evenodd"></path><path d="M0 0 C1.11 0, 2.21 0, 3.89 0 M0 0 C0.93 0, 1.86 0, 3.89 0 M3.89 0 C3.89 1.11, 3.89 2.23, 3.89 3.02 M3.89 0 C3.89 0.79, 3.89 1.58, 3.89 3.02 M3.89 3.02 C2.43 3.02, 0.97 3.02, 0 3.02 M3.89 3.02 C2.6 3.02, 1.3 3.02, 0 3.02 M0 3.02 C0 1.92, 0 0.83, 0 0 M0 3.02 C0 2.27, 0 1.52, 0 0 M0 0 C0 0, 0 0, 0 0 M0 0 C0 0, 0 0, 0 0" stroke="#00000000" stroke-width="1" fill="none"></path></g></g><g stroke-linecap="round"><g transform="translate(646.854766190052 360.24964070320146) rotate(0 1.9464030265808105 1.508273422718048)" fill-rule="evenodd"><path d="M0 0 L3.89 0 L3.89 3.02 L0 3.02 L0 0" stroke="none" stroke-width="0" fill="#669df6" fill-rule="evenodd"></path><path d="M0 0 C0.87 0, 1.73 0, 3.89 0 M0 0 C1.52 0, 3.05 0, 3.89 0 M3.89 0 C3.89 0.85, 3.89 1.71, 3.89 3.02 M3.89 0 C3.89 0.95, 3.89 1.9, 3.89 3.02 M3.89 3.02 C3.11 3.02, 2.33 3.02, 0 3.02 M3.89 3.02 C2.4 3.02, 0.9 3.02, 0 3.02 M0 3.02 C0 2.33, 0 1.64, 0 0 M0 3.02 C0 2.37, 0 1.72, 0 0 M0 0 C0 0, 0 0, 0 0 M0 0 C0 0, 0 0, 0 0" stroke="#00000000" stroke-width="1" fill="none"></path></g></g><g stroke-linecap="round"><g transform="translate(646.854766190052 365.5323750972749) rotate(0 1.9464030265808105 1.5082730054855347)" fill-rule="evenodd"><path d="M0 0 L3.89 0 L3.89 3.02 L0 3.02 L0 0" stroke="none" stroke-width="0" fill="#669df6" fill-rule="evenodd"></path><path d="M0 0 C0.95 0, 1.91 0, 3.89 0 M0 0 C1.33 0, 2.67 0, 3.89 0 M3.89 0 C3.89 0.72, 3.89 1.44, 3.89 3.02 M3.89 0 C3.89 0.91, 3.89 1.82, 3.89 3.02 M3.89 3.02 C2.48 3.02, 1.07 3.02, 0 3.02 M3.89 3.02 C2.66 3.02, 1.42 3.02, 0 3.02 M0 3.02 C0 1.94, 0 0.87, 0 0 M0 3.02 C0 2.11, 0 1.2, 0 0 M0 0 C0 0, 0 0, 0 0 M0 0 C0 0, 0 0, 0 0" stroke="#00000000" stroke-width="1" fill="none"></path></g></g><g stroke-linecap="round"><g transform="translate(646.854766190052 370.800000667572) rotate(0 1.9464030265808105 1.5082730054855347)" fill-rule="evenodd"><path d="M0 0 L3.89 0 L3.89 3.02 L0 3.02 L0 0" stroke="none" stroke-width="0" fill="#669df6" fill-rule="evenodd"></path><path d="M0 0 C1.54 0, 3.09 0, 3.89 0 M0 0 C1.42 0, 2.85 0, 3.89 0 M3.89 0 C3.89 1.2, 3.89 2.39, 3.89 3.02 M3.89 0 C3.89 0.81, 3.89 1.62, 3.89 3.02 M3.89 3.02 C2.92 3.02, 1.95 3.02, 0 3.02 M3.89 3.02 C2.46 3.02, 1.02 3.02, 0 3.02 M0 3.02 C0 2.29, 0 1.56, 0 0 M0 3.02 C0 1.88, 0 0.74, 0 0 M0 0 C0 0, 0 0, 0 0 M0 0 C0 0, 0 0, 0 0" stroke="#00000000" stroke-width="1" fill="none"></path></g></g><g stroke-linecap="round"><g transform="translate(666.328867197037 354.9820142984392) rotate(0 1.9464030265808105 1.508273422718048)" fill-rule="evenodd"><path d="M0 0 L3.89 0 L3.89 3.02 L0 3.02 L0 0" stroke="none" stroke-width="0" fill="#669df6" fill-rule="evenodd"></path><path d="M0 0 C1.53 0, 3.06 0, 3.89 0 M0 0 C1.43 0, 2.86 0, 3.89 0 M3.89 0 C3.89 0.82, 3.89 1.64, 3.89 3.02 M3.89 0 C3.89 0.92, 3.89 1.83, 3.89 3.02 M3.89 3.02 C2.79 3.02, 1.68 3.02, 0 3.02 M3.89 3.02 C2.74 3.02, 1.59 3.02, 0 3.02 M0 3.02 C0 1.83, 0 0.64, 0 0 M0 3.02 C0 1.89, 0 0.77, 0 0 M0 0 C0 0, 0 0, 0 0 M0 0 C0 0, 0 0, 0 0" stroke="#00000000" stroke-width="1" fill="none"></path></g></g><g stroke-linecap="round"><g transform="translate(666.328867197037 360.24964070320146) rotate(0 1.9464030265808105 1.508273422718048)" fill-rule="evenodd"><path d="M0 0 L3.89 0 L3.89 3.02 L0 3.02 L0 0" stroke="none" stroke-width="0" fill="#669df6" fill-rule="evenodd"></path><path d="M0 0 C1.52 0, 3.03 0, 3.89 0 M0 0 C0.89 0, 1.78 0, 3.89 0 M3.89 0 C3.89 1.13, 3.89 2.26, 3.89 3.02 M3.89 0 C3.89 1.02, 3.89 2.04, 3.89 3.02 M3.89 3.02 C2.54 3.02, 1.18 3.02, 0 3.02 M3.89 3.02 C2.55 3.02, 1.21 3.02, 0 3.02 M0 3.02 C0 2.02, 0 1.03, 0 0 M0 3.02 C0 2.38, 0 1.75, 0 0 M0 0 C0 0, 0 0, 0 0 M0 0 C0 0, 0 0, 0 0" stroke="#00000000" stroke-width="1" fill="none"></path></g></g><g stroke-linecap="round"><g transform="translate(666.328867197037 365.5323750972749) rotate(0 1.9464030265808105 1.5082730054855347)" fill-rule="evenodd"><path d="M0 0 L3.89 0 L3.89 3.02 L0 3.02 L0 0" stroke="none" stroke-width="0" fill="#669df6" fill-rule="evenodd"></path><path d="M0 0 C0.98 0, 1.96 0, 3.89 0 M0 0 C1.35 0, 2.7 0, 3.89 0 M3.89 0 C3.89 0.77, 3.89 1.54, 3.89 3.02 M3.89 0 C3.89 1.19, 3.89 2.38, 3.89 3.02 M3.89 3.02 C2.94 3.02, 1.98 3.02, 0 3.02 M3.89 3.02 C2.79 3.02, 1.68 3.02, 0 3.02 M0 3.02 C0 2.2, 0 1.39, 0 0 M0 3.02 C0 2.25, 0 1.47, 0 0 M0 0 C0 0, 0 0, 0 0 M0 0 C0 0, 0 0, 0 0" stroke="#00000000" stroke-width="1" fill="none"></path></g></g><g stroke-linecap="round"><g transform="translate(666.328867197037 370.800000667572) rotate(0 1.9464030265808105 1.5082730054855347)" fill-rule="evenodd"><path d="M0 0 L3.89 0 L3.89 3.02 L0 3.02 L0 0" stroke="none" stroke-width="0" fill="#669df6" fill-rule="evenodd"></path><path d="M0 0 C1.42 0, 2.83 0, 3.89 0 M0 0 C0.89 0, 1.78 0, 3.89 0 M3.89 0 C3.89 0.95, 3.89 1.9, 3.89 3.02 M3.89 0 C3.89 0.62, 3.89 1.23, 3.89 3.02 M3.89 3.02 C3.03 3.02, 2.17 3.02, 0 3.02 M3.89 3.02 C2.78 3.02, 1.66 3.02, 0 3.02 M0 3.02 C0 2.32, 0 1.62, 0 0 M0 3.02 C0 2.01, 0 1, 0 0 M0 0 C0 0, 0 0, 0 0 M0 0 C0 0, 0 0, 0 0" stroke="#00000000" stroke-width="1" fill="none"></path></g></g><g stroke-linecap="round"><g transform="translate(669.4410979747774 357.9985611438753) rotate(0 -1.5561153888702393 -1.508273422718048)" fill-rule="evenodd"><path d="M0 0 L-3.11 0 L-3.11 -3.02 L0 0" stroke="none" stroke-width="0" fill="#4285f4" fill-rule="evenodd"></path><path d="M0 0 C-1.22 0, -2.45 0, -3.11 0 M0 0 C-1.05 0, -2.11 0, -3.11 0 M-3.11 0 C-3.11 -0.61, -3.11 -1.23, -3.11 -3.02 M-3.11 0 C-3.11 -0.9, -3.11 -1.81, -3.11 -3.02 M-3.11 -3.02 C-2.29 -2.22, -1.47 -1.42, 0 0 M-3.11 -3.02 C-1.98 -1.92, -0.86 -0.83, 0 0 M0 0 C0 0, 0 0, 0 0 M0 0 C0 0, 0 0, 0 0" stroke="transparent" stroke-width="1" fill="none"></path></g></g><g stroke-linecap="round"><g transform="translate(669.4410979747774 363.26618754863756) rotate(0 -1.5561153888702393 -1.508273422718048)" fill-rule="evenodd"><path d="M0 0 L-3.11 0 L-3.11 -3.02 L0 0" stroke="none" stroke-width="0" fill="#4285f4" fill-rule="evenodd"></path><path d="M0 0 C-0.7 0, -1.4 0, -3.11 0 M0 0 C-1.17 0, -2.33 0, -3.11 0 M-3.11 0 C-3.11 -0.99, -3.11 -1.98, -3.11 -3.02 M-3.11 0 C-3.11 -0.87, -3.11 -1.73, -3.11 -3.02 M-3.11 -3.02 C-1.93 -1.88, -0.76 -0.73, 0 0 M-3.11 -3.02 C-1.93 -1.87, -0.75 -0.72, 0 0 M0 0 C0 0, 0 0, 0 0 M0 0 C0 0, 0 0, 0 0" stroke="transparent" stroke-width="1" fill="none"></path></g></g><g stroke-linecap="round"><g transform="translate(669.4410979747774 368.54892110824596) rotate(0 -1.5561153888702393 -1.5082730054855347)" fill-rule="evenodd"><path d="M0 0 L-3.11 0 L-3.11 -3.02 L0 0" stroke="none" stroke-width="0" fill="#4285f4" fill-rule="evenodd"></path><path d="M0 0 C-1.18 0, -2.36 0, -3.11 0 M0 0 C-1.04 0, -2.09 0, -3.11 0 M-3.11 0 C-3.11 -1.2, -3.11 -2.4, -3.11 -3.02 M-3.11 0 C-3.11 -1.05, -3.11 -2.11, -3.11 -3.02 M-3.11 -3.02 C-1.87 -1.81, -0.63 -0.61, 0 0 M-3.11 -3.02 C-1.89 -1.84, -0.68 -0.66, 0 0 M0 0 C0 0, 0 0, 0 0 M0 0 C0 0, 0 0, 0 0" stroke="transparent" stroke-width="1" fill="none"></path></g></g><g stroke-linecap="round"><g transform="translate(669.4410979747774 373.8266203403476) rotate(0 -1.5561153888702393 -1.5133098363876343)" fill-rule="evenodd"><path d="M0 0 L-3.11 0 L-3.11 -3.03 L0 0" stroke="none" stroke-width="0" fill="#4285f4" fill-rule="evenodd"></path><path d="M0 0 C-0.74 0, -1.49 0, -3.11 0 M0 0 C-1.15 0, -2.3 0, -3.11 0 M-3.11 0 C-3.11 -0.79, -3.11 -1.58, -3.11 -3.03 M-3.11 0 C-3.11 -1.14, -3.11 -2.27, -3.11 -3.03 M-3.11 -3.03 C-2.08 -2.02, -1.04 -1.01, 0 0 M-3.11 -3.03 C-1.98 -1.93, -0.85 -0.83, 0 0 M0 0 C0 0, 0 0, 0 0 M0 0 C0 0, 0 0, 0 0" stroke="transparent" stroke-width="1" fill="none"></path></g></g><g stroke-linecap="round"><g transform="translate(650.7475722432139 376.08273506164556) rotate(0 7.793165057897568 -11.683453842997551)" fill-rule="evenodd"><path d="M0 0 L15.59 0 L15.59 -23.37 L0 -23.37 L0 0 L0 0" stroke="none" stroke-width="0" fill="#aecbfa" fill-rule="evenodd"></path><path d="M0 0 C6.1 0, 12.21 0, 15.59 0 M0 0 C4.41 0, 8.83 0, 15.59 0 M15.59 0 C15.59 -7.35, 15.59 -14.7, 15.59 -23.37 M15.59 0 C15.59 -4.69, 15.59 -9.38, 15.59 -23.37 M15.59 -23.37 C9.6 -23.37, 3.61 -23.37, 0 -23.37 M15.59 -23.37 C12.03 -23.37, 8.48 -23.37, 0 -23.37 M0 -23.37 C0 -18.33, 0 -13.3, 0 0 M0 -23.37 C0 -18.1, 0 -12.83, 0 0 M0 0 C0 0, 0 0, 0 0 M0 0 C0 0, 0 0, 0 0 M0 0 C0 0, 0 0, 0 0 M0 0 C0 0, 0 0, 0 0" stroke="transparent" stroke-width="1" fill="none"></path></g></g><g stroke-linecap="round"><g transform="translate(657.7576438188553 365.5676262378695) rotate(0 0.7805761098861694 -1.168345332145691)" fill-rule="evenodd"><path d="M0 0 L-3.89 0 L1.56 -9.04 L1.56 -2.34 L5.45 -2.34 L0 6.71 L0 0 L0 0" stroke="none" stroke-width="0" fill="#aecbfa" fill-rule="evenodd"></path><path d="M0 0 C-1.33 0, -2.67 0, -3.89 0 M0 0 C-0.93 0, -1.85 0, -3.89 0 M-3.89 0 C-2.24 -2.73, -0.6 -5.47, 1.56 -9.04 M-3.89 0 C-1.91 -3.28, 0.07 -6.57, 1.56 -9.04 M1.56 -9.04 C1.56 -6.92, 1.56 -4.79, 1.56 -2.34 M1.56 -9.04 C1.56 -6.66, 1.56 -4.28, 1.56 -2.34 M1.56 -2.34 C2.73 -2.34, 3.9 -2.34, 5.45 -2.34 M1.56 -2.34 C2.72 -2.34, 3.88 -2.34, 5.45 -2.34 M5.45 -2.34 C4 0.07, 2.55 2.48, 0 6.71 M5.45 -2.34 C4.1 -0.09, 2.74 2.17, 0 6.71 M0 6.71 C0 5.02, 0 3.33, 0 0 M0 6.71 C0 4.22, 0 1.73, 0 0 M0 0 C0 0, 0 0, 0 0 M0 0 C0 0, 0 0, 0 0 M0 0 C0 0, 0 0, 0 0 M0 0 C0 0, 0 0, 0 0" stroke="transparent" stroke-width="1" fill="none"></path></g></g><g stroke-linecap="round"><g transform="translate(657.7576438188553 376.08273506164556) rotate(0 4.285611689090729 -11.683453842997551)" fill-rule="evenodd"><path d="M0 0 L0 -3.77 L5.45 -12.82 L1.56 -12.82 L1.56 -23.37 L8.57 -23.37 L8.57 0 L0 0" stroke="none" stroke-width="0" fill="#669df6" fill-rule="evenodd"></path><path d="M0 0 C0 -1.38, 0 -2.76, 0 -3.77 M0 0 C0 -1.5, 0 -2.99, 0 -3.77 M0 -3.77 C1.46 -6.2, 2.92 -8.62, 5.45 -12.82 M0 -3.77 C1.36 -6.03, 2.72 -8.29, 5.45 -12.82 M5.45 -12.82 C4.02 -12.82, 2.58 -12.82, 1.56 -12.82 M5.45 -12.82 C4.51 -12.82, 3.57 -12.82, 1.56 -12.82 M1.56 -12.82 C1.56 -16.81, 1.56 -20.8, 1.56 -23.37 M1.56 -12.82 C1.56 -15.29, 1.56 -17.76, 1.56 -23.37 M1.56 -23.37 C4.08 -23.37, 6.6 -23.37, 8.57 -23.37 M1.56 -23.37 C3.54 -23.37, 5.51 -23.37, 8.57 -23.37 M8.57 -23.37 C8.57 -14.99, 8.57 -6.6, 8.57 0 M8.57 -23.37 C8.57 -15.02, 8.57 -6.68, 8.57 0 M8.57 0 C5.74 0, 2.91 0, 0 0 M8.57 0 C5.4 0, 2.23 0, 0 0 M0 0 C0 0, 0 0, 0 0 M0 0 C0 0, 0 0, 0 0" stroke="transparent" stroke-width="1" fill="none"></path></g></g><g stroke-linecap="round"><g transform="translate(657.7576438188553 365.5676262378695) rotate(0 0.7805761098861694 -1.168345332145691)" fill-rule="evenodd"><path d="M0 0 L-3.89 0 L1.56 -9.04 L1.56 -2.34 L5.45 -2.34 L0 6.71 L0 0 L0 0" stroke="none" stroke-width="0" fill="#fff" fill-rule="evenodd"></path><path d="M0 0 C-1.43 0, -2.86 0, -3.89 0 M0 0 C-1.06 0, -2.12 0, -3.89 0 M-3.89 0 C-2.24 -2.75, -0.58 -5.49, 1.56 -9.04 M-3.89 0 C-2.35 -2.57, -0.8 -5.13, 1.56 -9.04 M1.56 -9.04 C1.56 -7.06, 1.56 -5.07, 1.56 -2.34 M1.56 -9.04 C1.56 -6.4, 1.56 -3.75, 1.56 -2.34 M1.56 -2.34 C3.01 -2.34, 4.46 -2.34, 5.45 -2.34 M1.56 -2.34 C2.34 -2.34, 3.12 -2.34, 5.45 -2.34 M5.45 -2.34 C4.2 -0.26, 2.95 1.81, 0 6.71 M5.45 -2.34 C4.04 0, 2.63 2.35, 0 6.71 M0 6.71 C0 5.03, 0 3.36, 0 0 M0 6.71 C0 4.6, 0 2.49, 0 0 M0 0 C0 0, 0 0, 0 0 M0 0 C0 0, 0 0, 0 0 M0 0 C0 0, 0 0, 0 0 M0 0 C0 0, 0 0, 0 0" stroke="transparent" stroke-width="1" fill="none"></path></g></g><g stroke-linecap="round"><g transform="translate(628.8571428571429 290.9642829745479) rotate(0 -19.31313784721624 -0.742728661807746)"><path d="M0 0 C-6.44 -0.25, -32.19 -1.24, -38.63 -1.49 M0 0 C-6.44 -0.25, -32.19 -1.24, -38.63 -1.49" stroke="#16459c" stroke-width="2" fill="none"></path></g><g transform="translate(628.8571428571429 290.9642829745479) rotate(0 -19.31313784721624 -0.742728661807746)"><path d="M0 0 L-13.83 5.81 L-13.34 -6.86 L0 0" stroke="none" stroke-width="0" fill="#16459c" fill-rule="evenodd"></path><path d="M0 0 C-2.97 1.25, -5.94 2.5, -13.83 5.81 M0 0 C-5.51 2.32, -11.02 4.63, -13.83 5.81 M-13.83 5.81 C-13.66 1.42, -13.49 -2.97, -13.34 -6.86 M-13.83 5.81 C-13.64 0.8, -13.44 -4.22, -13.34 -6.86 M-13.34 -6.86 C-9.71 -4.99, -6.08 -3.12, 0 0 M-13.34 -6.86 C-10.54 -5.42, -7.75 -3.98, 0 0 M0 0 C0 0, 0 0, 0 0 M0 0 C0 0, 0 0, 0 0" stroke="#16459c" stroke-width="2" fill="none"></path></g></g><g stroke-linecap="round"><g transform="translate(629.0000000000001 369.7080315048654) rotate(0 -19.496636231853188 0.1493502802253488)"><path d="M0 0 C-6.5 0.05, -32.49 0.25, -38.99 0.3 M0 0 C-6.5 0.05, -32.49 0.25, -38.99 0.3" stroke="#16459c" stroke-width="2" fill="none"></path></g><g transform="translate(629.0000000000001 369.7080315048654) rotate(0 -19.496636231853188 0.1493502802253488)"><path d="M0 0 L-13.55 6.44 L-13.64 -6.23 L0 0" stroke="none" stroke-width="0" fill="#16459c" fill-rule="evenodd"></path><path d="M0 0 C-3.18 1.51, -6.36 3.02, -13.55 6.44 M0 0 C-2.72 1.29, -5.44 2.59, -13.55 6.44 M-13.55 6.44 C-13.57 2.73, -13.6 -0.99, -13.64 -6.23 M-13.55 6.44 C-13.57 3.75, -13.59 1.06, -13.64 -6.23 M-13.64 -6.23 C-9.21 -4.21, -4.77 -2.18, 0 0 M-13.64 -6.23 C-8.34 -3.81, -3.03 -1.39, 0 0 M0 0 C0 0, 0 0, 0 0 M0 0 C0 0, 0 0, 0 0" stroke="#16459c" stroke-width="2" fill="none"></path></g></g><g stroke-linecap="round"><g transform="translate(590 289.00000000000017) rotate(0 0 40)"><path d="M0 0 C0 13.33, 0 66.67, 0 80 M0 0 C0 13.33, 0 66.67, 0 80" stroke="#16459c" stroke-width="2" fill="none"></path></g></g><g stroke-linecap="round"><g transform="translate(590 330) rotate(0 -19.5 -0.8278301886792292)"><path d="M0 0 C-6.5 -0.28, -32.5 -1.38, -39 -1.66 M0 0 C-6.5 -0.28, -32.5 -1.38, -39 -1.66" stroke="#16459c" stroke-width="2" fill="none"></path></g><g transform="translate(590 330) rotate(0 -19.5 -0.8278301886792292)"><path d="M-39 -1.66 L-25.15 -7.41 L-25.69 5.25 L-39 -1.66" stroke="none" stroke-width="0" fill="#16459c" fill-rule="evenodd"></path><path d="M-39 -1.66 C-35.36 -3.17, -31.73 -4.68, -25.15 -7.41 M-39 -1.66 C-33.51 -3.94, -28.02 -6.22, -25.15 -7.41 M-25.15 -7.41 C-25.29 -4.01, -25.44 -0.61, -25.69 5.25 M-25.15 -7.41 C-25.31 -3.65, -25.47 0.11, -25.69 5.25 M-25.69 5.25 C-30.87 2.57, -36.05 -0.12, -39 -1.66 M-25.69 5.25 C-28.59 3.75, -31.49 2.24, -39 -1.66 M-39 -1.66 C-39 -1.66, -39 -1.66, -39 -1.66 M-39 -1.66 C-39 -1.66, -39 -1.66, -39 -1.66" stroke="#16459c" stroke-width="2" fill="none"></path></g></g><g stroke-linecap="round"><g transform="translate(310 330) rotate(0 50 0)"><path d="M0 0 C16.67 0, 83.33 0, 100 0 M0 0 C16.67 0, 83.33 0, 100 0" stroke="#16459c" stroke-width="2" fill="none"></path></g><g transform="translate(310 330) rotate(0 50 0)"><path d="M0 0 L13.59 -6.34 L13.59 6.34 L0 0" stroke="none" stroke-width="0" fill="#16459c" fill-rule="evenodd"></path><path d="M0 0 C3.96 -1.85, 7.93 -3.7, 13.59 -6.34 M0 0 C4.66 -2.17, 9.32 -4.35, 13.59 -6.34 M13.59 -6.34 C13.59 -2.9, 13.59 0.53, 13.59 6.34 M13.59 -6.34 C13.59 -1.74, 13.59 2.85, 13.59 6.34 M13.59 6.34 C9.27 4.32, 4.94 2.31, 0 0 M13.59 6.34 C10.61 4.95, 7.63 3.56, 0 0 M0 0 C0 0, 0 0, 0 0 M0 0 C0 0, 0 0, 0 0" stroke="#16459c" stroke-width="2" fill="none"></path></g><g transform="translate(310 330) rotate(0 50 0)"><path d="M100 0 L86.41 6.34 L86.41 -6.34 L100 0" stroke="none" stroke-width="0" fill="#16459c" fill-rule="evenodd"></path><path d="M100 0 C96.04 1.85, 92.07 3.7, 86.41 6.34 M100 0 C95.34 2.17, 90.68 4.35, 86.41 6.34 M86.41 6.34 C86.41 2.9, 86.41 -0.53, 86.41 -6.34 M86.41 6.34 C86.41 1.74, 86.41 -2.85, 86.41 -6.34 M86.41 -6.34 C90.73 -4.32, 95.06 -2.31, 100 0 M86.41 -6.34 C89.39 -4.95, 92.37 -3.56, 100 0 M100 0 C100 0, 100 0, 100 0 M100 0 C100 0, 100 0, 100 0" stroke="#16459c" stroke-width="2" fill="none"></path></g></g><g stroke-linecap="round" transform="translate(410 290) rotate(0 70 31.5)"><path d="M15.75 0 L124.25 0 L131.14 0.98 L133.85 2.21 L137.79 6.15 L139.75 12.06 L140 47.25 L139.02 54.14 L137.79 56.85 L133.85 60.79 L131.14 62.02 L124.25 63 L15.75 63 L8.86 62.02 L3.94 59.06 L2.21 56.85 L0.25 50.94 L0.25 12.06 L0.98 8.86 L3.94 3.94 L8.86 0.98 L15.75 0" stroke="none" stroke-width="0" fill="#FFF"></path><path d="M15.75 0 M15.75 0 C56.96 0, 98.17 0, 124.25 0 M15.75 0 C53.72 0, 91.68 0, 124.25 0 M124.25 0 C134.75 0, 140 5.25, 140 15.75 M124.25 0 C134.75 0, 140 5.25, 140 15.75 M140 15.75 C140 22.91, 140 30.07, 140 47.25 M140 15.75 C140 26.09, 140 36.43, 140 47.25 M140 47.25 C140 57.75, 134.75 63, 124.25 63 M140 47.25 C140 57.75, 134.75 63, 124.25 63 M124.25 63 C95.31 63, 66.36 63, 15.75 63 M124.25 63 C84.09 63, 43.93 63, 15.75 63 M15.75 63 C5.25 63, 0 57.75, 0 47.25 M15.75 63 C5.25 63, 0 57.75, 0 47.25 M0 47.25 C0 38.25, 0 29.26, 0 15.75 M0 47.25 C0 36.61, 0 25.96, 0 15.75 M0 15.75 C0 5.25, 5.25 0, 15.75 0 M0 15.75 C0 5.25, 5.25 0, 15.75 0" stroke="#4285f4" stroke-width="2" fill="none"></path></g><g transform="translate(465.9999999999999 309.625) rotate(0 38.5 9.5)"><text x="0" y="15" font-family="Helvetica, Segoe UI Emoji" font-size="16px" fill="black" text-anchor="start" style="white-space: pre;" direction="ltr">Cloud Run</text></g><g stroke-linecap="round"><g transform="translate(434.82861065864597 310.56444451212883) rotate(0 7.272223353385925 5.467777743935585)" fill-rule="evenodd"><path d="M0 0 L3.63 10.94 L14.54 10.94 L0 0 L0 0" stroke="none" stroke-width="0" fill="#aecbfa" fill-rule="evenodd"></path><path d="M0 0 C1.28 3.87, 2.57 7.74, 3.63 10.94 M0 0 C0.73 2.2, 1.46 4.4, 3.63 10.94 M3.63 10.94 C7.72 10.94, 11.81 10.94, 14.54 10.94 M3.63 10.94 C7.55 10.94, 11.47 10.94, 14.54 10.94 M14.54 10.94 C9.5 7.14, 4.45 3.34, 0 0 M14.54 10.94 C9.07 6.82, 3.59 2.7, 0 0 M0 0 C0 0, 0 0, 0 0 M0 0 C0 0, 0 0, 0 0 M0 0 C0 0, 0 0, 0 0 M0 0 C0 0, 0 0, 0 0" stroke="transparent" stroke-width="2" fill="none"></path></g></g><g stroke-linecap="round"><g transform="translate(449.3730573654178 321.5) rotate(0 -7.272223353385925 5.46777868270874)" fill-rule="evenodd"><path d="M0 0 L-10.91 0 L-14.54 10.94 L0 0 L0 0" stroke="none" stroke-width="0" fill="#4285f4" fill-rule="evenodd"></path><path d="M0 0 C-3.65 0, -7.29 0, -10.91 0 M0 0 C-4.03 0, -8.06 0, -10.91 0 M-10.91 0 C-11.7 2.38, -12.49 4.76, -14.54 10.94 M-10.91 0 C-11.78 2.62, -12.65 5.24, -14.54 10.94 M-14.54 10.94 C-9.17 6.89, -3.79 2.85, 0 0 M-14.54 10.94 C-10.57 7.94, -6.59 4.95, 0 0 M0 0 C0 0, 0 0, 0 0 M0 0 C0 0, 0 0, 0 0 M0 0 C0 0, 0 0, 0 0 M0 0 C0 0, 0 0, 0 0" stroke="transparent" stroke-width="2" fill="none"></path></g></g><g stroke-linecap="round"><g transform="translate(428.4508332610129 332.4355573654175) rotate(0 3.1888886988162994 -5.46777868270874)" fill-rule="evenodd"><path d="M0 0 L3.65 -1.82 L6.38 -10.94 L2.73 -10.94 L0 0 L0 0" stroke="none" stroke-width="0" fill="#4285f4" fill-rule="evenodd"></path><path d="M0 0 C1.03 -0.51, 2.05 -1.02, 3.65 -1.82 M0 0 C1.46 -0.73, 2.92 -1.45, 3.65 -1.82 M3.65 -1.82 C4.58 -4.94, 5.52 -8.06, 6.38 -10.94 M3.65 -1.82 C4.36 -4.21, 5.08 -6.6, 6.38 -10.94 M6.38 -10.94 C5.02 -10.94, 3.66 -10.94, 2.73 -10.94 M6.38 -10.94 C5.53 -10.94, 4.68 -10.94, 2.73 -10.94 M2.73 -10.94 C2.08 -8.34, 1.43 -5.74, 0 0 M2.73 -10.94 C1.74 -6.98, 0.76 -3.03, 0 0 M0 0 C0 0, 0 0, 0 0 M0 0 C0 0, 0 0, 0 0 M0 0 C0 0, 0 0, 0 0 M0 0 C0 0, 0 0, 0 0" stroke="transparent" stroke-width="2" fill="none"></path></g></g><g stroke-linecap="round"><g transform="translate(428.4508332610129 310.56444451212883) rotate(0 3.1888886988162994 5.467777743935585)" fill-rule="evenodd"><path d="M0 0 L2.73 10.94 L6.38 10.94 L3.65 1.82 L0 0 L0 0" stroke="none" stroke-width="0" fill="#aecbfa" fill-rule="evenodd"></path><path d="M0 0 C0.77 3.1, 1.55 6.2, 2.73 10.94 M0 0 C1.05 4.22, 2.11 8.45, 2.73 10.94 M2.73 10.94 C3.98 10.94, 5.23 10.94, 6.38 10.94 M2.73 10.94 C3.48 10.94, 4.23 10.94, 6.38 10.94 M6.38 10.94 C5.73 8.77, 5.08 6.61, 3.65 1.82 M6.38 10.94 C5.72 8.73, 5.06 6.53, 3.65 1.82 M3.65 1.82 C2.91 1.45, 2.17 1.08, 0 0 M3.65 1.82 C2.67 1.33, 1.7 0.85, 0 0 M0 0 C0 0, 0 0, 0 0 M0 0 C0 0, 0 0, 0 0 M0 0 C0 0, 0 0, 0 0 M0 0 C0 0, 0 0, 0 0" stroke="transparent" stroke-width="2" fill="none"></path></g></g><g transform="translate(381.67401123046875 240.15306761917793) rotate(0 79 9.5)"><text x="0" y="15" font-family="Helvetica, Segoe UI Emoji" font-size="16px" fill="#8a8888" text-anchor="start" style="white-space: pre;" direction="ltr">VPC (default network)</text></g><g transform="translate(689 354) rotate(0 47 9.5)"><text x="0" y="15" font-family="Helvetica, Segoe UI Emoji" font-size="16px" fill="black" text-anchor="start" style="white-space: pre;" direction="ltr">Memorystore</text></g><g transform="translate(110 192) rotate(0 39.5 9.5)"><text x="0" y="15" font-family="Helvetica, Segoe UI Emoji" font-size="16px" fill="#8a8888" text-anchor="start" style="white-space: pre;" direction="ltr">Application</text></g><g stroke-linecap="round" transform="translate(10 10) rotate(0 450 40)"><path d="M0 0 L900 0 L900 80 L0 80" stroke="none" stroke-width="0" fill="#e5e7ea"></path><path d="M0 0 C355.64 0, 711.27 0, 900 0 M0 0 C312.81 0, 625.63 0, 900 0 M900 0 C900 17.73, 900 35.46, 900 80 M900 0 C900 27.56, 900 55.11, 900 80 M900 80 C559.14 80, 218.27 80, 0 80 M900 80 C667.84 80, 435.69 80, 0 80 M0 80 C0 53.44, 0 26.88, 0 0 M0 80 C0 56.77, 0 33.54, 0 0" stroke="#e5e7ea" stroke-width="1" fill="none"></path></g><g stroke-linecap="round"><g transform="translate(429.8333329409361 62.99999810010206) rotate(0 -17.33333441615099 -12.999998100102054)" fill-rule="evenodd"><path d="M0 0 L0 0 L1.68 -0.34 L3.05 -1.27 L3.97 -2.65 L4.31 -4.33 L4.33 -26 L4.33 -26 L3.99 -27.68 L3.06 -29.06 L1.68 -29.99 L0 -30.33 L-34.67 -30.33 L-34.67 -30.33 L-36.35 -29.99 L-37.73 -29.06 L-38.66 -27.68 L-39 -26 L-39 -4.33 L-39 -4.33 L-38.66 -2.65 L-37.73 -1.27 L-36.35 -0.34 L-34.67 0 L-43.33 0 L-43.33 4.33 L8.67 4.33 L8.67 0 L0 0 L0 0" stroke="none" stroke-width="0" fill="#000" fill-rule="evenodd"></path><path d="M0 0 C0 0, 0 0, 0 0 M0 0 C0 0, 0 0, 0 0 M0 0 C0.35 -0.07, 0.69 -0.14, 1.68 -0.34 M0 0 C0.44 -0.09, 0.88 -0.18, 1.68 -0.34 M1.68 -0.34 C2.07 -0.6, 2.45 -0.87, 3.05 -1.27 M1.68 -0.34 C1.99 -0.55, 2.3 -0.77, 3.05 -1.27 M3.05 -1.27 C3.29 -1.64, 3.54 -2, 3.97 -2.65 M3.05 -1.27 C3.35 -1.72, 3.64 -2.16, 3.97 -2.65 M3.97 -2.65 C4.04 -2.99, 4.11 -3.33, 4.31 -4.33 M3.97 -2.65 C4.07 -3.14, 4.17 -3.64, 4.31 -4.33 M4.31 -4.33 C4.32 -12.78, 4.33 -21.23, 4.33 -26 M4.31 -4.33 C4.32 -9.18, 4.32 -14.03, 4.33 -26 M4.33 -26 C4.33 -26, 4.33 -26, 4.33 -26 M4.33 -26 C4.33 -26, 4.33 -26, 4.33 -26 M4.33 -26 C4.21 -26.59, 4.09 -27.18, 3.99 -27.68 M4.33 -26 C4.26 -26.37, 4.18 -26.73, 3.99 -27.68 M3.99 -27.68 C3.68 -28.14, 3.38 -28.59, 3.06 -29.06 M3.99 -27.68 C3.66 -28.17, 3.33 -28.66, 3.06 -29.06 M3.06 -29.06 C2.61 -29.36, 2.17 -29.66, 1.68 -29.99 M3.06 -29.06 C2.57 -29.39, 2.08 -29.72, 1.68 -29.99 M1.68 -29.99 C1.21 -30.09, 0.75 -30.18, 0 -30.33 M1.68 -29.99 C1.21 -30.09, 0.73 -30.18, 0 -30.33 M0 -30.33 C-7.46 -30.33, -14.92 -30.33, -34.67 -30.33 M0 -30.33 C-13.82 -30.33, -27.65 -30.33, -34.67 -30.33 M-34.67 -30.33 C-34.67 -30.33, -34.67 -30.33, -34.67 -30.33 M-34.67 -30.33 C-34.67 -30.33, -34.67 -30.33, -34.67 -30.33 M-34.67 -30.33 C-35.24 -30.22, -35.8 -30.1, -36.35 -29.99 M-34.67 -30.33 C-35.2 -30.22, -35.74 -30.12, -36.35 -29.99 M-36.35 -29.99 C-36.83 -29.67, -37.3 -29.35, -37.73 -29.06 M-36.35 -29.99 C-36.77 -29.71, -37.18 -29.43, -37.73 -29.06 M-37.73 -29.06 C-38.03 -28.61, -38.34 -28.16, -38.66 -27.68 M-37.73 -29.06 C-38.09 -28.52, -38.46 -27.98, -38.66 -27.68 M-38.66 -27.68 C-38.76 -27.16, -38.87 -26.64, -39 -26 M-38.66 -27.68 C-38.79 -27.06, -38.91 -26.43, -39 -26 M-39 -26 C-39 -20.95, -39 -15.9, -39 -4.33 M-39 -26 C-39 -19.44, -39 -12.89, -39 -4.33 M-39 -4.33 C-39 -4.33, -39 -4.33, -39 -4.33 M-39 -4.33 C-39 -4.33, -39 -4.33, -39 -4.33 M-39 -4.33 C-38.92 -3.95, -38.85 -3.58, -38.66 -2.65 M-39 -4.33 C-38.92 -3.92, -38.83 -3.51, -38.66 -2.65 M-38.66 -2.65 C-38.38 -2.23, -38.09 -1.81, -37.73 -1.27 M-38.66 -2.65 C-38.31 -2.14, -37.97 -1.63, -37.73 -1.27 M-37.73 -1.27 C-37.33 -1, -36.93 -0.74, -36.35 -0.34 M-37.73 -1.27 C-37.42 -1.07, -37.12 -0.86, -36.35 -0.34 M-36.35 -0.34 C-35.88 -0.25, -35.4 -0.15, -34.67 0 M-36.35 -0.34 C-35.81 -0.23, -35.27 -0.12, -34.67 0 M-34.67 0 C-37.48 0, -40.3 0, -43.33 0 M-34.67 0 C-37.57 0, -40.48 0, -43.33 0 M-43.33 0 C-43.33 1.39, -43.33 2.79, -43.33 4.33 M-43.33 0 C-43.33 1.69, -43.33 3.38, -43.33 4.33 M-43.33 4.33 C-30.05 4.33, -16.77 4.33, 8.67 4.33 M-43.33 4.33 C-27.32 4.33, -11.3 4.33, 8.67 4.33 M8.67 4.33 C8.67 2.97, 8.67 1.6, 8.67 0 M8.67 4.33 C8.67 2.89, 8.67 1.44, 8.67 0 M8.67 0 C5.92 0, 3.18 0, 0 0 M8.67 0 C5.53 0, 2.39 0, 0 0 M0 0 C0 0, 0 0, 0 0 M0 0 C0 0, 0 0, 0 0 M0 0 C0 0, 0 0, 0 0 M0 0 C0 0, 0 0, 0 0" stroke="#00000000" stroke-width="1" fill="none"></path></g></g><g stroke-linecap="round"><g transform="translate(395.16666643321514 36.999999575316906) rotate(0 17.333333253860474 10.83333323523403)" fill-rule="evenodd"><path d="M0 0 L34.67 0 L34.67 21.67 L0 21.67 L0 0" stroke="none" stroke-width="0" fill="#ffffff" fill-rule="evenodd"></path><path d="M0 0 C12.56 0, 25.11 0, 34.67 0 M0 0 C8.58 0, 17.16 0, 34.67 0 M34.67 0 C34.67 4.96, 34.67 9.93, 34.67 21.67 M34.67 0 C34.67 4.6, 34.67 9.19, 34.67 21.67 M34.67 21.67 C23.42 21.67, 12.17 21.67, 0 21.67 M34.67 21.67 C23.81 21.67, 12.95 21.67, 0 21.67 M0 21.67 C0 15.18, 0 8.69, 0 0 M0 21.67 C0 16.93, 0 12.2, 0 0 M0 0 C0 0, 0 0, 0 0 M0 0 C0 0, 0 0, 0 0" stroke="#00000000" stroke-width="1" fill="none"></path></g></g><g stroke-linecap="round"><g transform="translate(511.0909094406553 30.68424242659296) rotate(0 -8.787879457404756 19.315757573407044)" fill-rule="evenodd"><path d="M0 0 L-17.58 -0.02 L-17.58 -0.02 L-18.94 0.26 L-20.06 1.02 L-20.81 2.13 L-21.09 3.5 L-21.09 35.13 L-21.09 35.13 L-20.81 36.5 L-20.06 37.62 L-18.94 38.37 L-17.58 38.65 L0 38.65 L0 38.65 L1.36 38.37 L2.48 37.62 L3.24 36.5 L3.52 35.13 L3.52 3.5 L3.52 3.5 L3.24 2.14 L2.48 1.02 L1.36 0.27 L0 0 L0 0" stroke="none" stroke-width="0" fill="#000" fill-rule="evenodd"></path><path d="M0 0 C-5.04 -0.01, -10.08 -0.01, -17.58 -0.02 M0 0 C-5.25 -0.01, -10.5 -0.01, -17.58 -0.02 M-17.58 -0.02 C-17.58 -0.02, -17.58 -0.02, -17.58 -0.02 M-17.58 -0.02 C-17.58 -0.02, -17.58 -0.02, -17.58 -0.02 M-17.58 -0.02 C-17.94 0.06, -18.31 0.13, -18.94 0.26 M-17.58 -0.02 C-17.86 0.04, -18.15 0.1, -18.94 0.26 M-18.94 0.26 C-19.25 0.47, -19.55 0.67, -20.06 1.02 M-18.94 0.26 C-19.29 0.49, -19.63 0.73, -20.06 1.02 M-20.06 1.02 C-20.36 1.46, -20.66 1.9, -20.81 2.13 M-20.06 1.02 C-20.32 1.4, -20.58 1.79, -20.81 2.13 M-20.81 2.13 C-20.87 2.42, -20.93 2.71, -21.09 3.5 M-20.81 2.13 C-20.9 2.55, -20.98 2.97, -21.09 3.5 M-21.09 3.5 C-21.09 10.2, -21.09 16.91, -21.09 35.13 M-21.09 3.5 C-21.09 11.15, -21.09 18.81, -21.09 35.13 M-21.09 35.13 C-21.09 35.13, -21.09 35.13, -21.09 35.13 M-21.09 35.13 C-21.09 35.13, -21.09 35.13, -21.09 35.13 M-21.09 35.13 C-20.99 35.64, -20.88 36.15, -20.81 36.5 M-21.09 35.13 C-20.99 35.62, -20.89 36.11, -20.81 36.5 M-20.81 36.5 C-20.57 36.85, -20.33 37.21, -20.06 37.62 M-20.81 36.5 C-20.54 36.9, -20.27 37.31, -20.06 37.62 M-20.06 37.62 C-19.66 37.89, -19.26 38.16, -18.94 38.37 M-20.06 37.62 C-19.67 37.88, -19.28 38.14, -18.94 38.37 M-18.94 38.37 C-18.65 38.43, -18.36 38.49, -17.58 38.65 M-18.94 38.37 C-18.45 38.47, -17.95 38.57, -17.58 38.65 M-17.58 38.65 C-11.32 38.65, -5.06 38.65, 0 38.65 M-17.58 38.65 C-10.84 38.65, -4.1 38.65, 0 38.65 M0 38.65 C0 38.65, 0 38.65, 0 38.65 M0 38.65 C0 38.65, 0 38.65, 0 38.65 M0 38.65 C0.52 38.54, 1.04 38.44, 1.36 38.37 M0 38.65 C0.33 38.58, 0.66 38.52, 1.36 38.37 M1.36 38.37 C1.77 38.1, 2.17 37.83, 2.48 37.62 M1.36 38.37 C1.71 38.14, 2.05 37.91, 2.48 37.62 M2.48 37.62 C2.76 37.21, 3.03 36.81, 3.24 36.5 M2.48 37.62 C2.63 37.39, 2.79 37.17, 3.24 36.5 M3.24 36.5 C3.3 36.17, 3.37 35.84, 3.52 35.13 M3.24 36.5 C3.31 36.16, 3.37 35.83, 3.52 35.13 M3.52 35.13 C3.52 27.56, 3.52 19.98, 3.52 3.5 M3.52 35.13 C3.52 23.77, 3.52 12.42, 3.52 3.5 M3.52 3.5 C3.52 3.5, 3.52 3.5, 3.52 3.5 M3.52 3.5 C3.52 3.5, 3.52 3.5, 3.52 3.5 M3.52 3.5 C3.44 3.12, 3.36 2.74, 3.24 2.14 M3.52 3.5 C3.43 3.07, 3.34 2.65, 3.24 2.14 M3.24 2.14 C3.01 1.8, 2.78 1.46, 2.48 1.02 M3.24 2.14 C3.08 1.9, 2.92 1.66, 2.48 1.02 M2.48 1.02 C2.08 0.76, 1.68 0.49, 1.36 0.27 M2.48 1.02 C2.19 0.82, 1.89 0.63, 1.36 0.27 M1.36 0.27 C1.07 0.21, 0.77 0.16, 0 0 M1.36 0.27 C0.98 0.2, 0.59 0.12, 0 0 M0 0 C0 0, 0 0, 0 0 M0 0 C0 0, 0 0, 0 0 M0 0 C0 0, 0 0, 0 0 M0 0 C0 0, 0 0, 0 0" stroke="#00000000" stroke-width="1" fill="none"></path></g></g><g stroke-linecap="round"><g transform="translate(511.0909094406552 62.303029747541274) rotate(0 -8.787878828846715 -12.303029983250575)" fill-rule="evenodd"><path d="M0 0 L-17.58 0 L-17.58 -24.61 L0 -24.61 L0 0" stroke="none" stroke-width="0" fill="#ffffff" fill-rule="evenodd"></path><path d="M0 0 C-6.15 0, -12.29 0, -17.58 0 M0 0 C-5.27 0, -10.53 0, -17.58 0 M-17.58 0 C-17.58 -8.9, -17.58 -17.79, -17.58 -24.61 M-17.58 0 C-17.58 -8.8, -17.58 -17.6, -17.58 -24.61 M-17.58 -24.61 C-11.18 -24.61, -4.78 -24.61, 0 -24.61 M-17.58 -24.61 C-11.8 -24.61, -6.03 -24.61, 0 -24.61 M0 -24.61 C0 -15.55, 0 -6.5, 0 0 M0 -24.61 C0 -19.46, 0 -14.32, 0 0 M0 0 C0 0, 0 0, 0 0 M0 0 C0 0, 0 0, 0 0" stroke="#00000000" stroke-width="1" fill="none"></path></g></g><g transform="translate(830 28) rotate(0 25 9.5)"><text x="0" y="15" font-family="Helvetica, Segoe UI Emoji" font-size="16px" fill="#8a8888" text-anchor="start" style="white-space: pre;" direction="ltr">Clients</text></g><g stroke-linecap="round"><g transform="translate(230 90) rotate(0 0 100.00000000000001)"><path d="M0 0 C0 33.33, 0 166.67, 0 200 M0 0 C0 33.33, 0 166.67, 0 200" stroke="#16459c" stroke-width="2" fill="none"></path></g><g transform="translate(230 90) rotate(0 0 100.00000000000001)"><path d="M0 200 L-6.34 186.41 L6.34 186.41 L0 200" stroke="none" stroke-width="0" fill="#16459c" fill-rule="evenodd"></path><path d="M0 200 C-1.77 196.2, -3.54 192.41, -6.34 186.41 M0 200 C-2.46 194.72, -4.92 189.44, -6.34 186.41 M-6.34 186.41 C-2.85 186.41, 0.64 186.41, 6.34 186.41 M-6.34 186.41 C-1.31 186.41, 3.71 186.41, 6.34 186.41 M6.34 186.41 C3.81 191.83, 1.28 197.24, 0 200 M6.34 186.41 C3.84 191.76, 1.35 197.11, 0 200 M0 200 C0 200, 0 200, 0 200 M0 200 C0 200, 0 200, 0 200" stroke="#16459c" stroke-width="2" fill="none"></path></g></g><g stroke-linecap="round"><g transform="translate(402.66445702133797 558.6996424961545) rotate(0 2.386536589579009 -6.91483912326936)" fill-rule="evenodd"><path d="M0 0 L7.18 -4.14 L7.18 -12.42 L4.77 -13.83 L-2.41 -1.39 L0 0 L0 0" stroke="none" stroke-width="0" fill="#4285f4" fill-rule="evenodd"></path><path d="M0 0 C2.1 -1.21, 4.21 -2.43, 7.18 -4.14 M0 0 C2.12 -1.22, 4.23 -2.44, 7.18 -4.14 M7.18 -4.14 C7.18 -6, 7.18 -7.86, 7.18 -12.42 M7.18 -4.14 C7.18 -5.83, 7.18 -7.52, 7.18 -12.42 M7.18 -12.42 C6.4 -12.88, 5.63 -13.33, 4.77 -13.83 M7.18 -12.42 C6.3 -12.94, 5.42 -13.45, 4.77 -13.83 M4.77 -13.83 C2.12 -9.24, -0.52 -4.65, -2.41 -1.39 M4.77 -13.83 C2.73 -10.29, 0.69 -6.75, -2.41 -1.39 M-2.41 -1.39 C-1.85 -1.06, -1.28 -0.74, 0 0 M-2.41 -1.39 C-1.65 -0.95, -0.9 -0.52, 0 0 M0 0 C0 0, 0 0, 0 0 M0 0 C0 0, 0 0, 0 0 M0 0 C0 0, 0 0, 0 0 M0 0 C0 0, 0 0, 0 0" stroke="#00000000" stroke-width="1" fill="none"></path></g></g><g stroke-linecap="round"><g transform="translate(395.4844465985193 546.2774080445951) rotate(0 4.80367124235795 2.7536987583656583)" fill-rule="evenodd"><path d="M0 0 L0 8.28 L2.41 9.67 L9.61 -2.75 L7.18 -4.16 L0 0 L0 0" stroke="none" stroke-width="0" fill="#669df6" fill-rule="evenodd"></path><path d="M0 0 C0 2.02, 0 4.04, 0 8.28 M0 0 C0 1.93, 0 3.87, 0 8.28 M0 8.28 C0.82 8.75, 1.63 9.22, 2.41 9.67 M0 8.28 C0.59 8.62, 1.18 8.96, 2.41 9.67 M2.41 9.67 C3.93 7.03, 5.46 4.4, 9.61 -2.75 M2.41 9.67 C4.12 6.72, 5.83 3.76, 9.61 -2.75 M9.61 -2.75 C8.85 -3.2, 8.08 -3.64, 7.18 -4.16 M9.61 -2.75 C8.74 -3.26, 7.87 -3.76, 7.18 -4.16 M7.18 -4.16 C5.65 -3.27, 4.11 -2.38, 0 0 M7.18 -4.16 C4.76 -2.76, 2.34 -1.36, 0 0 M0 0 C0 0, 0 0, 0 0 M0 0 C0 0, 0 0, 0 0 M0 0 C0 0, 0 0, 0 0 M0 0 C0 0, 0 0, 0 0" stroke="#00000000" stroke-width="1" fill="none"></path></g></g><g stroke-linecap="round"><g transform="translate(401.2570117673972 561.1677729482922) rotate(0 -8.128505883698608 -5.242224758220971)" fill-rule="evenodd"><path d="M0 0 L-8.61 -4.98 L-8.61 -14.89 L-16.26 -19.32 L-16.26 -0.55 L0 8.83 L0 0 L0 0" stroke="none" stroke-width="0" fill="#aecbfa" fill-rule="evenodd"></path><path d="M0 0 C-2.37 -1.37, -4.73 -2.74, -8.61 -4.98 M0 0 C-1.73 -1, -3.45 -2, -8.61 -4.98 M-8.61 -4.98 C-8.61 -7.82, -8.61 -10.67, -8.61 -14.89 M-8.61 -4.98 C-8.61 -8.4, -8.61 -11.82, -8.61 -14.89 M-8.61 -14.89 C-10.43 -15.95, -12.26 -17, -16.26 -19.32 M-8.61 -14.89 C-10.79 -16.15, -12.96 -17.41, -16.26 -19.32 M-16.26 -19.32 C-16.26 -12.15, -16.26 -4.99, -16.26 -0.55 M-16.26 -19.32 C-16.26 -14.84, -16.26 -10.37, -16.26 -0.55 M-16.26 -0.55 C-11.07 2.44, -5.88 5.44, 0 8.83 M-16.26 -0.55 C-10.56 2.74, -4.86 6.03, 0 8.83 M0 8.83 C0 5.94, 0 3.06, 0 0 M0 8.83 C0 6.9, 0 4.96, 0 0 M0 0 C0 0, 0 0, 0 0 M0 0 C0 0, 0 0, 0 0 M0 0 C0 0, 0 0, 0 0 M0 0 C0 0, 0 0, 0 0" stroke="#00000000" stroke-width="1" fill="none"></path></g></g><g stroke-linecap="round"><g transform="translate(394.05660360841955 543.8296782465387) rotate(0 8.607852683438125 -6.91483912326936)" fill-rule="evenodd"><path d="M0 0 L8.61 -4.98 L17.22 0 L24.89 -4.43 L8.61 -13.83 L-7.67 -4.43 L0 0 L0 0" stroke="none" stroke-width="0" fill="#aecbfa" fill-rule="evenodd"></path><path d="M0 0 C2.31 -1.34, 4.63 -2.68, 8.61 -4.98 M0 0 C2.32 -1.34, 4.64 -2.68, 8.61 -4.98 M8.61 -4.98 C11.56 -3.27, 14.51 -1.56, 17.22 0 M8.61 -4.98 C10.5 -3.88, 12.39 -2.79, 17.22 0 M17.22 0 C19.93 -1.57, 22.65 -3.13, 24.89 -4.43 M17.22 0 C19.11 -1.09, 21 -2.19, 24.89 -4.43 M24.89 -4.43 C20.02 -7.23, 15.16 -10.04, 8.61 -13.83 M24.89 -4.43 C20.81 -6.78, 16.74 -9.13, 8.61 -13.83 M8.61 -13.83 C4.11 -11.23, -0.38 -8.64, -7.67 -4.43 M8.61 -13.83 C2.52 -10.31, -3.56 -6.8, -7.67 -4.43 M-7.67 -4.43 C-5.23 -3.02, -2.8 -1.61, 0 0 M-7.67 -4.43 C-5.15 -2.97, -2.62 -1.51, 0 0 M0 0 C0 0, 0 0, 0 0 M0 0 C0 0, 0 0, 0 0 M0 0 C0 0, 0 0, 0 0 M0 0 C0 0, 0 0, 0 0" stroke="#00000000" stroke-width="1" fill="none"></path></g></g><g stroke-linecap="round"><g transform="translate(412.6797527702753 556.1907194896204) rotate(0 -0.4691464726987533 -0.26517129954925167)" fill-rule="evenodd"><path d="M0 0 L-8.61 4.98 L-8.61 13.81 L7.67 4.43 L7.67 -14.34 L0 -9.91 L0 0 L0 0" stroke="none" stroke-width="0" fill="#aecbfa" fill-rule="evenodd"></path><path d="M0 0 C-3.35 1.94, -6.7 3.88, -8.61 4.98 M0 0 C-2.92 1.69, -5.84 3.37, -8.61 4.98 M-8.61 4.98 C-8.61 6.96, -8.61 8.93, -8.61 13.81 M-8.61 4.98 C-8.61 7.28, -8.61 9.58, -8.61 13.81 M-8.61 13.81 C-5.1 11.79, -1.6 9.77, 7.67 4.43 M-8.61 13.81 C-5.09 11.78, -1.57 9.75, 7.67 4.43 M7.67 4.43 C7.67 -0.85, 7.67 -6.13, 7.67 -14.34 M7.67 4.43 C7.67 -2.88, 7.67 -10.18, 7.67 -14.34 M7.67 -14.34 C5.7 -13.21, 3.74 -12.07, 0 -9.91 M7.67 -14.34 C5.58 -13.14, 3.5 -11.93, 0 -9.91 M0 -9.91 C0 -6.81, 0 -3.7, 0 0 M0 -9.91 C0 -6.99, 0 -4.06, 0 0 M0 0 C0 0, 0 0, 0 0 M0 0 C0 0, 0 0, 0 0 M0 0 C0 0, 0 0, 0 0 M0 0 C0 0, 0 0, 0 0" stroke="#00000000" stroke-width="1" fill="none"></path></g></g><g transform="translate(439 541) rotate(0 41.5 9.5)"><text x="0" y="15" font-family="Helvetica, Segoe UI Emoji" font-size="16px" fill="black" text-anchor="start" style="white-space: pre;" direction="ltr">Cloud Build</text></g><g transform="translate(110 492) rotate(0 49.5 9.5)"><text x="0" y="15" font-family="Helvetica, Segoe UI Emoji" font-size="16px" fill="#8a8888" text-anchor="start" style="white-space: pre;" direction="ltr">Build Process</text></g><g stroke-linecap="round"><g transform="translate(470 510) rotate(0 0 -80)"><path d="M0 0 C0 -26.67, 0 -133.33, 0 -160 M0 0 C0 -26.67, 0 -133.33, 0 -160" stroke="#16459c" stroke-width="2" fill="none"></path></g><g transform="translate(470 510) rotate(0 0 -80)"><path d="M0 -160 L6.34 -146.41 L-6.34 -146.41 L0 -160" stroke="none" stroke-width="0" fill="#16459c" fill-rule="evenodd"></path><path d="M0 -160 C1.91 -155.91, 3.81 -151.83, 6.34 -146.41 M0 -160 C1.82 -156.09, 3.65 -152.17, 6.34 -146.41 M6.34 -146.41 C3.76 -146.41, 1.17 -146.41, -6.34 -146.41 M6.34 -146.41 C2.15 -146.41, -2.04 -146.41, -6.34 -146.41 M-6.34 -146.41 C-4.19 -151.01, -2.04 -155.62, 0 -160 M-6.34 -146.41 C-4.24 -150.9, -2.14 -155.4, 0 -160 M0 -160 C0 -160, 0 -160, 0 -160 M0 -160 C0 -160, 0 -160, 0 -160" stroke="#16459c" stroke-width="2" fill="none"></path></g></g><g stroke-linecap="round" transform="translate(250 230) rotate(0 10 10)"><path d="M20 10 C20 10.58, 19.95 11.17, 19.85 11.74 C19.75 12.31, 19.59 12.88, 19.4 13.42 C19.2 13.96, 18.95 14.5, 18.66 15 C18.37 15.5, 18.03 15.98, 17.66 16.43 C17.29 16.87, 16.87 17.29, 16.43 17.66 C15.98 18.03, 15.5 18.37, 15 18.66 C14.5 18.95, 13.96 19.2, 13.42 19.4 C12.88 19.59, 12.31 19.75, 11.74 19.85 C11.17 19.95, 10.58 20, 10 20 C9.42 20, 8.83 19.95, 8.26 19.85 C7.69 19.75, 7.12 19.59, 6.58 19.4 C6.04 19.2, 5.5 18.95, 5 18.66 C4.5 18.37, 4.02 18.03, 3.57 17.66 C3.13 17.29, 2.71 16.87, 2.34 16.43 C1.97 15.98, 1.63 15.5, 1.34 15 C1.05 14.5, 0.8 13.96, 0.6 13.42 C0.41 12.88, 0.25 12.31, 0.15 11.74 C0.05 11.17, 0 10.58, 0 10 C0 9.42, 0.05 8.83, 0.15 8.26 C0.25 7.69, 0.41 7.12, 0.6 6.58 C0.8 6.04, 1.05 5.5, 1.34 5 C1.63 4.5, 1.97 4.02, 2.34 3.57 C2.71 3.13, 3.13 2.71, 3.57 2.34 C4.02 1.97, 4.5 1.63, 5 1.34 C5.5 1.05, 6.04 0.8, 6.58 0.6 C7.12 0.41, 7.69 0.25, 8.26 0.15 C8.83 0.05, 9.42 0, 10 0 C10.58 0, 11.17 0.05, 11.74 0.15 C12.31 0.25, 12.88 0.41, 13.42 0.6 C13.96 0.8, 14.5 1.05, 15 1.34 C15.5 1.63, 15.98 1.97, 16.43 2.34 C16.87 2.71, 17.29 3.13, 17.66 3.57 C18.03 4.02, 18.37 4.5, 18.66 5 C18.95 5.5, 19.2 6.04, 19.4 6.58 C19.59 7.12, 19.75 7.69, 19.85 8.26 C19.95 8.83, 19.97 9.71, 20 10 C20.03 10.29, 20.03 9.71, 20 10" stroke="#34a853" stroke-width="2" fill="none"></path></g><g transform="translate(255.88106910494594 230.43653897181713) rotate(0 2 10)"><text x="0" y="14" font-family="Virgil, Segoe UI Emoji" font-size="16px" fill="#34a853" text-anchor="start" style="white-space: pre;" direction="ltr">1</text></g><g stroke-linecap="round" transform="translate(570 370) rotate(0 10 10)"><path d="M20 10 C20 10.58, 19.95 11.17, 19.85 11.74 C19.75 12.31, 19.59 12.88, 19.4 13.42 C19.2 13.96, 18.95 14.5, 18.66 15 C18.37 15.5, 18.03 15.98, 17.66 16.43 C17.29 16.87, 16.87 17.29, 16.43 17.66 C15.98 18.03, 15.5 18.37, 15 18.66 C14.5 18.95, 13.96 19.2, 13.42 19.4 C12.88 19.59, 12.31 19.75, 11.74 19.85 C11.17 19.95, 10.58 20, 10 20 C9.42 20, 8.83 19.95, 8.26 19.85 C7.69 19.75, 7.12 19.59, 6.58 19.4 C6.04 19.2, 5.5 18.95, 5 18.66 C4.5 18.37, 4.02 18.03, 3.57 17.66 C3.13 17.29, 2.71 16.87, 2.34 16.43 C1.97 15.98, 1.63 15.5, 1.34 15 C1.05 14.5, 0.8 13.96, 0.6 13.42 C0.41 12.88, 0.25 12.31, 0.15 11.74 C0.05 11.17, 0 10.58, 0 10 C0 9.42, 0.05 8.83, 0.15 8.26 C0.25 7.69, 0.41 7.12, 0.6 6.58 C0.8 6.04, 1.05 5.5, 1.34 5 C1.63 4.5, 1.97 4.02, 2.34 3.57 C2.71 3.13, 3.13 2.71, 3.57 2.34 C4.02 1.97, 4.5 1.63, 5 1.34 C5.5 1.05, 6.04 0.8, 6.58 0.6 C7.12 0.41, 7.69 0.25, 8.26 0.15 C8.83 0.05, 9.42 0, 10 0 C10.58 0, 11.17 0.05, 11.74 0.15 C12.31 0.25, 12.88 0.41, 13.42 0.6 C13.96 0.8, 14.5 1.05, 15 1.34 C15.5 1.63, 15.98 1.97, 16.43 2.34 C16.87 2.71, 17.29 3.13, 17.66 3.57 C18.03 4.02, 18.37 4.5, 18.66 5 C18.95 5.5, 19.2 6.04, 19.4 6.58 C19.59 7.12, 19.75 7.69, 19.85 8.26 C19.95 8.83, 19.97 9.71, 20 10 C20.03 10.29, 20.03 9.71, 20 10" stroke="none" stroke-width="0" fill="#34a853"></path><path d="M20 10 C20 10.58, 19.95 11.17, 19.85 11.74 C19.75 12.31, 19.59 12.88, 19.4 13.42 C19.2 13.96, 18.95 14.5, 18.66 15 C18.37 15.5, 18.03 15.98, 17.66 16.43 C17.29 16.87, 16.87 17.29, 16.43 17.66 C15.98 18.03, 15.5 18.37, 15 18.66 C14.5 18.95, 13.96 19.2, 13.42 19.4 C12.88 19.59, 12.31 19.75, 11.74 19.85 C11.17 19.95, 10.58 20, 10 20 C9.42 20, 8.83 19.95, 8.26 19.85 C7.69 19.75, 7.12 19.59, 6.58 19.4 C6.04 19.2, 5.5 18.95, 5 18.66 C4.5 18.37, 4.02 18.03, 3.57 17.66 C3.13 17.29, 2.71 16.87, 2.34 16.43 C1.97 15.98, 1.63 15.5, 1.34 15 C1.05 14.5, 0.8 13.96, 0.6 13.42 C0.41 12.88, 0.25 12.31, 0.15 11.74 C0.05 11.17, 0 10.58, 0 10 C0 9.42, 0.05 8.83, 0.15 8.26 C0.25 7.69, 0.41 7.12, 0.6 6.58 C0.8 6.04, 1.05 5.5, 1.34 5 C1.63 4.5, 1.97 4.02, 2.34 3.57 C2.71 3.13, 3.13 2.71, 3.57 2.34 C4.02 1.97, 4.5 1.63, 5 1.34 C5.5 1.05, 6.04 0.8, 6.58 0.6 C7.12 0.41, 7.69 0.25, 8.26 0.15 C8.83 0.05, 9.42 0, 10 0 C10.58 0, 11.17 0.05, 11.74 0.15 C12.31 0.25, 12.88 0.41, 13.42 0.6 C13.96 0.8, 14.5 1.05, 15 1.34 C15.5 1.63, 15.98 1.97, 16.43 2.34 C16.87 2.71, 17.29 3.13, 17.66 3.57 C18.03 4.02, 18.37 4.5, 18.66 5 C18.95 5.5, 19.2 6.04, 19.4 6.58 C19.59 7.12, 19.75 7.69, 19.85 8.26 C19.95 8.83, 19.97 9.71, 20 10 C20.03 10.29, 20.03 9.71, 20 10" stroke="#34a853" stroke-width="2" fill="none"></path></g><g transform="translate(575.8810691049459 370.4365389718171) rotate(0 4.5 9)"><text x="0" y="14" font-family="Helvetica, Segoe UI Emoji" font-size="16px" fill="white" text-anchor="start" style="white-space: pre;" direction="ltr">3</text></g><g stroke-linecap="round" transform="translate(570 270) rotate(0 10 10)"><path d="M20 10 C20 10.58, 19.95 11.17, 19.85 11.74 C19.75 12.31, 19.59 12.88, 19.4 13.42 C19.2 13.96, 18.95 14.5, 18.66 15 C18.37 15.5, 18.03 15.98, 17.66 16.43 C17.29 16.87, 16.87 17.29, 16.43 17.66 C15.98 18.03, 15.5 18.37, 15 18.66 C14.5 18.95, 13.96 19.2, 13.42 19.4 C12.88 19.59, 12.31 19.75, 11.74 19.85 C11.17 19.95, 10.58 20, 10 20 C9.42 20, 8.83 19.95, 8.26 19.85 C7.69 19.75, 7.12 19.59, 6.58 19.4 C6.04 19.2, 5.5 18.95, 5 18.66 C4.5 18.37, 4.02 18.03, 3.57 17.66 C3.13 17.29, 2.71 16.87, 2.34 16.43 C1.97 15.98, 1.63 15.5, 1.34 15 C1.05 14.5, 0.8 13.96, 0.6 13.42 C0.41 12.88, 0.25 12.31, 0.15 11.74 C0.05 11.17, 0 10.58, 0 10 C0 9.42, 0.05 8.83, 0.15 8.26 C0.25 7.69, 0.41 7.12, 0.6 6.58 C0.8 6.04, 1.05 5.5, 1.34 5 C1.63 4.5, 1.97 4.02, 2.34 3.57 C2.71 3.13, 3.13 2.71, 3.57 2.34 C4.02 1.97, 4.5 1.63, 5 1.34 C5.5 1.05, 6.04 0.8, 6.58 0.6 C7.12 0.41, 7.69 0.25, 8.26 0.15 C8.83 0.05, 9.42 0, 10 0 C10.58 0, 11.17 0.05, 11.74 0.15 C12.31 0.25, 12.88 0.41, 13.42 0.6 C13.96 0.8, 14.5 1.05, 15 1.34 C15.5 1.63, 15.98 1.97, 16.43 2.34 C16.87 2.71, 17.29 3.13, 17.66 3.57 C18.03 4.02, 18.37 4.5, 18.66 5 C18.95 5.5, 19.2 6.04, 19.4 6.58 C19.59 7.12, 19.75 7.69, 19.85 8.26 C19.95 8.83, 19.97 9.71, 20 10 C20.03 10.29, 20.03 9.71, 20 10" stroke="none" stroke-width="0" fill="#34a853"></path><path d="M20 10 C20 10.58, 19.95 11.17, 19.85 11.74 C19.75 12.31, 19.59 12.88, 19.4 13.42 C19.2 13.96, 18.95 14.5, 18.66 15 C18.37 15.5, 18.03 15.98, 17.66 16.43 C17.29 16.87, 16.87 17.29, 16.43 17.66 C15.98 18.03, 15.5 18.37, 15 18.66 C14.5 18.95, 13.96 19.2, 13.42 19.4 C12.88 19.59, 12.31 19.75, 11.74 19.85 C11.17 19.95, 10.58 20, 10 20 C9.42 20, 8.83 19.95, 8.26 19.85 C7.69 19.75, 7.12 19.59, 6.58 19.4 C6.04 19.2, 5.5 18.95, 5 18.66 C4.5 18.37, 4.02 18.03, 3.57 17.66 C3.13 17.29, 2.71 16.87, 2.34 16.43 C1.97 15.98, 1.63 15.5, 1.34 15 C1.05 14.5, 0.8 13.96, 0.6 13.42 C0.41 12.88, 0.25 12.31, 0.15 11.74 C0.05 11.17, 0 10.58, 0 10 C0 9.42, 0.05 8.83, 0.15 8.26 C0.25 7.69, 0.41 7.12, 0.6 6.58 C0.8 6.04, 1.05 5.5, 1.34 5 C1.63 4.5, 1.97 4.02, 2.34 3.57 C2.71 3.13, 3.13 2.71, 3.57 2.34 C4.02 1.97, 4.5 1.63, 5 1.34 C5.5 1.05, 6.04 0.8, 6.58 0.6 C7.12 0.41, 7.69 0.25, 8.26 0.15 C8.83 0.05, 9.42 0, 10 0 C10.58 0, 11.17 0.05, 11.74 0.15 C12.31 0.25, 12.88 0.41, 13.42 0.6 C13.96 0.8, 14.5 1.05, 15 1.34 C15.5 1.63, 15.98 1.97, 16.43 2.34 C16.87 2.71, 17.29 3.13, 17.66 3.57 C18.03 4.02, 18.37 4.5, 18.66 5 C18.95 5.5, 19.2 6.04, 19.4 6.58 C19.59 7.12, 19.75 7.69, 19.85 8.26 C19.95 8.83, 19.97 9.71, 20 10 C20.03 10.29, 20.03 9.71, 20 10" stroke="#34a853" stroke-width="2" fill="none"></path></g><g transform="translate(575.8810691049459 270.4365389718171) rotate(0 4.5 9)"><text x="0" y="14" font-family="Helvetica, Segoe UI Emoji" font-size="16px" fill="white" text-anchor="start" style="white-space: pre;" direction="ltr">4</text></g><g stroke-linecap="round" transform="translate(430 430) rotate(0 10 10)"><path d="M20 10 C20 10.58, 19.95 11.17, 19.85 11.74 C19.75 12.31, 19.59 12.88, 19.4 13.42 C19.2 13.96, 18.95 14.5, 18.66 15 C18.37 15.5, 18.03 15.98, 17.66 16.43 C17.29 16.87, 16.87 17.29, 16.43 17.66 C15.98 18.03, 15.5 18.37, 15 18.66 C14.5 18.95, 13.96 19.2, 13.42 19.4 C12.88 19.59, 12.31 19.75, 11.74 19.85 C11.17 19.95, 10.58 20, 10 20 C9.42 20, 8.83 19.95, 8.26 19.85 C7.69 19.75, 7.12 19.59, 6.58 19.4 C6.04 19.2, 5.5 18.95, 5 18.66 C4.5 18.37, 4.02 18.03, 3.57 17.66 C3.13 17.29, 2.71 16.87, 2.34 16.43 C1.97 15.98, 1.63 15.5, 1.34 15 C1.05 14.5, 0.8 13.96, 0.6 13.42 C0.41 12.88, 0.25 12.31, 0.15 11.74 C0.05 11.17, 0 10.58, 0 10 C0 9.42, 0.05 8.83, 0.15 8.26 C0.25 7.69, 0.41 7.12, 0.6 6.58 C0.8 6.04, 1.05 5.5, 1.34 5 C1.63 4.5, 1.97 4.02, 2.34 3.57 C2.71 3.13, 3.13 2.71, 3.57 2.34 C4.02 1.97, 4.5 1.63, 5 1.34 C5.5 1.05, 6.04 0.8, 6.58 0.6 C7.12 0.41, 7.69 0.25, 8.26 0.15 C8.83 0.05, 9.42 0, 10 0 C10.58 0, 11.17 0.05, 11.74 0.15 C12.31 0.25, 12.88 0.41, 13.42 0.6 C13.96 0.8, 14.5 1.05, 15 1.34 C15.5 1.63, 15.98 1.97, 16.43 2.34 C16.87 2.71, 17.29 3.13, 17.66 3.57 C18.03 4.02, 18.37 4.5, 18.66 5 C18.95 5.5, 19.2 6.04, 19.4 6.58 C19.59 7.12, 19.75 7.69, 19.85 8.26 C19.95 8.83, 19.97 9.71, 20 10 C20.03 10.29, 20.03 9.71, 20 10" stroke="none" stroke-width="0" fill="#34a853"></path><path d="M20 10 C20 10.58, 19.95 11.17, 19.85 11.74 C19.75 12.31, 19.59 12.88, 19.4 13.42 C19.2 13.96, 18.95 14.5, 18.66 15 C18.37 15.5, 18.03 15.98, 17.66 16.43 C17.29 16.87, 16.87 17.29, 16.43 17.66 C15.98 18.03, 15.5 18.37, 15 18.66 C14.5 18.95, 13.96 19.2, 13.42 19.4 C12.88 19.59, 12.31 19.75, 11.74 19.85 C11.17 19.95, 10.58 20, 10 20 C9.42 20, 8.83 19.95, 8.26 19.85 C7.69 19.75, 7.12 19.59, 6.58 19.4 C6.04 19.2, 5.5 18.95, 5 18.66 C4.5 18.37, 4.02 18.03, 3.57 17.66 C3.13 17.29, 2.71 16.87, 2.34 16.43 C1.97 15.98, 1.63 15.5, 1.34 15 C1.05 14.5, 0.8 13.96, 0.6 13.42 C0.41 12.88, 0.25 12.31, 0.15 11.74 C0.05 11.17, 0 10.58, 0 10 C0 9.42, 0.05 8.83, 0.15 8.26 C0.25 7.69, 0.41 7.12, 0.6 6.58 C0.8 6.04, 1.05 5.5, 1.34 5 C1.63 4.5, 1.97 4.02, 2.34 3.57 C2.71 3.13, 3.13 2.71, 3.57 2.34 C4.02 1.97, 4.5 1.63, 5 1.34 C5.5 1.05, 6.04 0.8, 6.58 0.6 C7.12 0.41, 7.69 0.25, 8.26 0.15 C8.83 0.05, 9.42 0, 10 0 C10.58 0, 11.17 0.05, 11.74 0.15 C12.31 0.25, 12.88 0.41, 13.42 0.6 C13.96 0.8, 14.5 1.05, 15 1.34 C15.5 1.63, 15.98 1.97, 16.43 2.34 C16.87 2.71, 17.29 3.13, 17.66 3.57 C18.03 4.02, 18.37 4.5, 18.66 5 C18.95 5.5, 19.2 6.04, 19.4 6.58 C19.59 7.12, 19.75 7.69, 19.85 8.26 C19.95 8.83, 19.97 9.71, 20 10 C20.03 10.29, 20.03 9.71, 20 10" stroke="#34a853" stroke-width="2" fill="none"></path></g><g transform="translate(435.88106910494594 430.4365389718171) rotate(0 4.5 9)"><text x="0" y="14" font-family="Helvetica, Segoe UI Emoji" font-size="16px" fill="white" text-anchor="start" style="white-space: pre;" direction="ltr">5</text></g><g stroke-linecap="round" transform="translate(250 230) rotate(0 10 10)"><path d="M20 10 C20 10.58, 19.95 11.17, 19.85 11.74 C19.75 12.31, 19.59 12.88, 19.4 13.42 C19.2 13.96, 18.95 14.5, 18.66 15 C18.37 15.5, 18.03 15.98, 17.66 16.43 C17.29 16.87, 16.87 17.29, 16.43 17.66 C15.98 18.03, 15.5 18.37, 15 18.66 C14.5 18.95, 13.96 19.2, 13.42 19.4 C12.88 19.59, 12.31 19.75, 11.74 19.85 C11.17 19.95, 10.58 20, 10 20 C9.42 20, 8.83 19.95, 8.26 19.85 C7.69 19.75, 7.12 19.59, 6.58 19.4 C6.04 19.2, 5.5 18.95, 5 18.66 C4.5 18.37, 4.02 18.03, 3.57 17.66 C3.13 17.29, 2.71 16.87, 2.34 16.43 C1.97 15.98, 1.63 15.5, 1.34 15 C1.05 14.5, 0.8 13.96, 0.6 13.42 C0.41 12.88, 0.25 12.31, 0.15 11.74 C0.05 11.17, 0 10.58, 0 10 C0 9.42, 0.05 8.83, 0.15 8.26 C0.25 7.69, 0.41 7.12, 0.6 6.58 C0.8 6.04, 1.05 5.5, 1.34 5 C1.63 4.5, 1.97 4.02, 2.34 3.57 C2.71 3.13, 3.13 2.71, 3.57 2.34 C4.02 1.97, 4.5 1.63, 5 1.34 C5.5 1.05, 6.04 0.8, 6.58 0.6 C7.12 0.41, 7.69 0.25, 8.26 0.15 C8.83 0.05, 9.42 0, 10 0 C10.58 0, 11.17 0.05, 11.74 0.15 C12.31 0.25, 12.88 0.41, 13.42 0.6 C13.96 0.8, 14.5 1.05, 15 1.34 C15.5 1.63, 15.98 1.97, 16.43 2.34 C16.87 2.71, 17.29 3.13, 17.66 3.57 C18.03 4.02, 18.37 4.5, 18.66 5 C18.95 5.5, 19.2 6.04, 19.4 6.58 C19.59 7.12, 19.75 7.69, 19.85 8.26 C19.95 8.83, 19.97 9.71, 20 10 C20.03 10.29, 20.03 9.71, 20 10" stroke="none" stroke-width="0" fill="#34a853"></path><path d="M20 10 C20 10.58, 19.95 11.17, 19.85 11.74 C19.75 12.31, 19.59 12.88, 19.4 13.42 C19.2 13.96, 18.95 14.5, 18.66 15 C18.37 15.5, 18.03 15.98, 17.66 16.43 C17.29 16.87, 16.87 17.29, 16.43 17.66 C15.98 18.03, 15.5 18.37, 15 18.66 C14.5 18.95, 13.96 19.2, 13.42 19.4 C12.88 19.59, 12.31 19.75, 11.74 19.85 C11.17 19.95, 10.58 20, 10 20 C9.42 20, 8.83 19.95, 8.26 19.85 C7.69 19.75, 7.12 19.59, 6.58 19.4 C6.04 19.2, 5.5 18.95, 5 18.66 C4.5 18.37, 4.02 18.03, 3.57 17.66 C3.13 17.29, 2.71 16.87, 2.34 16.43 C1.97 15.98, 1.63 15.5, 1.34 15 C1.05 14.5, 0.8 13.96, 0.6 13.42 C0.41 12.88, 0.25 12.31, 0.15 11.74 C0.05 11.17, 0 10.58, 0 10 C0 9.42, 0.05 8.83, 0.15 8.26 C0.25 7.69, 0.41 7.12, 0.6 6.58 C0.8 6.04, 1.05 5.5, 1.34 5 C1.63 4.5, 1.97 4.02, 2.34 3.57 C2.71 3.13, 3.13 2.71, 3.57 2.34 C4.02 1.97, 4.5 1.63, 5 1.34 C5.5 1.05, 6.04 0.8, 6.58 0.6 C7.12 0.41, 7.69 0.25, 8.26 0.15 C8.83 0.05, 9.42 0, 10 0 C10.58 0, 11.17 0.05, 11.74 0.15 C12.31 0.25, 12.88 0.41, 13.42 0.6 C13.96 0.8, 14.5 1.05, 15 1.34 C15.5 1.63, 15.98 1.97, 16.43 2.34 C16.87 2.71, 17.29 3.13, 17.66 3.57 C18.03 4.02, 18.37 4.5, 18.66 5 C18.95 5.5, 19.2 6.04, 19.4 6.58 C19.59 7.12, 19.75 7.69, 19.85 8.26 C19.95 8.83, 19.97 9.71, 20 10 C20.03 10.29, 20.03 9.71, 20 10" stroke="#34a853" stroke-width="2" fill="none"></path></g><g stroke-linecap="round" transform="translate(330 290) rotate(0 10 10)"><path d="M20 10 C20 10.58, 19.95 11.17, 19.85 11.74 C19.75 12.31, 19.59 12.88, 19.4 13.42 C19.2 13.96, 18.95 14.5, 18.66 15 C18.37 15.5, 18.03 15.98, 17.66 16.43 C17.29 16.87, 16.87 17.29, 16.43 17.66 C15.98 18.03, 15.5 18.37, 15 18.66 C14.5 18.95, 13.96 19.2, 13.42 19.4 C12.88 19.59, 12.31 19.75, 11.74 19.85 C11.17 19.95, 10.58 20, 10 20 C9.42 20, 8.83 19.95, 8.26 19.85 C7.69 19.75, 7.12 19.59, 6.58 19.4 C6.04 19.2, 5.5 18.95, 5 18.66 C4.5 18.37, 4.02 18.03, 3.57 17.66 C3.13 17.29, 2.71 16.87, 2.34 16.43 C1.97 15.98, 1.63 15.5, 1.34 15 C1.05 14.5, 0.8 13.96, 0.6 13.42 C0.41 12.88, 0.25 12.31, 0.15 11.74 C0.05 11.17, 0 10.58, 0 10 C0 9.42, 0.05 8.83, 0.15 8.26 C0.25 7.69, 0.41 7.12, 0.6 6.58 C0.8 6.04, 1.05 5.5, 1.34 5 C1.63 4.5, 1.97 4.02, 2.34 3.57 C2.71 3.13, 3.13 2.71, 3.57 2.34 C4.02 1.97, 4.5 1.63, 5 1.34 C5.5 1.05, 6.04 0.8, 6.58 0.6 C7.12 0.41, 7.69 0.25, 8.26 0.15 C8.83 0.05, 9.42 0, 10 0 C10.58 0, 11.17 0.05, 11.74 0.15 C12.31 0.25, 12.88 0.41, 13.42 0.6 C13.96 0.8, 14.5 1.05, 15 1.34 C15.5 1.63, 15.98 1.97, 16.43 2.34 C16.87 2.71, 17.29 3.13, 17.66 3.57 C18.03 4.02, 18.37 4.5, 18.66 5 C18.95 5.5, 19.2 6.04, 19.4 6.58 C19.59 7.12, 19.75 7.69, 19.85 8.26 C19.95 8.83, 19.97 9.71, 20 10 C20.03 10.29, 20.03 9.71, 20 10" stroke="none" stroke-width="0" fill="#34a853"></path><path d="M20 10 C20 10.58, 19.95 11.17, 19.85 11.74 C19.75 12.31, 19.59 12.88, 19.4 13.42 C19.2 13.96, 18.95 14.5, 18.66 15 C18.37 15.5, 18.03 15.98, 17.66 16.43 C17.29 16.87, 16.87 17.29, 16.43 17.66 C15.98 18.03, 15.5 18.37, 15 18.66 C14.5 18.95, 13.96 19.2, 13.42 19.4 C12.88 19.59, 12.31 19.75, 11.74 19.85 C11.17 19.95, 10.58 20, 10 20 C9.42 20, 8.83 19.95, 8.26 19.85 C7.69 19.75, 7.12 19.59, 6.58 19.4 C6.04 19.2, 5.5 18.95, 5 18.66 C4.5 18.37, 4.02 18.03, 3.57 17.66 C3.13 17.29, 2.71 16.87, 2.34 16.43 C1.97 15.98, 1.63 15.5, 1.34 15 C1.05 14.5, 0.8 13.96, 0.6 13.42 C0.41 12.88, 0.25 12.31, 0.15 11.74 C0.05 11.17, 0 10.58, 0 10 C0 9.42, 0.05 8.83, 0.15 8.26 C0.25 7.69, 0.41 7.12, 0.6 6.58 C0.8 6.04, 1.05 5.5, 1.34 5 C1.63 4.5, 1.97 4.02, 2.34 3.57 C2.71 3.13, 3.13 2.71, 3.57 2.34 C4.02 1.97, 4.5 1.63, 5 1.34 C5.5 1.05, 6.04 0.8, 6.58 0.6 C7.12 0.41, 7.69 0.25, 8.26 0.15 C8.83 0.05, 9.42 0, 10 0 C10.58 0, 11.17 0.05, 11.74 0.15 C12.31 0.25, 12.88 0.41, 13.42 0.6 C13.96 0.8, 14.5 1.05, 15 1.34 C15.5 1.63, 15.98 1.97, 16.43 2.34 C16.87 2.71, 17.29 3.13, 17.66 3.57 C18.03 4.02, 18.37 4.5, 18.66 5 C18.95 5.5, 19.2 6.04, 19.4 6.58 C19.59 7.12, 19.75 7.69, 19.85 8.26 C19.95 8.83, 19.97 9.71, 20 10 C20.03 10.29, 20.03 9.71, 20 10" stroke="#34a853" stroke-width="2" fill="none"></path></g><g transform="translate(330 290) rotate(0 7 9.5)"><text x="0" y="15" font-family="Helvetica, Segoe UI Emoji" font-size="16px" fill="white" text-anchor="start" style="white-space: pre;" direction="ltr"> 2</text></g><g transform="translate(255.5 231) rotate(0 4.5 9)"><text x="4.5" y="14" font-family="Helvetica, Segoe UI Emoji" font-size="16px" fill="white" text-anchor="middle" style="white-space: pre;" direction="ltr">1</text></g></svg>
