<svg version="1.1" xmlns="http://www.w3.org/2000/svg" viewBox="0 0 840 520" width="1680" height="1040">
  <g stroke-linecap="round" transform="translate(10 110) rotate(0 410 200)"><path d="M0 0 L820 0 L820 400 L0 400" stroke="none" stroke-width="0" fill="#f1f3f4"></path><path d="M0 0 C239.79 0, 479.58 0, 820 0 M0 0 C226.66 0, 453.32 0, 820 0 M820 0 C820 113.51, 820 227.03, 820 400 M820 0 C820 127.26, 820 254.52, 820 400 M820 400 C556.17 400, 292.34 400, 0 400 M820 400 C555.12 400, 290.24 400, 0 400 M0 400 C0 262.75, 0 125.51, 0 0 M0 400 C0 247.4, 0 94.81, 0 0" stroke="#bdc1c6" stroke-width="1" fill="none"></path></g><g stroke-opacity="0.8" fill-opacity="0.8" transform="translate(630 132) rotate(0 94.5 11.5)"><text x="189" y="18" font-family="Helvetica, Segoe UI Emoji" font-size="20px" fill="#5f6368" text-anchor="end" style="white-space: pre;" direction="ltr">Google Cloud project</text></g><g stroke-linecap="round" transform="translate(30 170) rotate(0 390 160)"><path d="M0 0 L780 0 L780 320 L0 320" stroke="none" stroke-width="0" fill="#d2e3fc"></path><path d="M0 0 C196.31 0, 392.61 0, 780 0 M0 0 C233.64 0, 467.28 0, 780 0 M780 0 C780 106.93, 780 213.87, 780 320 M780 0 C780 81.03, 780 162.05, 780 320 M780 320 C517.75 320, 255.5 320, 0 320 M780 320 C566.82 320, 353.63 320, 0 320 M0 320 C0 235.8, 0 151.6, 0 0 M0 320 C0 232.76, 0 145.51, 0 0" stroke="#d2e3fc" stroke-width="4" fill="none"></path></g><g stroke-linecap="round"><g transform="translate(589 430) rotate(0 -29.5 0)"><path d="M0 0 C-9.83 0, -49.17 0, -59 0 M0 0 C-9.83 0, -49.17 0, -59 0" stroke="#202124" stroke-width="1" fill="none"></path></g><g transform="translate(589 430) rotate(0 -29.5 0)"><path d="M0 0 L-13.59 6.34 L-13.59 -6.34 L0 0" stroke="none" stroke-width="0" fill="#202124" fill-rule="evenodd"></path><path d="M0 0 C-3.26 1.52, -6.52 3.04, -13.59 6.34 M0 0 C-4.89 2.28, -9.78 4.56, -13.59 6.34 M-13.59 6.34 C-13.59 3.64, -13.59 0.95, -13.59 -6.34 M-13.59 6.34 C-13.59 2.07, -13.59 -2.2, -13.59 -6.34 M-13.59 -6.34 C-9.94 -4.63, -6.28 -2.93, 0 0 M-13.59 -6.34 C-9.34 -4.35, -5.08 -2.37, 0 0 M0 0 C0 0, 0 0, 0 0 M0 0 C0 0, 0 0, 0 0" stroke="#202124" stroke-width="1" fill="none"></path></g></g><g stroke-linecap="round"><g transform="translate(530 290) rotate(0 0 70)"><path d="M0 0 C0 23.33, 0 116.67, 0 140 M0 0 C0 23.33, 0 116.67, 0 140" stroke="#202124" stroke-width="1" fill="none"></path></g></g><g stroke-linecap="round"><g transform="translate(530 370) rotate(0 -30 0)"><path d="M0 0 C-10 0, -50 0, -60 0 M0 0 C-10 0, -50 0, -60 0" stroke="#202124" stroke-width="1" fill="none"></path></g><g transform="translate(530 370) rotate(0 -30 0)"><path d="M-60 0 L-46.41 -6.34 L-46.41 6.34 L-60 0" stroke="none" stroke-width="0" fill="#202124" fill-rule="evenodd"></path><path d="M-60 0 C-56.47 -1.65, -52.94 -3.29, -46.41 -6.34 M-60 0 C-55.83 -1.95, -51.66 -3.89, -46.41 -6.34 M-46.41 -6.34 C-46.41 -2.74, -46.41 0.86, -46.41 6.34 M-46.41 -6.34 C-46.41 -1.59, -46.41 3.15, -46.41 6.34 M-46.41 6.34 C-50.98 4.21, -55.55 2.08, -60 0 M-46.41 6.34 C-50.62 4.38, -54.83 2.41, -60 0 M-60 0 C-60 0, -60 0, -60 0 M-60 0 C-60 0, -60 0, -60 0" stroke="#202124" stroke-width="1" fill="none"></path></g></g><g stroke-linecap="round"><g transform="translate(230 370) rotate(0 40 0)"><path d="M0 0 C13.33 0, 66.67 0, 80 0 M0 0 C13.33 0, 66.67 0, 80 0" stroke="#202124" stroke-width="1" fill="none"></path></g><g transform="translate(230 370) rotate(0 40 0)"><path d="M0 0 L13.59 -6.34 L13.59 6.34 L0 0" stroke="none" stroke-width="0" fill="#202124" fill-rule="evenodd"></path><path d="M0 0 C5.01 -2.34, 10.02 -4.67, 13.59 -6.34 M0 0 C4.73 -2.21, 9.46 -4.41, 13.59 -6.34 M13.59 -6.34 C13.59 -2.67, 13.59 1.01, 13.59 6.34 M13.59 -6.34 C13.59 -1.7, 13.59 2.93, 13.59 6.34 M13.59 6.34 C10.46 4.88, 7.32 3.41, 0 0 M13.59 6.34 C8.17 3.81, 2.75 1.28, 0 0 M0 0 C0 0, 0 0, 0 0 M0 0 C0 0, 0 0, 0 0" stroke="#202124" stroke-width="1" fill="none"></path></g><g transform="translate(230 370) rotate(0 40 0)"><path d="M80 0 L66.41 6.34 L66.41 -6.34 L80 0" stroke="none" stroke-width="0" fill="#202124" fill-rule="evenodd"></path><path d="M80 0 C74.99 2.34, 69.98 4.67, 66.41 6.34 M80 0 C75.27 2.21, 70.54 4.41, 66.41 6.34 M66.41 6.34 C66.41 2.67, 66.41 -1.01, 66.41 -6.34 M66.41 6.34 C66.41 1.7, 66.41 -2.93, 66.41 -6.34 M66.41 -6.34 C69.54 -4.88, 72.68 -3.41, 80 0 M66.41 -6.34 C71.83 -3.81, 77.25 -1.28, 80 0 M80 0 C80 0, 80 0, 80 0 M80 0 C80 0, 80 0, 80 0" stroke="#202124" stroke-width="1" fill="none"></path></g></g><g transform="translate(50 190) rotate(0 39.5 9.5)"><text x="0" y="15" font-family="Helvetica, Segoe UI Emoji" font-size="16px" fill="#5f6368" text-anchor="start" style="white-space: pre;" direction="ltr">Application</text></g><g stroke-linecap="round" transform="translate(10 10) rotate(0 410 40)"><path d="M0 0 L820 0 L820 80 L0 80" stroke="none" stroke-width="0" fill="#e8eaed"></path><path d="M0 0 C193.41 0, 386.83 0, 820 0 M0 0 C242.74 0, 485.48 0, 820 0 M820 0 C820 29.96, 820 59.93, 820 80 M820 0 C820 22.08, 820 44.16, 820 80 M820 80 C495.07 80, 170.14 80, 0 80 M820 80 C548.62 80, 277.25 80, 0 80 M0 80 C0 56.64, 0 33.28, 0 0 M0 80 C0 51.72, 0 23.44, 0 0" stroke="#e8eaed" stroke-width="1" fill="none"></path></g><g stroke-linecap="round"><g transform="translate(401.03030295768554 60.33333135396242) rotate(0 -17.33333441615099 -12.999998100102054)" fill-rule="evenodd"><path d="M0 0 L0 0 L1.68 -0.34 L3.05 -1.27 L3.97 -2.65 L4.31 -4.33 L4.33 -26 L4.33 -26 L3.99 -27.68 L3.06 -29.06 L1.68 -29.99 L0 -30.33 L-34.67 -30.33 L-34.67 -30.33 L-36.35 -29.99 L-37.73 -29.06 L-38.66 -27.68 L-39 -26 L-39 -4.33 L-39 -4.33 L-38.66 -2.65 L-37.73 -1.27 L-36.35 -0.34 L-34.67 0 L-43.33 0 L-43.33 4.33 L8.67 4.33 L8.67 0 L0 0 L0 0" stroke="none" stroke-width="0" fill="#000" fill-rule="evenodd"></path><path d="M0 0 C0 0, 0 0, 0 0 M0 0 C0 0, 0 0, 0 0 M0 0 C0.57 -0.12, 1.14 -0.23, 1.68 -0.34 M0 0 C0.65 -0.13, 1.3 -0.26, 1.68 -0.34 M1.68 -0.34 C1.99 -0.56, 2.31 -0.77, 3.05 -1.27 M1.68 -0.34 C2.06 -0.6, 2.44 -0.86, 3.05 -1.27 M3.05 -1.27 C3.33 -1.7, 3.62 -2.12, 3.97 -2.65 M3.05 -1.27 C3.26 -1.59, 3.47 -1.9, 3.97 -2.65 M3.97 -2.65 C4.05 -3.02, 4.12 -3.38, 4.31 -4.33 M3.97 -2.65 C4.06 -3.09, 4.15 -3.54, 4.31 -4.33 M4.31 -4.33 C4.32 -10.47, 4.32 -16.6, 4.33 -26 M4.31 -4.33 C4.32 -9.73, 4.32 -15.13, 4.33 -26 M4.33 -26 C4.33 -26, 4.33 -26, 4.33 -26 M4.33 -26 C4.33 -26, 4.33 -26, 4.33 -26 M4.33 -26 C4.21 -26.61, 4.08 -27.23, 3.99 -27.68 M4.33 -26 C4.24 -26.48, 4.14 -26.96, 3.99 -27.68 M3.99 -27.68 C3.71 -28.1, 3.43 -28.51, 3.06 -29.06 M3.99 -27.68 C3.77 -28, 3.56 -28.32, 3.06 -29.06 M3.06 -29.06 C2.65 -29.34, 2.23 -29.62, 1.68 -29.99 M3.06 -29.06 C2.7 -29.31, 2.33 -29.55, 1.68 -29.99 M1.68 -29.99 C1.1 -30.11, 0.51 -30.23, 0 -30.33 M1.68 -29.99 C1.3 -30.07, 0.91 -30.15, 0 -30.33 M0 -30.33 C-10.21 -30.33, -20.42 -30.33, -34.67 -30.33 M0 -30.33 C-7.51 -30.33, -15.01 -30.33, -34.67 -30.33 M-34.67 -30.33 C-34.67 -30.33, -34.67 -30.33, -34.67 -30.33 M-34.67 -30.33 C-34.67 -30.33, -34.67 -30.33, -34.67 -30.33 M-34.67 -30.33 C-35.01 -30.26, -35.35 -30.19, -36.35 -29.99 M-34.67 -30.33 C-35.11 -30.24, -35.56 -30.15, -36.35 -29.99 M-36.35 -29.99 C-36.73 -29.73, -37.11 -29.48, -37.73 -29.06 M-36.35 -29.99 C-36.83 -29.67, -37.3 -29.35, -37.73 -29.06 M-37.73 -29.06 C-38.04 -28.6, -38.35 -28.14, -38.66 -27.68 M-37.73 -29.06 C-37.94 -28.74, -38.16 -28.42, -38.66 -27.68 M-38.66 -27.68 C-38.74 -27.3, -38.81 -26.92, -39 -26 M-38.66 -27.68 C-38.75 -27.24, -38.84 -26.81, -39 -26 M-39 -26 C-39 -20.55, -39 -15.1, -39 -4.33 M-39 -26 C-39 -20.96, -39 -15.92, -39 -4.33 M-39 -4.33 C-39 -4.33, -39 -4.33, -39 -4.33 M-39 -4.33 C-39 -4.33, -39 -4.33, -39 -4.33 M-39 -4.33 C-38.87 -3.71, -38.75 -3.09, -38.66 -2.65 M-39 -4.33 C-38.9 -3.85, -38.81 -3.37, -38.66 -2.65 M-38.66 -2.65 C-38.46 -2.36, -38.26 -2.06, -37.73 -1.27 M-38.66 -2.65 C-38.42 -2.29, -38.18 -1.94, -37.73 -1.27 M-37.73 -1.27 C-37.23 -0.94, -36.74 -0.61, -36.35 -0.34 M-37.73 -1.27 C-37.31 -0.99, -36.9 -0.71, -36.35 -0.34 M-36.35 -0.34 C-35.95 -0.26, -35.54 -0.18, -34.67 0 M-36.35 -0.34 C-35.82 -0.23, -35.28 -0.13, -34.67 0 M-34.67 0 C-37.59 0, -40.52 0, -43.33 0 M-34.67 0 C-37.15 0, -39.63 0, -43.33 0 M-43.33 0 C-43.33 0.87, -43.33 1.74, -43.33 4.33 M-43.33 0 C-43.33 1.4, -43.33 2.81, -43.33 4.33 M-43.33 4.33 C-28.58 4.33, -13.83 4.33, 8.67 4.33 M-43.33 4.33 C-25.15 4.33, -6.96 4.33, 8.67 4.33 M8.67 4.33 C8.67 2.72, 8.67 1.1, 8.67 0 M8.67 4.33 C8.67 2.78, 8.67 1.22, 8.67 0 M8.67 0 C6.72 0, 4.78 0, 0 0 M8.67 0 C6.13 0, 3.6 0, 0 0 M0 0 C0 0, 0 0, 0 0 M0 0 C0 0, 0 0, 0 0 M0 0 C0 0, 0 0, 0 0 M0 0 C0 0, 0 0, 0 0" stroke="#00000000" stroke-width="1" fill="none"></path></g></g><g stroke-linecap="round"><g transform="translate(366.3636364499646 34.33333282917738) rotate(0 17.333333253860474 10.83333323523403)" fill-rule="evenodd"><path d="M0 0 L34.67 0 L34.67 21.67 L0 21.67 L0 0" stroke="none" stroke-width="0" fill="#ffffff" fill-rule="evenodd"></path><path d="M0 0 C9.58 0, 19.16 0, 34.67 0 M0 0 C9.84 0, 19.68 0, 34.67 0 M34.67 0 C34.67 6.89, 34.67 13.79, 34.67 21.67 M34.67 0 C34.67 6.97, 34.67 13.94, 34.67 21.67 M34.67 21.67 C23.47 21.67, 12.27 21.67, 0 21.67 M34.67 21.67 C22.77 21.67, 10.88 21.67, 0 21.67 M0 21.67 C0 13.4, 0 5.14, 0 0 M0 21.67 C0 15.97, 0 10.27, 0 0 M0 0 C0 0, 0 0, 0 0 M0 0 C0 0, 0 0, 0 0" stroke="#00000000" stroke-width="1" fill="none"></path></g></g><g stroke-linecap="round"><g transform="translate(478.78787945740464 30.684242426592846) rotate(0 -8.787879457404756 19.315757573407044)" fill-rule="evenodd"><path d="M0 0 L-17.58 -0.02 L-17.58 -0.02 L-18.94 0.26 L-20.06 1.02 L-20.81 2.13 L-21.09 3.5 L-21.09 35.13 L-21.09 35.13 L-20.81 36.5 L-20.06 37.62 L-18.94 38.37 L-17.58 38.65 L0 38.65 L0 38.65 L1.36 38.37 L2.48 37.62 L3.24 36.5 L3.52 35.13 L3.52 3.5 L3.52 3.5 L3.24 2.14 L2.48 1.02 L1.36 0.27 L0 0 L0 0" stroke="none" stroke-width="0" fill="#000" fill-rule="evenodd"></path><path d="M0 0 C-3.88 0, -7.76 -0.01, -17.58 -0.02 M0 0 C-3.94 0, -7.87 -0.01, -17.58 -0.02 M-17.58 -0.02 C-17.58 -0.02, -17.58 -0.02, -17.58 -0.02 M-17.58 -0.02 C-17.58 -0.02, -17.58 -0.02, -17.58 -0.02 M-17.58 -0.02 C-17.91 0.05, -18.24 0.12, -18.94 0.26 M-17.58 -0.02 C-17.88 0.04, -18.18 0.1, -18.94 0.26 M-18.94 0.26 C-19.28 0.49, -19.62 0.72, -20.06 1.02 M-18.94 0.26 C-19.31 0.51, -19.67 0.75, -20.06 1.02 M-20.06 1.02 C-20.23 1.27, -20.4 1.52, -20.81 2.13 M-20.06 1.02 C-20.29 1.36, -20.53 1.71, -20.81 2.13 M-20.81 2.13 C-20.91 2.6, -21 3.06, -21.09 3.5 M-20.81 2.13 C-20.89 2.49, -20.96 2.86, -21.09 3.5 M-21.09 3.5 C-21.09 15.33, -21.09 27.16, -21.09 35.13 M-21.09 3.5 C-21.09 15.46, -21.09 27.43, -21.09 35.13 M-21.09 35.13 C-21.09 35.13, -21.09 35.13, -21.09 35.13 M-21.09 35.13 C-21.09 35.13, -21.09 35.13, -21.09 35.13 M-21.09 35.13 C-21 35.59, -20.9 36.05, -20.81 36.5 M-21.09 35.13 C-20.98 35.68, -20.87 36.22, -20.81 36.5 M-20.81 36.5 C-20.64 36.75, -20.48 37, -20.06 37.62 M-20.81 36.5 C-20.63 36.76, -20.46 37.03, -20.06 37.62 M-20.06 37.62 C-19.81 37.78, -19.57 37.95, -18.94 38.37 M-20.06 37.62 C-19.79 37.8, -19.52 37.98, -18.94 38.37 M-18.94 38.37 C-18.48 38.46, -18.03 38.56, -17.58 38.65 M-18.94 38.37 C-18.44 38.47, -17.94 38.58, -17.58 38.65 M-17.58 38.65 C-10.88 38.65, -4.18 38.65, 0 38.65 M-17.58 38.65 C-12.55 38.65, -7.51 38.65, 0 38.65 M0 38.65 C0 38.65, 0 38.65, 0 38.65 M0 38.65 C0 38.65, 0 38.65, 0 38.65 M0 38.65 C0.32 38.58, 0.65 38.52, 1.36 38.37 M0 38.65 C0.54 38.54, 1.08 38.43, 1.36 38.37 M1.36 38.37 C1.7 38.15, 2.03 37.92, 2.48 37.62 M1.36 38.37 C1.75 38.11, 2.14 37.85, 2.48 37.62 M2.48 37.62 C2.67 37.34, 2.86 37.06, 3.24 36.5 M2.48 37.62 C2.74 37.24, 2.99 36.86, 3.24 36.5 M3.24 36.5 C3.33 36.05, 3.42 35.6, 3.52 35.13 M3.24 36.5 C3.31 36.13, 3.39 35.76, 3.52 35.13 M3.52 35.13 C3.52 24.32, 3.52 13.51, 3.52 3.5 M3.52 35.13 C3.52 23.39, 3.52 11.64, 3.52 3.5 M3.52 3.5 C3.52 3.5, 3.52 3.5, 3.52 3.5 M3.52 3.5 C3.52 3.5, 3.52 3.5, 3.52 3.5 M3.52 3.5 C3.44 3.11, 3.36 2.73, 3.24 2.14 M3.52 3.5 C3.44 3.15, 3.37 2.8, 3.24 2.14 M3.24 2.14 C2.94 1.69, 2.64 1.25, 2.48 1.02 M3.24 2.14 C2.96 1.72, 2.68 1.31, 2.48 1.02 M2.48 1.02 C2.15 0.8, 1.83 0.58, 1.36 0.27 M2.48 1.02 C2.2 0.84, 1.92 0.65, 1.36 0.27 M1.36 0.27 C0.91 0.18, 0.45 0.09, 0 0 M1.36 0.27 C1.08 0.22, 0.8 0.16, 0 0 M0 0 C0 0, 0 0, 0 0 M0 0 C0 0, 0 0, 0 0 M0 0 C0 0, 0 0, 0 0 M0 0 C0 0, 0 0, 0 0" stroke="#00000000" stroke-width="1" fill="none"></path></g></g><g stroke-linecap="round"><g transform="translate(478.78787945740464 62.30302974754113) rotate(0 -8.787878828846715 -12.303029983250575)" fill-rule="evenodd"><path d="M0 0 L-17.58 0 L-17.58 -24.61 L0 -24.61 L0 0" stroke="none" stroke-width="0" fill="#ffffff" fill-rule="evenodd"></path><path d="M0 0 C-5.89 0, -11.78 0, -17.58 0 M0 0 C-4.36 0, -8.71 0, -17.58 0 M-17.58 0 C-17.58 -8.4, -17.58 -16.8, -17.58 -24.61 M-17.58 0 C-17.58 -6.41, -17.58 -12.82, -17.58 -24.61 M-17.58 -24.61 C-12.93 -24.61, -8.29 -24.61, 0 -24.61 M-17.58 -24.61 C-13.05 -24.61, -8.53 -24.61, 0 -24.61 M0 -24.61 C0 -16.93, 0 -9.25, 0 0 M0 -24.61 C0 -18.27, 0 -11.94, 0 0 M0 0 C0 0, 0 0, 0 0 M0 0 C0 0, 0 0, 0 0" stroke="#00000000" stroke-width="1" fill="none"></path></g></g><g transform="translate(769 30) rotate(0 25 9)"><text x="50" y="14" font-family="Helvetica, Segoe UI Emoji" font-size="16px" fill="#5f6368" text-anchor="end" style="white-space: pre;" direction="ltr">Clients</text></g><g stroke-linecap="round"><g transform="translate(161.24958189998858 90) rotate(0 0 120.00000000000001)"><path d="M0 0 C0 40, 0 200, 0 240 M0 0 C0 40, 0 200, 0 240" stroke="#202124" stroke-width="1" fill="none"></path></g><g transform="translate(161.24958189998858 90) rotate(0 0 120.00000000000001)"><path d="M0 240 L-6.34 226.41 L6.34 226.41 L0 240" stroke="none" stroke-width="0" fill="#202124" fill-rule="evenodd"></path><path d="M0 240 C-2.28 235.11, -4.56 230.22, -6.34 226.41 M0 240 C-1.35 237.11, -2.7 234.22, -6.34 226.41 M-6.34 226.41 C-2.07 226.41, 2.2 226.41, 6.34 226.41 M-6.34 226.41 C-2.93 226.41, 0.48 226.41, 6.34 226.41 M6.34 226.41 C4.35 230.66, 2.37 234.92, 0 240 M6.34 226.41 C4.78 229.76, 3.22 233.11, 0 240 M0 240 C0 240, 0 240, 0 240 M0 240 C0 240, 0 240, 0 240" stroke="#202124" stroke-width="1" fill="none"></path></g></g><g stroke-linecap="round" transform="translate(170 230) rotate(0 10 10)"><path d="M20 10 C20 10.58, 19.95 11.17, 19.85 11.74 C19.75 12.31, 19.59 12.88, 19.4 13.42 C19.2 13.96, 18.95 14.5, 18.66 15 C18.37 15.5, 18.03 15.98, 17.66 16.43 C17.29 16.87, 16.87 17.29, 16.43 17.66 C15.98 18.03, 15.5 18.37, 15 18.66 C14.5 18.95, 13.96 19.2, 13.42 19.4 C12.88 19.59, 12.31 19.75, 11.74 19.85 C11.17 19.95, 10.58 20, 10 20 C9.42 20, 8.83 19.95, 8.26 19.85 C7.69 19.75, 7.12 19.59, 6.58 19.4 C6.04 19.2, 5.5 18.95, 5 18.66 C4.5 18.37, 4.02 18.03, 3.57 17.66 C3.13 17.29, 2.71 16.87, 2.34 16.43 C1.97 15.98, 1.63 15.5, 1.34 15 C1.05 14.5, 0.8 13.96, 0.6 13.42 C0.41 12.88, 0.25 12.31, 0.15 11.74 C0.05 11.17, 0 10.58, 0 10 C0 9.42, 0.05 8.83, 0.15 8.26 C0.25 7.69, 0.41 7.12, 0.6 6.58 C0.8 6.04, 1.05 5.5, 1.34 5 C1.63 4.5, 1.97 4.02, 2.34 3.57 C2.71 3.13, 3.13 2.71, 3.57 2.34 C4.02 1.97, 4.5 1.63, 5 1.34 C5.5 1.05, 6.04 0.8, 6.58 0.6 C7.12 0.41, 7.69 0.25, 8.26 0.15 C8.83 0.05, 9.42 0, 10 0 C10.58 0, 11.17 0.05, 11.74 0.15 C12.31 0.25, 12.88 0.41, 13.42 0.6 C13.96 0.8, 14.5 1.05, 15 1.34 C15.5 1.63, 15.98 1.97, 16.43 2.34 C16.87 2.71, 17.29 3.13, 17.66 3.57 C18.03 4.02, 18.37 4.5, 18.66 5 C18.95 5.5, 19.2 6.04, 19.4 6.58 C19.59 7.12, 19.75 7.69, 19.85 8.26 C19.95 8.83, 19.97 9.71, 20 10 C20.03 10.29, 20.03 9.71, 20 10" stroke="#34a853" stroke-width="2" fill="none"></path></g><g transform="translate(178 230) rotate(0 2 10)"><text x="0" y="14" font-family="Virgil, Segoe UI Emoji" font-size="16px" fill="#34a853" text-anchor="start" style="white-space: pre;" direction="ltr">1</text></g><g stroke-linecap="round" transform="translate(170 230) rotate(0 10 10)"><path d="M20 10 C20 10.58, 19.95 11.17, 19.85 11.74 C19.75 12.31, 19.59 12.88, 19.4 13.42 C19.2 13.96, 18.95 14.5, 18.66 15 C18.37 15.5, 18.03 15.98, 17.66 16.43 C17.29 16.87, 16.87 17.29, 16.43 17.66 C15.98 18.03, 15.5 18.37, 15 18.66 C14.5 18.95, 13.96 19.2, 13.42 19.4 C12.88 19.59, 12.31 19.75, 11.74 19.85 C11.17 19.95, 10.58 20, 10 20 C9.42 20, 8.83 19.95, 8.26 19.85 C7.69 19.75, 7.12 19.59, 6.58 19.4 C6.04 19.2, 5.5 18.95, 5 18.66 C4.5 18.37, 4.02 18.03, 3.57 17.66 C3.13 17.29, 2.71 16.87, 2.34 16.43 C1.97 15.98, 1.63 15.5, 1.34 15 C1.05 14.5, 0.8 13.96, 0.6 13.42 C0.41 12.88, 0.25 12.31, 0.15 11.74 C0.05 11.17, 0 10.58, 0 10 C0 9.42, 0.05 8.83, 0.15 8.26 C0.25 7.69, 0.41 7.12, 0.6 6.58 C0.8 6.04, 1.05 5.5, 1.34 5 C1.63 4.5, 1.97 4.02, 2.34 3.57 C2.71 3.13, 3.13 2.71, 3.57 2.34 C4.02 1.97, 4.5 1.63, 5 1.34 C5.5 1.05, 6.04 0.8, 6.58 0.6 C7.12 0.41, 7.69 0.25, 8.26 0.15 C8.83 0.05, 9.42 0, 10 0 C10.58 0, 11.17 0.05, 11.74 0.15 C12.31 0.25, 12.88 0.41, 13.42 0.6 C13.96 0.8, 14.5 1.05, 15 1.34 C15.5 1.63, 15.98 1.97, 16.43 2.34 C16.87 2.71, 17.29 3.13, 17.66 3.57 C18.03 4.02, 18.37 4.5, 18.66 5 C18.95 5.5, 19.2 6.04, 19.4 6.58 C19.59 7.12, 19.75 7.69, 19.85 8.26 C19.95 8.83, 19.97 9.71, 20 10 C20.03 10.29, 20.03 9.71, 20 10" stroke="none" stroke-width="0" fill="#0d652d"></path><path d="M20 10 C20 10.58, 19.95 11.17, 19.85 11.74 C19.75 12.31, 19.59 12.88, 19.4 13.42 C19.2 13.96, 18.95 14.5, 18.66 15 C18.37 15.5, 18.03 15.98, 17.66 16.43 C17.29 16.87, 16.87 17.29, 16.43 17.66 C15.98 18.03, 15.5 18.37, 15 18.66 C14.5 18.95, 13.96 19.2, 13.42 19.4 C12.88 19.59, 12.31 19.75, 11.74 19.85 C11.17 19.95, 10.58 20, 10 20 C9.42 20, 8.83 19.95, 8.26 19.85 C7.69 19.75, 7.12 19.59, 6.58 19.4 C6.04 19.2, 5.5 18.95, 5 18.66 C4.5 18.37, 4.02 18.03, 3.57 17.66 C3.13 17.29, 2.71 16.87, 2.34 16.43 C1.97 15.98, 1.63 15.5, 1.34 15 C1.05 14.5, 0.8 13.96, 0.6 13.42 C0.41 12.88, 0.25 12.31, 0.15 11.74 C0.05 11.17, 0 10.58, 0 10 C0 9.42, 0.05 8.83, 0.15 8.26 C0.25 7.69, 0.41 7.12, 0.6 6.58 C0.8 6.04, 1.05 5.5, 1.34 5 C1.63 4.5, 1.97 4.02, 2.34 3.57 C2.71 3.13, 3.13 2.71, 3.57 2.34 C4.02 1.97, 4.5 1.63, 5 1.34 C5.5 1.05, 6.04 0.8, 6.58 0.6 C7.12 0.41, 7.69 0.25, 8.26 0.15 C8.83 0.05, 9.42 0, 10 0 C10.58 0, 11.17 0.05, 11.74 0.15 C12.31 0.25, 12.88 0.41, 13.42 0.6 C13.96 0.8, 14.5 1.05, 15 1.34 C15.5 1.63, 15.98 1.97, 16.43 2.34 C16.87 2.71, 17.29 3.13, 17.66 3.57 C18.03 4.02, 18.37 4.5, 18.66 5 C18.95 5.5, 19.2 6.04, 19.4 6.58 C19.59 7.12, 19.75 7.69, 19.85 8.26 C19.95 8.83, 19.97 9.71, 20 10 C20.03 10.29, 20.03 9.71, 20 10" stroke="#0d652d" stroke-width="2" fill="none"></path></g><g transform="translate(175.5 231) rotate(0 4.5 9)"><text x="4.5" y="14" font-family="Helvetica, Segoe UI Emoji" font-size="16px" fill="white" text-anchor="middle" style="white-space: pre;" direction="ltr">1</text></g><g stroke-linecap="round" transform="translate(260 330) rotate(0 10 10)"><path d="M20 10 C20 10.58, 19.95 11.17, 19.85 11.74 C19.75 12.31, 19.59 12.88, 19.4 13.42 C19.2 13.96, 18.95 14.5, 18.66 15 C18.37 15.5, 18.03 15.98, 17.66 16.43 C17.29 16.87, 16.87 17.29, 16.43 17.66 C15.98 18.03, 15.5 18.37, 15 18.66 C14.5 18.95, 13.96 19.2, 13.42 19.4 C12.88 19.59, 12.31 19.75, 11.74 19.85 C11.17 19.95, 10.58 20, 10 20 C9.42 20, 8.83 19.95, 8.26 19.85 C7.69 19.75, 7.12 19.59, 6.58 19.4 C6.04 19.2, 5.5 18.95, 5 18.66 C4.5 18.37, 4.02 18.03, 3.57 17.66 C3.13 17.29, 2.71 16.87, 2.34 16.43 C1.97 15.98, 1.63 15.5, 1.34 15 C1.05 14.5, 0.8 13.96, 0.6 13.42 C0.41 12.88, 0.25 12.31, 0.15 11.74 C0.05 11.17, 0 10.58, 0 10 C0 9.42, 0.05 8.83, 0.15 8.26 C0.25 7.69, 0.41 7.12, 0.6 6.58 C0.8 6.04, 1.05 5.5, 1.34 5 C1.63 4.5, 1.97 4.02, 2.34 3.57 C2.71 3.13, 3.13 2.71, 3.57 2.34 C4.02 1.97, 4.5 1.63, 5 1.34 C5.5 1.05, 6.04 0.8, 6.58 0.6 C7.12 0.41, 7.69 0.25, 8.26 0.15 C8.83 0.05, 9.42 0, 10 0 C10.58 0, 11.17 0.05, 11.74 0.15 C12.31 0.25, 12.88 0.41, 13.42 0.6 C13.96 0.8, 14.5 1.05, 15 1.34 C15.5 1.63, 15.98 1.97, 16.43 2.34 C16.87 2.71, 17.29 3.13, 17.66 3.57 C18.03 4.02, 18.37 4.5, 18.66 5 C18.95 5.5, 19.2 6.04, 19.4 6.58 C19.59 7.12, 19.75 7.69, 19.85 8.26 C19.95 8.83, 19.97 9.71, 20 10 C20.03 10.29, 20.03 9.71, 20 10" stroke="#34a853" stroke-width="2" fill="none"></path></g><g transform="translate(268 330) rotate(0 2 10)"><text x="0" y="14" font-family="Virgil, Segoe UI Emoji" font-size="16px" fill="#34a853" text-anchor="start" style="white-space: pre;" direction="ltr">1</text></g><g stroke-linecap="round" transform="translate(260 330) rotate(0 10 10)"><path d="M20 10 C20 10.58, 19.95 11.17, 19.85 11.74 C19.75 12.31, 19.59 12.88, 19.4 13.42 C19.2 13.96, 18.95 14.5, 18.66 15 C18.37 15.5, 18.03 15.98, 17.66 16.43 C17.29 16.87, 16.87 17.29, 16.43 17.66 C15.98 18.03, 15.5 18.37, 15 18.66 C14.5 18.95, 13.96 19.2, 13.42 19.4 C12.88 19.59, 12.31 19.75, 11.74 19.85 C11.17 19.95, 10.58 20, 10 20 C9.42 20, 8.83 19.95, 8.26 19.85 C7.69 19.75, 7.12 19.59, 6.58 19.4 C6.04 19.2, 5.5 18.95, 5 18.66 C4.5 18.37, 4.02 18.03, 3.57 17.66 C3.13 17.29, 2.71 16.87, 2.34 16.43 C1.97 15.98, 1.63 15.5, 1.34 15 C1.05 14.5, 0.8 13.96, 0.6 13.42 C0.41 12.88, 0.25 12.31, 0.15 11.74 C0.05 11.17, 0 10.58, 0 10 C0 9.42, 0.05 8.83, 0.15 8.26 C0.25 7.69, 0.41 7.12, 0.6 6.58 C0.8 6.04, 1.05 5.5, 1.34 5 C1.63 4.5, 1.97 4.02, 2.34 3.57 C2.71 3.13, 3.13 2.71, 3.57 2.34 C4.02 1.97, 4.5 1.63, 5 1.34 C5.5 1.05, 6.04 0.8, 6.58 0.6 C7.12 0.41, 7.69 0.25, 8.26 0.15 C8.83 0.05, 9.42 0, 10 0 C10.58 0, 11.17 0.05, 11.74 0.15 C12.31 0.25, 12.88 0.41, 13.42 0.6 C13.96 0.8, 14.5 1.05, 15 1.34 C15.5 1.63, 15.98 1.97, 16.43 2.34 C16.87 2.71, 17.29 3.13, 17.66 3.57 C18.03 4.02, 18.37 4.5, 18.66 5 C18.95 5.5, 19.2 6.04, 19.4 6.58 C19.59 7.12, 19.75 7.69, 19.85 8.26 C19.95 8.83, 19.97 9.71, 20 10 C20.03 10.29, 20.03 9.71, 20 10" stroke="none" stroke-width="0" fill="#0d652d"></path><path d="M20 10 C20 10.58, 19.95 11.17, 19.85 11.74 C19.75 12.31, 19.59 12.88, 19.4 13.42 C19.2 13.96, 18.95 14.5, 18.66 15 C18.37 15.5, 18.03 15.98, 17.66 16.43 C17.29 16.87, 16.87 17.29, 16.43 17.66 C15.98 18.03, 15.5 18.37, 15 18.66 C14.5 18.95, 13.96 19.2, 13.42 19.4 C12.88 19.59, 12.31 19.75, 11.74 19.85 C11.17 19.95, 10.58 20, 10 20 C9.42 20, 8.83 19.95, 8.26 19.85 C7.69 19.75, 7.12 19.59, 6.58 19.4 C6.04 19.2, 5.5 18.95, 5 18.66 C4.5 18.37, 4.02 18.03, 3.57 17.66 C3.13 17.29, 2.71 16.87, 2.34 16.43 C1.97 15.98, 1.63 15.5, 1.34 15 C1.05 14.5, 0.8 13.96, 0.6 13.42 C0.41 12.88, 0.25 12.31, 0.15 11.74 C0.05 11.17, 0 10.58, 0 10 C0 9.42, 0.05 8.83, 0.15 8.26 C0.25 7.69, 0.41 7.12, 0.6 6.58 C0.8 6.04, 1.05 5.5, 1.34 5 C1.63 4.5, 1.97 4.02, 2.34 3.57 C2.71 3.13, 3.13 2.71, 3.57 2.34 C4.02 1.97, 4.5 1.63, 5 1.34 C5.5 1.05, 6.04 0.8, 6.58 0.6 C7.12 0.41, 7.69 0.25, 8.26 0.15 C8.83 0.05, 9.42 0, 10 0 C10.58 0, 11.17 0.05, 11.74 0.15 C12.31 0.25, 12.88 0.41, 13.42 0.6 C13.96 0.8, 14.5 1.05, 15 1.34 C15.5 1.63, 15.98 1.97, 16.43 2.34 C16.87 2.71, 17.29 3.13, 17.66 3.57 C18.03 4.02, 18.37 4.5, 18.66 5 C18.95 5.5, 19.2 6.04, 19.4 6.58 C19.59 7.12, 19.75 7.69, 19.85 8.26 C19.95 8.83, 19.97 9.71, 20 10 C20.03 10.29, 20.03 9.71, 20 10" stroke="#0d652d" stroke-width="2" fill="none"></path></g><g transform="translate(265 331) rotate(0 5 9)"><text x="5" y="14" font-family="Helvetica, Segoe UI Emoji" font-size="16px" fill="white" text-anchor="middle" style="white-space: pre;" direction="ltr">2</text></g><g stroke-linecap="round" transform="translate(550 390) rotate(0 10 10)"><path d="M20 10 C20 10.58, 19.95 11.17, 19.85 11.74 C19.75 12.31, 19.59 12.88, 19.4 13.42 C19.2 13.96, 18.95 14.5, 18.66 15 C18.37 15.5, 18.03 15.98, 17.66 16.43 C17.29 16.87, 16.87 17.29, 16.43 17.66 C15.98 18.03, 15.5 18.37, 15 18.66 C14.5 18.95, 13.96 19.2, 13.42 19.4 C12.88 19.59, 12.31 19.75, 11.74 19.85 C11.17 19.95, 10.58 20, 10 20 C9.42 20, 8.83 19.95, 8.26 19.85 C7.69 19.75, 7.12 19.59, 6.58 19.4 C6.04 19.2, 5.5 18.95, 5 18.66 C4.5 18.37, 4.02 18.03, 3.57 17.66 C3.13 17.29, 2.71 16.87, 2.34 16.43 C1.97 15.98, 1.63 15.5, 1.34 15 C1.05 14.5, 0.8 13.96, 0.6 13.42 C0.41 12.88, 0.25 12.31, 0.15 11.74 C0.05 11.17, 0 10.58, 0 10 C0 9.42, 0.05 8.83, 0.15 8.26 C0.25 7.69, 0.41 7.12, 0.6 6.58 C0.8 6.04, 1.05 5.5, 1.34 5 C1.63 4.5, 1.97 4.02, 2.34 3.57 C2.71 3.13, 3.13 2.71, 3.57 2.34 C4.02 1.97, 4.5 1.63, 5 1.34 C5.5 1.05, 6.04 0.8, 6.58 0.6 C7.12 0.41, 7.69 0.25, 8.26 0.15 C8.83 0.05, 9.42 0, 10 0 C10.58 0, 11.17 0.05, 11.74 0.15 C12.31 0.25, 12.88 0.41, 13.42 0.6 C13.96 0.8, 14.5 1.05, 15 1.34 C15.5 1.63, 15.98 1.97, 16.43 2.34 C16.87 2.71, 17.29 3.13, 17.66 3.57 C18.03 4.02, 18.37 4.5, 18.66 5 C18.95 5.5, 19.2 6.04, 19.4 6.58 C19.59 7.12, 19.75 7.69, 19.85 8.26 C19.95 8.83, 19.97 9.71, 20 10 C20.03 10.29, 20.03 9.71, 20 10" stroke="#34a853" stroke-width="2" fill="none"></path></g><g transform="translate(558 390) rotate(0 2 10)"><text x="0" y="14" font-family="Virgil, Segoe UI Emoji" font-size="16px" fill="#34a853" text-anchor="start" style="white-space: pre;" direction="ltr">1</text></g><g stroke-linecap="round" transform="translate(550 390) rotate(0 10 10)"><path d="M20 10 C20 10.58, 19.95 11.17, 19.85 11.74 C19.75 12.31, 19.59 12.88, 19.4 13.42 C19.2 13.96, 18.95 14.5, 18.66 15 C18.37 15.5, 18.03 15.98, 17.66 16.43 C17.29 16.87, 16.87 17.29, 16.43 17.66 C15.98 18.03, 15.5 18.37, 15 18.66 C14.5 18.95, 13.96 19.2, 13.42 19.4 C12.88 19.59, 12.31 19.75, 11.74 19.85 C11.17 19.95, 10.58 20, 10 20 C9.42 20, 8.83 19.95, 8.26 19.85 C7.69 19.75, 7.12 19.59, 6.58 19.4 C6.04 19.2, 5.5 18.95, 5 18.66 C4.5 18.37, 4.02 18.03, 3.57 17.66 C3.13 17.29, 2.71 16.87, 2.34 16.43 C1.97 15.98, 1.63 15.5, 1.34 15 C1.05 14.5, 0.8 13.96, 0.6 13.42 C0.41 12.88, 0.25 12.31, 0.15 11.74 C0.05 11.17, 0 10.58, 0 10 C0 9.42, 0.05 8.83, 0.15 8.26 C0.25 7.69, 0.41 7.12, 0.6 6.58 C0.8 6.04, 1.05 5.5, 1.34 5 C1.63 4.5, 1.97 4.02, 2.34 3.57 C2.71 3.13, 3.13 2.71, 3.57 2.34 C4.02 1.97, 4.5 1.63, 5 1.34 C5.5 1.05, 6.04 0.8, 6.58 0.6 C7.12 0.41, 7.69 0.25, 8.26 0.15 C8.83 0.05, 9.42 0, 10 0 C10.58 0, 11.17 0.05, 11.74 0.15 C12.31 0.25, 12.88 0.41, 13.42 0.6 C13.96 0.8, 14.5 1.05, 15 1.34 C15.5 1.63, 15.98 1.97, 16.43 2.34 C16.87 2.71, 17.29 3.13, 17.66 3.57 C18.03 4.02, 18.37 4.5, 18.66 5 C18.95 5.5, 19.2 6.04, 19.4 6.58 C19.59 7.12, 19.75 7.69, 19.85 8.26 C19.95 8.83, 19.97 9.71, 20 10 C20.03 10.29, 20.03 9.71, 20 10" stroke="none" stroke-width="0" fill="#0d652d"></path><path d="M20 10 C20 10.58, 19.95 11.17, 19.85 11.74 C19.75 12.31, 19.59 12.88, 19.4 13.42 C19.2 13.96, 18.95 14.5, 18.66 15 C18.37 15.5, 18.03 15.98, 17.66 16.43 C17.29 16.87, 16.87 17.29, 16.43 17.66 C15.98 18.03, 15.5 18.37, 15 18.66 C14.5 18.95, 13.96 19.2, 13.42 19.4 C12.88 19.59, 12.31 19.75, 11.74 19.85 C11.17 19.95, 10.58 20, 10 20 C9.42 20, 8.83 19.95, 8.26 19.85 C7.69 19.75, 7.12 19.59, 6.58 19.4 C6.04 19.2, 5.5 18.95, 5 18.66 C4.5 18.37, 4.02 18.03, 3.57 17.66 C3.13 17.29, 2.71 16.87, 2.34 16.43 C1.97 15.98, 1.63 15.5, 1.34 15 C1.05 14.5, 0.8 13.96, 0.6 13.42 C0.41 12.88, 0.25 12.31, 0.15 11.74 C0.05 11.17, 0 10.58, 0 10 C0 9.42, 0.05 8.83, 0.15 8.26 C0.25 7.69, 0.41 7.12, 0.6 6.58 C0.8 6.04, 1.05 5.5, 1.34 5 C1.63 4.5, 1.97 4.02, 2.34 3.57 C2.71 3.13, 3.13 2.71, 3.57 2.34 C4.02 1.97, 4.5 1.63, 5 1.34 C5.5 1.05, 6.04 0.8, 6.58 0.6 C7.12 0.41, 7.69 0.25, 8.26 0.15 C8.83 0.05, 9.42 0, 10 0 C10.58 0, 11.17 0.05, 11.74 0.15 C12.31 0.25, 12.88 0.41, 13.42 0.6 C13.96 0.8, 14.5 1.05, 15 1.34 C15.5 1.63, 15.98 1.97, 16.43 2.34 C16.87 2.71, 17.29 3.13, 17.66 3.57 C18.03 4.02, 18.37 4.5, 18.66 5 C18.95 5.5, 19.2 6.04, 19.4 6.58 C19.59 7.12, 19.75 7.69, 19.85 8.26 C19.95 8.83, 19.97 9.71, 20 10 C20.03 10.29, 20.03 9.71, 20 10" stroke="#0d652d" stroke-width="2" fill="none"></path></g><g transform="translate(555 391) rotate(0 5 9)"><text x="5" y="14" font-family="Helvetica, Segoe UI Emoji" font-size="16px" fill="white" text-anchor="middle" style="white-space: pre;" direction="ltr">3</text></g><g stroke-linecap="round" transform="translate(70 330) rotate(0 80 30)"><path d="M15 0 L145 0 L151.56 0.94 L156.25 3.75 L157.89 5.86 L159.77 11.48 L160 45 L159.06 51.56 L157.89 54.14 L154.14 57.89 L151.56 59.06 L145 60 L15 60 L8.44 59.06 L3.75 56.25 L2.11 54.14 L0.23 48.52 L0.23 11.48 L2.11 5.86 L3.75 3.75 L8.44 0.94 L15 0" stroke="none" stroke-width="0" fill="#ffffff"></path><path d="M15 0 M15 0 C58.22 0, 101.44 0, 145 0 M15 0 C66.81 0, 118.62 0, 145 0 M145 0 C155 0, 160 5, 160 15 M145 0 C155 0, 160 5, 160 15 M160 15 C160 25.15, 160 35.3, 160 45 M160 15 C160 22.92, 160 30.85, 160 45 M160 45 C160 55, 155 60, 145 60 M160 45 C160 55, 155 60, 145 60 M145 60 C94.07 60, 43.15 60, 15 60 M145 60 C95.64 60, 46.28 60, 15 60 M15 60 C5 60, 0 55, 0 45 M15 60 C5 60, 0 55, 0 45 M0 45 C0 36.3, 0 27.6, 0 15 M0 45 C0 33.49, 0 21.97, 0 15 M0 15 C0 5, 5 0, 15 0 M0 15 C0 5, 5 0, 15 0" stroke="#202124" stroke-width="1" fill="none"></path></g><g stroke-linecap="round"><g transform="translate(97.97222232818604 346.3305553197861) rotate(0 9.090278148651123 6.83472216129303)" fill-rule="evenodd"><path d="M0 0 L4.54 13.67 L18.18 13.67 L0 0 L0 0" stroke="none" stroke-width="0" fill="#aecbfa" fill-rule="evenodd"></path><path d="M0 0 C1.17 3.53, 2.34 7.06, 4.54 13.67 M0 0 C1.58 4.75, 3.16 9.5, 4.54 13.67 M4.54 13.67 C7.97 13.67, 11.4 13.67, 18.18 13.67 M4.54 13.67 C9.18 13.67, 13.82 13.67, 18.18 13.67 M18.18 13.67 C13.8 10.38, 9.42 7.08, 0 0 M18.18 13.67 C14.2 10.68, 10.22 7.69, 0 0 M0 0 C0 0, 0 0, 0 0 M0 0 C0 0, 0 0, 0 0 M0 0 C0 0, 0 0, 0 0 M0 0 C0 0, 0 0, 0 0" stroke="transparent" stroke-width="1" fill="none"></path></g></g><g stroke-linecap="round"><g transform="translate(116.15277862548828 359.99999964237213) rotate(0 -9.090278148651123 6.834722518920898)" fill-rule="evenodd"><path d="M0 0 L-13.64 0 L-18.18 13.67 L0 0 L0 0" stroke="none" stroke-width="0" fill="#4285f4" fill-rule="evenodd"></path><path d="M0 0 C-5.41 0, -10.81 0, -13.64 0 M0 0 C-4.51 0, -9.03 0, -13.64 0 M-13.64 0 C-14.97 3.99, -16.29 7.98, -18.18 13.67 M-13.64 0 C-15.25 4.83, -16.85 9.66, -18.18 13.67 M-18.18 13.67 C-11.32 8.51, -4.45 3.35, 0 0 M-18.18 13.67 C-11.78 8.86, -5.37 4.04, 0 0 M0 0 C0 0, 0 0, 0 0 M0 0 C0 0, 0 0, 0 0 M0 0 C0 0, 0 0, 0 0 M0 0 C0 0, 0 0, 0 0" stroke="transparent" stroke-width="1" fill="none"></path></g></g><g stroke-linecap="round"><g transform="translate(90 373.6694446802139) rotate(0 3.9861111640930176 -6.834722518920898)" fill-rule="evenodd"><path d="M0 0 L4.56 -2.28 L7.97 -13.67 L3.41 -13.67 L0 0 L0 0" stroke="none" stroke-width="0" fill="#4285f4" fill-rule="evenodd"></path><path d="M0 0 C1.05 -0.52, 2.1 -1.05, 4.56 -2.28 M0 0 C1.27 -0.63, 2.54 -1.27, 4.56 -2.28 M4.56 -2.28 C5.61 -5.78, 6.66 -9.28, 7.97 -13.67 M4.56 -2.28 C5.34 -4.87, 6.11 -7.46, 7.97 -13.67 M7.97 -13.67 C6.98 -13.67, 6 -13.67, 3.41 -13.67 M7.97 -13.67 C6.77 -13.67, 5.57 -13.67, 3.41 -13.67 M3.41 -13.67 C2.45 -9.8, 1.48 -5.93, 0 0 M3.41 -13.67 C2.56 -10.26, 1.71 -6.86, 0 0 M0 0 C0 0, 0 0, 0 0 M0 0 C0 0, 0 0, 0 0 M0 0 C0 0, 0 0, 0 0 M0 0 C0 0, 0 0, 0 0" stroke="transparent" stroke-width="1" fill="none"></path></g></g><g stroke-linecap="round"><g transform="translate(90 346.3305553197861) rotate(0 3.9861111640930176 6.83472216129303)" fill-rule="evenodd"><path d="M0 0 L3.41 13.67 L7.97 13.67 L4.56 2.27 L0 0 L0 0" stroke="none" stroke-width="0" fill="#aecbfa" fill-rule="evenodd"></path><path d="M0 0 C1.1 4.42, 2.2 8.83, 3.41 13.67 M0 0 C1.17 4.69, 2.34 9.38, 3.41 13.67 M3.41 13.67 C5.15 13.67, 6.89 13.67, 7.97 13.67 M3.41 13.67 C4.61 13.67, 5.81 13.67, 7.97 13.67 M7.97 13.67 C6.9 10.08, 5.82 6.49, 4.56 2.27 M7.97 13.67 C7.27 11.32, 6.57 8.97, 4.56 2.27 M4.56 2.27 C2.99 1.49, 1.41 0.71, 0 0 M4.56 2.27 C3.02 1.51, 1.48 0.74, 0 0 M0 0 C0 0, 0 0, 0 0 M0 0 C0 0, 0 0, 0 0 M0 0 C0 0, 0 0, 0 0 M0 0 C0 0, 0 0, 0 0" stroke="transparent" stroke-width="1" fill="none"></path></g></g><g transform="translate(130 341) rotate(0 38.5 9)"><text x="0" y="14" font-family="Helvetica, Segoe UI Emoji" font-size="16px" fill="#202124" text-anchor="start" style="white-space: pre;" direction="ltr">Cloud Run</text></g><g transform="translate(130 361) rotate(0 32.5 9)"><text x="0" y="14" font-family="Helvetica, Segoe UI Emoji" font-size="16px" fill="#5f6368" text-anchor="start" style="white-space: pre;" direction="ltr">Frontend</text></g><g stroke-linecap="round"><g transform="translate(689.9104870388003 411) rotate(0 0.03659846126947741 -50.5)"><path d="M0 0 C0.01 -16.83, 0.06 -84.17, 0.07 -101" stroke="#202124" stroke-width="2.5" fill="none" stroke-dasharray="1.5 8"></path></g></g><g stroke-linecap="round" transform="translate(630.5 350) rotate(0 50 10)"><path d="M5 0 L97.19 0.31 L99.69 2.81 L99.69 17.19 L98.75 18.75 L95 20 L2.81 19.69 L0.31 17.19 L0 5 L1.25 1.25 L5 0" stroke="none" stroke-width="0" fill="#d2e3fc"></path><path d="M5 0 M5 0 C26.09 0, 47.18 0, 95 0 M5 0 C28.67 0, 52.34 0, 95 0 M95 0 C98.33 0, 100 1.67, 100 5 M95 0 C98.33 0, 100 1.67, 100 5 M100 5 C100 8.9, 100 12.79, 100 15 M100 5 C100 7.06, 100 9.12, 100 15 M100 15 C100 18.33, 98.33 20, 95 20 M100 15 C100 18.33, 98.33 20, 95 20 M95 20 C69.77 20, 44.54 20, 5 20 M95 20 C64.58 20, 34.16 20, 5 20 M5 20 C1.67 20, 0 18.33, 0 15 M5 20 C1.67 20, 0 18.33, 0 15 M0 15 C0 12.11, 0 9.22, 0 5 M0 15 C0 12.04, 0 9.08, 0 5 M0 5 C0 1.67, 1.67 0, 5 0 M0 5 C0 1.67, 1.67 0, 5 0" stroke="#d2e3fc" stroke-width="1" fill="none"></path></g><g transform="translate(630 351) rotate(0 50.5 9)"><text x="50.5" y="14" font-family="Helvetica, Segoe UI Emoji" font-size="16px" fill="#202124" text-anchor="middle" style="white-space: pre;" direction="ltr">Direct peering</text></g><g stroke-linecap="round"><g transform="translate(589 250) rotate(0 -69.5 0)"><path d="M0 0 C-23.17 0, -115.83 0, -139 0" stroke="#202124" stroke-width="2.5" fill="none" stroke-dasharray="1.5 8"></path></g></g><g stroke-linecap="round"><g transform="translate(450 250) rotate(0 0 40)"><path d="M0 0 C0 13.33, 0 66.67, 0 80" stroke="#202124" stroke-width="2.5" fill="none" stroke-dasharray="1.5 8"></path></g></g><g stroke-linecap="round" transform="translate(390 230) rotate(0 60 20)"><path d="M10 0 L110 0 L114.38 0.63 L117.5 2.5 L119.38 5.63 L120 10 L120 30 L119.38 34.38 L117.5 37.5 L114.38 39.38 L110 40 L10 40 L5.63 39.38 L2.5 37.5 L0.62 34.38 L0 30 L0 10 L0.63 5.63 L2.5 2.5 L5.63 0.62 L10 0" stroke="none" stroke-width="0" fill="#d2e3fc"></path><path d="M10 0 M10 0 C43.93 0, 77.87 0, 110 0 M10 0 C48.26 0, 86.52 0, 110 0 M110 0 C116.67 0, 120 3.33, 120 10 M110 0 C116.67 0, 120 3.33, 120 10 M120 10 C120 17.08, 120 24.16, 120 30 M120 10 C120 15.79, 120 21.59, 120 30 M120 30 C120 36.67, 116.67 40, 110 40 M120 30 C120 36.67, 116.67 40, 110 40 M110 40 C88.49 40, 66.99 40, 10 40 M110 40 C89.87 40, 69.73 40, 10 40 M10 40 C3.33 40, 0 36.67, 0 30 M10 40 C3.33 40, 0 36.67, 0 30 M0 30 C0 25.29, 0 20.57, 0 10 M0 30 C0 23.26, 0 16.52, 0 10 M0 10 C0 3.33, 3.33 0, 10 0 M0 10 C0 3.33, 3.33 0, 10 0" stroke="#d2e3fc" stroke-width="1" fill="none"></path></g><g transform="translate(410 230) rotate(0 44 18)"><text x="44" y="14" font-family="Helvetica, Segoe UI Emoji" font-size="16px" fill="#202124" text-anchor="middle" style="white-space: pre;" direction="ltr">Serverless</text><text x="44" y="32" font-family="Helvetica, Segoe UI Emoji" font-size="16px" fill="#202124" text-anchor="middle" style="white-space: pre;" direction="ltr">VPC access</text></g><g stroke-linecap="round" transform="translate(550 190) rotate(0 120 70)"><path d="M0 0 L240 0 L240 140 L0 140" stroke="none" stroke-width="0" fill="#feefc3"></path><path d="M0 0 C66.9 0, 133.81 0, 240 0 M0 0 C73.74 0, 147.48 0, 240 0 M240 0 C240 31.86, 240 63.71, 240 140 M240 0 C240 30.34, 240 60.68, 240 140 M240 140 C176.73 140, 113.46 140, 0 140 M240 140 C172.04 140, 104.08 140, 0 140 M0 140 C0 105.13, 0 70.26, 0 0 M0 140 C0 92.3, 0 44.6, 0 0" stroke="#feefc3" stroke-width="1" fill="none"></path></g><g transform="translate(570 210) rotate(0 47 9)"><text x="0" y="14" font-family="Helvetica, Segoe UI Emoji" font-size="16px" fill="#202124" text-anchor="start" style="white-space: pre;" direction="ltr">VPC network</text></g><g stroke-linecap="round" transform="translate(310 330) rotate(0 80 30)"><path d="M15 0 L145 0 L151.56 0.94 L156.25 3.75 L157.89 5.86 L159.77 11.48 L160 45 L159.06 51.56 L157.89 54.14 L154.14 57.89 L151.56 59.06 L145 60 L15 60 L8.44 59.06 L3.75 56.25 L2.11 54.14 L0.23 48.52 L0.23 11.48 L2.11 5.86 L3.75 3.75 L8.44 0.94 L15 0" stroke="none" stroke-width="0" fill="#ffffff"></path><path d="M15 0 M15 0 C55.56 0, 96.13 0, 145 0 M15 0 C44.68 0, 74.36 0, 145 0 M145 0 C155 0, 160 5, 160 15 M145 0 C155 0, 160 5, 160 15 M160 15 C160 22.96, 160 30.91, 160 45 M160 15 C160 21.95, 160 28.89, 160 45 M160 45 C160 55, 155 60, 145 60 M160 45 C160 55, 155 60, 145 60 M145 60 C95.82 60, 46.65 60, 15 60 M145 60 C103.98 60, 62.95 60, 15 60 M15 60 C5 60, 0 55, 0 45 M15 60 C5 60, 0 55, 0 45 M0 45 C0 38.44, 0 31.89, 0 15 M0 45 C0 38.29, 0 31.58, 0 15 M0 15 C0 5, 5 0, 15 0 M0 15 C0 5, 5 0, 15 0" stroke="#202124" stroke-width="1" fill="none"></path></g><g stroke-linecap="round"><g stroke-opacity="0.9" fill-opacity="0.9" transform="translate(337.97222232818604 346.3305553197861) rotate(0 9.090278148651123 6.83472216129303)" fill-rule="evenodd"><path d="M0 0 L4.54 13.67 L18.18 13.67 L0 0 L0 0" stroke="none" stroke-width="0" fill="#aecbfa" fill-rule="evenodd"></path><path d="M0 0 C1.17 3.52, 2.34 7.04, 4.54 13.67 M0 0 C1.42 4.27, 2.83 8.53, 4.54 13.67 M4.54 13.67 C8.05 13.67, 11.56 13.67, 18.18 13.67 M4.54 13.67 C7.69 13.67, 10.84 13.67, 18.18 13.67 M18.18 13.67 C11.22 8.44, 4.27 3.21, 0 0 M18.18 13.67 C11.4 8.57, 4.62 3.47, 0 0 M0 0 C0 0, 0 0, 0 0 M0 0 C0 0, 0 0, 0 0 M0 0 C0 0, 0 0, 0 0 M0 0 C0 0, 0 0, 0 0" stroke="transparent" stroke-width="1" fill="none"></path></g></g><g stroke-linecap="round"><g stroke-opacity="0.9" fill-opacity="0.9" transform="translate(356.1527786254883 359.99999964237213) rotate(0 -9.090278148651123 6.834722518920898)" fill-rule="evenodd"><path d="M0 0 L-13.64 0 L-18.18 13.67 L0 0 L0 0" stroke="none" stroke-width="0" fill="#4285f4" fill-rule="evenodd"></path><path d="M0 0 C-3.59 0, -7.18 0, -13.64 0 M0 0 C-3.72 0, -7.44 0, -13.64 0 M-13.64 0 C-14.67 3.09, -15.69 6.18, -18.18 13.67 M-13.64 0 C-15.45 5.45, -17.26 10.9, -18.18 13.67 M-18.18 13.67 C-12.51 9.41, -6.85 5.15, 0 0 M-18.18 13.67 C-13.38 10.06, -8.58 6.45, 0 0 M0 0 C0 0, 0 0, 0 0 M0 0 C0 0, 0 0, 0 0 M0 0 C0 0, 0 0, 0 0 M0 0 C0 0, 0 0, 0 0" stroke="transparent" stroke-width="1" fill="none"></path></g></g><g stroke-linecap="round"><g stroke-opacity="0.9" fill-opacity="0.9" transform="translate(330 373.6694446802139) rotate(0 3.9861111640930176 -6.834722518920898)" fill-rule="evenodd"><path d="M0 0 L4.56 -2.28 L7.97 -13.67 L3.41 -13.67 L0 0 L0 0" stroke="none" stroke-width="0" fill="#4285f4" fill-rule="evenodd"></path><path d="M0 0 C1.12 -0.56, 2.25 -1.12, 4.56 -2.28 M0 0 C1.07 -0.53, 2.14 -1.07, 4.56 -2.28 M4.56 -2.28 C5.75 -6.25, 6.94 -10.23, 7.97 -13.67 M4.56 -2.28 C5.89 -6.71, 7.22 -11.15, 7.97 -13.67 M7.97 -13.67 C6.25 -13.67, 4.53 -13.67, 3.41 -13.67 M7.97 -13.67 C6.69 -13.67, 5.42 -13.67, 3.41 -13.67 M3.41 -13.67 C2.18 -8.74, 0.95 -3.82, 0 0 M3.41 -13.67 C2.43 -9.72, 1.44 -5.77, 0 0 M0 0 C0 0, 0 0, 0 0 M0 0 C0 0, 0 0, 0 0 M0 0 C0 0, 0 0, 0 0 M0 0 C0 0, 0 0, 0 0" stroke="transparent" stroke-width="1" fill="none"></path></g></g><g stroke-linecap="round"><g stroke-opacity="0.9" fill-opacity="0.9" transform="translate(330 346.3305553197861) rotate(0 3.9861111640930176 6.83472216129303)" fill-rule="evenodd"><path d="M0 0 L3.41 13.67 L7.97 13.67 L4.56 2.27 L0 0 L0 0" stroke="none" stroke-width="0" fill="#aecbfa" fill-rule="evenodd"></path><path d="M0 0 C1.27 5.1, 2.55 10.2, 3.41 13.67 M0 0 C1.21 4.84, 2.42 9.69, 3.41 13.67 M3.41 13.67 C5.08 13.67, 6.74 13.67, 7.97 13.67 M3.41 13.67 C4.78 13.67, 6.15 13.67, 7.97 13.67 M7.97 13.67 C7.2 11.1, 6.43 8.53, 4.56 2.27 M7.97 13.67 C6.96 10.3, 5.95 6.93, 4.56 2.27 M4.56 2.27 C2.98 1.49, 1.4 0.7, 0 0 M4.56 2.27 C3.13 1.56, 1.7 0.85, 0 0 M0 0 C0 0, 0 0, 0 0 M0 0 C0 0, 0 0, 0 0 M0 0 C0 0, 0 0, 0 0 M0 0 C0 0, 0 0, 0 0" stroke="transparent" stroke-width="1" fill="none"></path></g></g><g transform="translate(370 341) rotate(0 38.5 9)"><text x="0" y="14" font-family="Helvetica, Segoe UI Emoji" font-size="16px" fill="#202124" text-anchor="start" style="white-space: pre;" direction="ltr">Cloud Run</text></g><g transform="translate(370 361) rotate(0 33 9)"><text x="0" y="14" font-family="Helvetica, Segoe UI Emoji" font-size="16px" fill="#5f6368" text-anchor="start" style="white-space: pre;" direction="ltr">API layer</text></g><g stroke-linecap="round"><g transform="translate(590 290) rotate(0 -30 0)"><path d="M0 0 C-10 0, -50 0, -60 0 M0 0 C-10 0, -50 0, -60 0" stroke="#202124" stroke-width="1" fill="none"></path></g><g transform="translate(590 290) rotate(0 -30 0)"><path d="M0 0 L-13.59 6.34 L-13.59 -6.34 L0 0" stroke="none" stroke-width="0" fill="#202124" fill-rule="evenodd"></path><path d="M0 0 C-3.71 1.73, -7.41 3.46, -13.59 6.34 M0 0 C-3.08 1.43, -6.15 2.87, -13.59 6.34 M-13.59 6.34 C-13.59 1.29, -13.59 -3.77, -13.59 -6.34 M-13.59 6.34 C-13.59 2.39, -13.59 -1.56, -13.59 -6.34 M-13.59 -6.34 C-10 -4.66, -6.41 -2.99, 0 0 M-13.59 -6.34 C-10.21 -4.76, -6.82 -3.18, 0 0 M0 0 C0 0, 0 0, 0 0 M0 0 C0 0, 0 0, 0 0" stroke="#202124" stroke-width="1" fill="none"></path></g></g><g stroke-linecap="round" transform="translate(590 250) rotate(0 90 30)"><path d="M15 0 L165 0 L171.56 0.94 L176.25 3.75 L177.89 5.86 L179.77 11.48 L180 45 L179.06 51.56 L177.89 54.14 L174.14 57.89 L171.56 59.06 L165 60 L15 60 L8.44 59.06 L3.75 56.25 L2.11 54.14 L0.23 48.52 L0.23 11.48 L2.11 5.86 L3.75 3.75 L8.44 0.94 L15 0" stroke="none" stroke-width="0" fill="#ffffff"></path><path d="M15 0 M15 0 C57.05 0, 99.1 0, 165 0 M15 0 C65.7 0, 116.39 0, 165 0 M165 0 C175 0, 180 5, 180 15 M165 0 C175 0, 180 5, 180 15 M180 15 C180 23.67, 180 32.33, 180 45 M180 15 C180 23.88, 180 32.77, 180 45 M180 45 C180 55, 175 60, 165 60 M180 45 C180 55, 175 60, 165 60 M165 60 C112.89 60, 60.78 60, 15 60 M165 60 C131.78 60, 98.56 60, 15 60 M15 60 C5 60, 0 55, 0 45 M15 60 C5 60, 0 55, 0 45 M0 45 C0 38.8, 0 32.59, 0 15 M0 45 C0 33.31, 0 21.63, 0 15 M0 15 C0 5, 5 0, 15 0 M0 15 C0 5, 5 0, 15 0" stroke="#202124" stroke-width="1" fill="none"></path></g><g transform="translate(650 261) rotate(0 39.5 9)"><text x="0" y="14" font-family="Helvetica, Segoe UI Emoji" font-size="16px" fill="#202124" text-anchor="start" style="white-space: pre;" direction="ltr">Cloud SQL</text></g><g transform="translate(650 281) rotate(0 55.5 9)"><text x="0" y="14" font-family="Helvetica, Segoe UI Emoji" font-size="16px" fill="#5f6368" text-anchor="start" style="white-space: pre;" direction="ltr">for PostgreSQL</text></g><g stroke-linecap="round"><g transform="translate(610 277.7249981164932) rotate(0 5.344791412353516 5.0385422706604)" fill-rule="evenodd"><path d="M0 0 L0 4.39 L10.69 10.08 L10.69 5.69 L0 0 L0 0" stroke="none" stroke-width="0" fill="#aecbfa" fill-rule="evenodd"></path><path d="M0 0 C0 1.75, 0 3.5, 0 4.39 M0 0 C0 1.46, 0 2.92, 0 4.39 M0 4.39 C3.61 6.31, 7.23 8.23, 10.69 10.08 M0 4.39 C3.62 6.31, 7.23 8.24, 10.69 10.08 M10.69 10.08 C10.69 9, 10.69 7.93, 10.69 5.69 M10.69 10.08 C10.69 8.36, 10.69 6.64, 10.69 5.69 M10.69 5.69 C8.23 4.38, 5.78 3.07, 0 0 M10.69 5.69 C7.59 4.04, 4.49 2.39, 0 0 M0 0 C0 0, 0 0, 0 0 M0 0 C0 0, 0 0, 0 0 M0 0 C0 0, 0 0, 0 0 M0 0 C0 0, 0 0, 0 0" stroke="#00000000" stroke-width="1" fill="none"></path></g></g><g stroke-linecap="round"><g transform="translate(610 284.50624907016754) rotate(0 5.344791412353516 5.038542747497559)" fill-rule="evenodd"><path d="M0 0 L0 4.39 L10.69 10.08 L10.69 5.69 L0 0 L0 0" stroke="none" stroke-width="0" fill="#aecbfa" fill-rule="evenodd"></path><path d="M0 0 C0 1.49, 0 2.99, 0 4.39 M0 0 C0 1.06, 0 2.11, 0 4.39 M0 4.39 C2.34 5.63, 4.68 6.88, 10.69 10.08 M0 4.39 C2.44 5.69, 4.88 6.99, 10.69 10.08 M10.69 10.08 C10.69 9.02, 10.69 7.97, 10.69 5.69 M10.69 10.08 C10.69 9.06, 10.69 8.04, 10.69 5.69 M10.69 5.69 C6.92 3.68, 3.15 1.67, 0 0 M10.69 5.69 C7.32 3.89, 3.94 2.1, 0 0 M0 0 C0 0, 0 0, 0 0 M0 0 C0 0, 0 0, 0 0 M0 0 C0 0, 0 0, 0 0 M0 0 C0 0, 0 0, 0 0" stroke="#00000000" stroke-width="1" fill="none"></path></g></g><g stroke-linecap="round"><g transform="translate(620.689582824707 287.802082657814) rotate(0 5.344792366027832 -5.0385422706604)" fill-rule="evenodd"><path d="M0 0 L10.69 -5.69 L10.69 -10.08 L0 -4.39 L0 0 L0 0" stroke="none" stroke-width="0" fill="#669df6" fill-rule="evenodd"></path><path d="M0 0 C3.78 -2.01, 7.56 -4.02, 10.69 -5.69 M0 0 C4.04 -2.15, 8.07 -4.3, 10.69 -5.69 M10.69 -5.69 C10.69 -7.23, 10.69 -8.78, 10.69 -10.08 M10.69 -5.69 C10.69 -7.28, 10.69 -8.87, 10.69 -10.08 M10.69 -10.08 C7.67 -8.47, 4.65 -6.86, 0 -4.39 M10.69 -10.08 C8.36 -8.84, 6.02 -7.59, 0 -4.39 M0 -4.39 C0 -3.17, 0 -1.95, 0 0 M0 -4.39 C0 -3.3, 0 -2.21, 0 0 M0 0 C0 0, 0 0, 0 0 M0 0 C0 0, 0 0, 0 0 M0 0 C0 0, 0 0, 0 0 M0 0 C0 0, 0 0, 0 0" stroke="#00000000" stroke-width="1" fill="none"></path></g></g><g stroke-linecap="round"><g transform="translate(620.689582824707 294.58333456516266) rotate(0 5.344792366027832 -5.038542747497559)" fill-rule="evenodd"><path d="M0 0 L10.69 -5.69 L10.69 -10.08 L0 -4.39 L0 0 L0 0" stroke="none" stroke-width="0" fill="#669df6" fill-rule="evenodd"></path><path d="M0 0 C2.43 -1.29, 4.86 -2.59, 10.69 -5.69 M0 0 C2.32 -1.23, 4.63 -2.46, 10.69 -5.69 M10.69 -5.69 C10.69 -6.84, 10.69 -8, 10.69 -10.08 M10.69 -5.69 C10.69 -6.93, 10.69 -8.17, 10.69 -10.08 M10.69 -10.08 C8.03 -8.66, 5.36 -7.24, 0 -4.39 M10.69 -10.08 C7.05 -8.14, 3.41 -6.2, 0 -4.39 M0 -4.39 C0 -2.87, 0 -1.35, 0 0 M0 -4.39 C0 -2.79, 0 -1.19, 0 0 M0 0 C0 0, 0 0, 0 0 M0 0 C0 0, 0 0, 0 0 M0 0 C0 0, 0 0, 0 0 M0 0 C0 0, 0 0, 0 0" stroke="#00000000" stroke-width="1" fill="none"></path></g></g><g stroke-linecap="round"><g transform="translate(631.3791675567627 275.4937492609024) rotate(0 -5.344792366027832 -5.038541913032532)" fill-rule="evenodd"><path d="M0 0 L0 -4.39 L-10.69 -10.08 L-10.69 -5.69 L0 0 L0 0" stroke="none" stroke-width="0" fill="#4285f4" fill-rule="evenodd"></path><path d="M0 0 C0 -1.15, 0 -2.31, 0 -4.39 M0 0 C0 -1.38, 0 -2.77, 0 -4.39 M0 -4.39 C-2.2 -5.56, -4.41 -6.73, -10.69 -10.08 M0 -4.39 C-3.69 -6.35, -7.38 -8.31, -10.69 -10.08 M-10.69 -10.08 C-10.69 -8.59, -10.69 -7.11, -10.69 -5.69 M-10.69 -10.08 C-10.69 -8.49, -10.69 -6.91, -10.69 -5.69 M-10.69 -5.69 C-7.52 -4, -4.36 -2.32, 0 0 M-10.69 -5.69 C-6.51 -3.46, -2.33 -1.24, 0 0 M0 0 C0 0, 0 0, 0 0 M0 0 C0 0, 0 0, 0 0 M0 0 C0 0, 0 0, 0 0 M0 0 C0 0, 0 0, 0 0" stroke="#00000000" stroke-width="1" fill="none"></path></g></g><g stroke-linecap="round"><g transform="translate(620.689582824707 265.41666543483734) rotate(0 -5.344791412353516 5.038541913032532)" fill-rule="evenodd"><path d="M0 0 L-10.69 5.69 L-10.69 10.08 L0 4.39 L0 0 L0 0" stroke="none" stroke-width="0" fill="#669df6" fill-rule="evenodd"></path><path d="M0 0 C-3.49 1.85, -6.97 3.71, -10.69 5.69 M0 0 C-2.43 1.29, -4.86 2.59, -10.69 5.69 M-10.69 5.69 C-10.69 7.06, -10.69 8.43, -10.69 10.08 M-10.69 5.69 C-10.69 7.18, -10.69 8.67, -10.69 10.08 M-10.69 10.08 C-7.85 8.57, -5.02 7.06, 0 4.39 M-10.69 10.08 C-6.69 7.95, -2.7 5.82, 0 4.39 M0 4.39 C0 2.73, 0 1.07, 0 0 M0 4.39 C0 3.09, 0 1.8, 0 0 M0 0 C0 0, 0 0, 0 0 M0 0 C0 0, 0 0, 0 0 M0 0 C0 0, 0 0, 0 0 M0 0 C0 0, 0 0, 0 0" stroke="#00000000" stroke-width="1" fill="none"></path></g></g><g stroke-linecap="round"><g transform="translate(610 271.0604158639908) rotate(0 5.344791412353516 5.045833587646484)" fill-rule="evenodd"><path d="M0 0 L0 4.4 L10.69 10.09 L10.69 5.69 L0 0 L0 0" stroke="none" stroke-width="0" fill="#aecbfa" fill-rule="evenodd"></path><path d="M0 0 C0 1.13, 0 2.27, 0 4.4 M0 0 C0 1.02, 0 2.03, 0 4.4 M0 4.4 C4.09 6.58, 8.18 8.76, 10.69 10.09 M0 4.4 C3.99 6.53, 7.97 8.65, 10.69 10.09 M10.69 10.09 C10.69 8.82, 10.69 7.54, 10.69 5.69 M10.69 10.09 C10.69 8.49, 10.69 6.88, 10.69 5.69 M10.69 5.69 C8.54 4.54, 6.39 3.4, 0 0 M10.69 5.69 C6.66 3.55, 2.64 1.4, 0 0 M0 0 C0 0, 0 0, 0 0 M0 0 C0 0, 0 0, 0 0 M0 0 C0 0, 0 0, 0 0 M0 0 C0 0, 0 0, 0 0" stroke="#00000000" stroke-width="1" fill="none"></path></g></g><g stroke-linecap="round"><g transform="translate(620.689582824707 281.15208303928375) rotate(0 5.344792366027832 -5.045833587646484)" fill-rule="evenodd"><path d="M0 0 L10.69 -5.69 L10.69 -10.09 L0 -4.4 L0 0 L0 0" stroke="none" stroke-width="0" fill="#669df6" fill-rule="evenodd"></path><path d="M0 0 C2.42 -1.29, 4.84 -2.57, 10.69 -5.69 M0 0 C4.26 -2.27, 8.52 -4.53, 10.69 -5.69 M10.69 -5.69 C10.69 -7.06, 10.69 -8.43, 10.69 -10.09 M10.69 -5.69 C10.69 -6.85, 10.69 -8.01, 10.69 -10.09 M10.69 -10.09 C8.03 -8.67, 5.36 -7.26, 0 -4.4 M10.69 -10.09 C6.63 -7.93, 2.57 -5.77, 0 -4.4 M0 -4.4 C0 -3.17, 0 -1.93, 0 0 M0 -4.4 C0 -2.71, 0 -1.02, 0 0 M0 0 C0 0, 0 0, 0 0 M0 0 C0 0, 0 0, 0 0 M0 0 C0 0, 0 0, 0 0 M0 0 C0 0, 0 0, 0 0" stroke="#00000000" stroke-width="1" fill="none"></path></g></g><g stroke-linecap="round" transform="translate(590 410) rotate(0 90 30)"><path d="M15 0 L165 0 L171.56 0.94 L176.25 3.75 L177.89 5.86 L179.77 11.48 L180 45 L179.06 51.56 L177.89 54.14 L174.14 57.89 L171.56 59.06 L165 60 L15 60 L8.44 59.06 L3.75 56.25 L2.11 54.14 L0.23 48.52 L0.23 11.48 L2.11 5.86 L3.75 3.75 L8.44 0.94 L15 0" stroke="none" stroke-width="0" fill="#ffffff"></path><path d="M15 0 M15 0 C69.07 0, 123.13 0, 165 0 M15 0 C69.18 0, 123.36 0, 165 0 M165 0 C175 0, 180 5, 180 15 M165 0 C175 0, 180 5, 180 15 M180 15 C180 26.63, 180 38.25, 180 45 M180 15 C180 26.73, 180 38.45, 180 45 M180 45 C180 55, 175 60, 165 60 M180 45 C180 55, 175 60, 165 60 M165 60 C129.31 60, 93.62 60, 15 60 M165 60 C124.93 60, 84.86 60, 15 60 M15 60 C5 60, 0 55, 0 45 M15 60 C5 60, 0 55, 0 45 M0 45 C0 38.6, 0 32.2, 0 15 M0 45 C0 36.06, 0 27.12, 0 15 M0 15 C0 5, 5 0, 15 0 M0 15 C0 5, 5 0, 15 0" stroke="#202124" stroke-width="1" fill="none"></path></g><g transform="translate(650 421) rotate(0 47 9)"><text x="0" y="14" font-family="Helvetica, Segoe UI Emoji" font-size="16px" fill="#202124" text-anchor="start" style="white-space: pre;" direction="ltr">Memorystore</text></g><g transform="translate(650 441) rotate(0 32.5 9)"><text x="0" y="14" font-family="Helvetica, Segoe UI Emoji" font-size="16px" fill="#5f6368" text-anchor="start" style="white-space: pre;" direction="ltr">for Redis</text></g><g stroke-linecap="round"><g transform="translate(610 428.22841680049896) rotate(0 2.433003783226013 1.8853416442871094)" fill-rule="evenodd"><path d="M0 0 L4.87 0 L4.87 3.77 L0 3.77 L0 0" stroke="none" stroke-width="0" fill="#669df6" fill-rule="evenodd"></path><path d="M0 0 C1.62 0, 3.24 0, 4.87 0 M0 0 C1.64 0, 3.29 0, 4.87 0 M4.87 0 C4.87 1.28, 4.87 2.55, 4.87 3.77 M4.87 0 C4.87 0.92, 4.87 1.85, 4.87 3.77 M4.87 3.77 C2.96 3.77, 1.05 3.77, 0 3.77 M4.87 3.77 C3.75 3.77, 2.63 3.77, 0 3.77 M0 3.77 C0 2.68, 0 1.58, 0 0 M0 3.77 C0 2.56, 0 1.35, 0 0 M0 0 C0 0, 0 0, 0 0 M0 0 C0 0, 0 0, 0 0" stroke="#00000000" stroke-width="1" fill="none"></path></g></g><g stroke-linecap="round"><g transform="translate(610 434.8129495382309) rotate(0 2.433003783226013 1.8853416442871094)" fill-rule="evenodd"><path d="M0 0 L4.87 0 L4.87 3.77 L0 3.77 L0 0" stroke="none" stroke-width="0" fill="#669df6" fill-rule="evenodd"></path><path d="M0 0 C1.17 0, 2.34 0, 4.87 0 M0 0 C1.06 0, 2.13 0, 4.87 0 M4.87 0 C4.87 0.86, 4.87 1.72, 4.87 3.77 M4.87 0 C4.87 0.9, 4.87 1.81, 4.87 3.77 M4.87 3.77 C3.74 3.77, 2.61 3.77, 0 3.77 M4.87 3.77 C3.15 3.77, 1.43 3.77, 0 3.77 M0 3.77 C0 2.58, 0 1.39, 0 0 M0 3.77 C0 2.75, 0 1.73, 0 0 M0 0 C0 0, 0 0, 0 0 M0 0 C0 0, 0 0, 0 0" stroke="#00000000" stroke-width="1" fill="none"></path></g></g><g stroke-linecap="round"><g transform="translate(610 441.4163669347763) rotate(0 2.433003783226013 1.8853416442871094)" fill-rule="evenodd"><path d="M0 0 L4.87 0 L4.87 3.77 L0 3.77 L0 0" stroke="none" stroke-width="0" fill="#669df6" fill-rule="evenodd"></path><path d="M0 0 C1.84 0, 3.67 0, 4.87 0 M0 0 C1.71 0, 3.43 0, 4.87 0 M4.87 0 C4.87 1.37, 4.87 2.73, 4.87 3.77 M4.87 0 C4.87 1.07, 4.87 2.13, 4.87 3.77 M4.87 3.77 C3.8 3.77, 2.74 3.77, 0 3.77 M4.87 3.77 C3.51 3.77, 2.16 3.77, 0 3.77 M0 3.77 C0 2.84, 0 1.9, 0 0 M0 3.77 C0 2.7, 0 1.64, 0 0 M0 0 C0 0, 0 0, 0 0 M0 0 C0 0, 0 0, 0 0" stroke="#00000000" stroke-width="1" fill="none"></path></g></g><g stroke-linecap="round"><g transform="translate(610 448.00090062618256) rotate(0 2.433003783226013 1.8853416442871094)" fill-rule="evenodd"><path d="M0 0 L4.87 0 L4.87 3.77 L0 3.77 L0 0" stroke="none" stroke-width="0" fill="#669df6" fill-rule="evenodd"></path><path d="M0 0 C1.05 0, 2.11 0, 4.87 0 M0 0 C1.28 0, 2.57 0, 4.87 0 M4.87 0 C4.87 1.07, 4.87 2.14, 4.87 3.77 M4.87 0 C4.87 0.94, 4.87 1.88, 4.87 3.77 M4.87 3.77 C3.21 3.77, 1.55 3.77, 0 3.77 M4.87 3.77 C3.18 3.77, 1.5 3.77, 0 3.77 M0 3.77 C0 2.4, 0 1.02, 0 0 M0 3.77 C0 2.7, 0 1.62, 0 0 M0 0 C0 0, 0 0, 0 0 M0 0 C0 0, 0 0, 0 0" stroke="#00000000" stroke-width="1" fill="none"></path></g></g><g stroke-linecap="round"><g transform="translate(634.342627286911 428.22841680049896) rotate(0 2.4330034255981445 1.8853416442871094)" fill-rule="evenodd"><path d="M0 0 L4.87 0 L4.87 3.77 L0 3.77 L0 0" stroke="none" stroke-width="0" fill="#669df6" fill-rule="evenodd"></path><path d="M0 0 C1.53 0, 3.07 0, 4.87 0 M0 0 C1 0, 2.01 0, 4.87 0 M4.87 0 C4.87 1.3, 4.87 2.6, 4.87 3.77 M4.87 0 C4.87 1.27, 4.87 2.55, 4.87 3.77 M4.87 3.77 C3.11 3.77, 1.35 3.77, 0 3.77 M4.87 3.77 C3.43 3.77, 1.98 3.77, 0 3.77 M0 3.77 C0 2.3, 0 0.82, 0 0 M0 3.77 C0 2.94, 0 2.1, 0 0 M0 0 C0 0, 0 0, 0 0 M0 0 C0 0, 0 0, 0 0" stroke="#00000000" stroke-width="1" fill="none"></path></g></g><g stroke-linecap="round"><g transform="translate(634.342627286911 434.8129495382309) rotate(0 2.4330034255981445 1.8853416442871094)" fill-rule="evenodd"><path d="M0 0 L4.87 0 L4.87 3.77 L0 3.77 L0 0" stroke="none" stroke-width="0" fill="#669df6" fill-rule="evenodd"></path><path d="M0 0 C1.11 0, 2.21 0, 4.87 0 M0 0 C1.52 0, 3.04 0, 4.87 0 M4.87 0 C4.87 1.28, 4.87 2.56, 4.87 3.77 M4.87 0 C4.87 1, 4.87 2, 4.87 3.77 M4.87 3.77 C3.05 3.77, 1.23 3.77, 0 3.77 M4.87 3.77 C3.03 3.77, 1.18 3.77, 0 3.77 M0 3.77 C0 2.66, 0 1.55, 0 0 M0 3.77 C0 2.95, 0 2.12, 0 0 M0 0 C0 0, 0 0, 0 0 M0 0 C0 0, 0 0, 0 0" stroke="#00000000" stroke-width="1" fill="none"></path></g></g><g stroke-linecap="round"><g transform="translate(634.342627286911 441.4163669347763) rotate(0 2.4330034255981445 1.8853416442871094)" fill-rule="evenodd"><path d="M0 0 L4.87 0 L4.87 3.77 L0 3.77 L0 0" stroke="none" stroke-width="0" fill="#669df6" fill-rule="evenodd"></path><path d="M0 0 C1.12 0, 2.25 0, 4.87 0 M0 0 C1.86 0, 3.72 0, 4.87 0 M4.87 0 C4.87 1.41, 4.87 2.81, 4.87 3.77 M4.87 0 C4.87 1.09, 4.87 2.19, 4.87 3.77 M4.87 3.77 C3.09 3.77, 1.32 3.77, 0 3.77 M4.87 3.77 C3.89 3.77, 2.91 3.77, 0 3.77 M0 3.77 C0 2.35, 0 0.93, 0 0 M0 3.77 C0 2.5, 0 1.23, 0 0 M0 0 C0 0, 0 0, 0 0 M0 0 C0 0, 0 0, 0 0" stroke="#00000000" stroke-width="1" fill="none"></path></g></g><g stroke-linecap="round"><g transform="translate(634.342627286911 448.00090062618256) rotate(0 2.4330034255981445 1.8853416442871094)" fill-rule="evenodd"><path d="M0 0 L4.87 0 L4.87 3.77 L0 3.77 L0 0" stroke="none" stroke-width="0" fill="#669df6" fill-rule="evenodd"></path><path d="M0 0 C1.94 0, 3.88 0, 4.87 0 M0 0 C1.52 0, 3.03 0, 4.87 0 M4.87 0 C4.87 1, 4.87 1.99, 4.87 3.77 M4.87 0 C4.87 0.94, 4.87 1.88, 4.87 3.77 M4.87 3.77 C3.02 3.77, 1.17 3.77, 0 3.77 M4.87 3.77 C3.5 3.77, 2.13 3.77, 0 3.77 M0 3.77 C0 2.32, 0 0.88, 0 0 M0 3.77 C0 2.91, 0 2.04, 0 0 M0 0 C0 0, 0 0, 0 0 M0 0 C0 0, 0 0, 0 0" stroke="#00000000" stroke-width="1" fill="none"></path></g></g><g stroke-linecap="round"><g transform="translate(638.232914686203 431.9991000890732) rotate(0 -1.945143699645996 -1.8853416442871094)" fill-rule="evenodd"><path d="M0 0 L-3.89 0 L-3.89 -3.77 L0 0" stroke="none" stroke-width="0" fill="#4285f4" fill-rule="evenodd"></path><path d="M0 0 C-1.52 0, -3.03 0, -3.89 0 M0 0 C-1.47 0, -2.93 0, -3.89 0 M-3.89 0 C-3.89 -1.06, -3.89 -2.11, -3.89 -3.77 M-3.89 0 C-3.89 -1.36, -3.89 -2.72, -3.89 -3.77 M-3.89 -3.77 C-2.77 -2.68, -1.64 -1.59, 0 0 M-3.89 -3.77 C-2.38 -2.31, -0.88 -0.85, 0 0 M0 0 C0 0, 0 0, 0 0 M0 0 C0 0, 0 0, 0 0" stroke="transparent" stroke-width="1" fill="none"></path></g></g><g stroke-linecap="round"><g transform="translate(638.232914686203 438.5836328268051) rotate(0 -1.945143699645996 -1.8853416442871094)" fill-rule="evenodd"><path d="M0 0 L-3.89 0 L-3.89 -3.77 L0 0" stroke="none" stroke-width="0" fill="#4285f4" fill-rule="evenodd"></path><path d="M0 0 C-1.17 0, -2.33 0, -3.89 0 M0 0 C-0.88 0, -1.75 0, -3.89 0 M-3.89 0 C-3.89 -1.12, -3.89 -2.23, -3.89 -3.77 M-3.89 0 C-3.89 -1.31, -3.89 -2.61, -3.89 -3.77 M-3.89 -3.77 C-2.67 -2.59, -1.45 -1.41, 0 0 M-3.89 -3.77 C-2.97 -2.88, -2.05 -1.98, 0 0 M0 0 C0 0, 0 0, 0 0 M0 0 C0 0, 0 0, 0 0" stroke="transparent" stroke-width="1" fill="none"></path></g></g><g stroke-linecap="round"><g transform="translate(638.232914686203 445.1870502233505) rotate(0 -1.945143699645996 -1.8853416442871094)" fill-rule="evenodd"><path d="M0 0 L-3.89 0 L-3.89 -3.77 L0 0" stroke="none" stroke-width="0" fill="#4285f4" fill-rule="evenodd"></path><path d="M0 0 C-1.32 0, -2.64 0, -3.89 0 M0 0 C-1.13 0, -2.27 0, -3.89 0 M-3.89 0 C-3.89 -1.33, -3.89 -2.67, -3.89 -3.77 M-3.89 0 C-3.89 -1.17, -3.89 -2.34, -3.89 -3.77 M-3.89 -3.77 C-3.05 -2.96, -2.22 -2.15, 0 0 M-3.89 -3.77 C-2.66 -2.57, -1.42 -1.38, 0 0 M0 0 C0 0, 0 0, 0 0 M0 0 C0 0, 0 0, 0 0" stroke="transparent" stroke-width="1" fill="none"></path></g></g><g stroke-linecap="round"><g transform="translate(638.232914686203 451.78417432308197) rotate(0 -1.945143699645996 -1.891636848449707)" fill-rule="evenodd"><path d="M0 0 L-3.89 0 L-3.89 -3.78 L0 0" stroke="none" stroke-width="0" fill="#4285f4" fill-rule="evenodd"></path><path d="M0 0 C-1.31 0, -2.63 0, -3.89 0 M0 0 C-1.32 0, -2.63 0, -3.89 0 M-3.89 0 C-3.89 -0.93, -3.89 -1.85, -3.89 -3.78 M-3.89 0 C-3.89 -1.48, -3.89 -2.96, -3.89 -3.78 M-3.89 -3.78 C-3 -2.91, -2.1 -2.05, 0 0 M-3.89 -3.78 C-2.76 -2.69, -1.63 -1.59, 0 0 M0 0 C0 0, 0 0, 0 0 M0 0 C0 0, 0 0, 0 0" stroke="transparent" stroke-width="1" fill="none"></path></g></g><g stroke-linecap="round"><g transform="translate(614.866007566452 454.60431706905365) rotate(0 9.741456985473633 -14.60431706905365)" fill-rule="evenodd"><path d="M0 0 L19.48 0 L19.48 -29.21 L0 -29.21 L0 0 L0 0" stroke="none" stroke-width="0" fill="#aecbfa" fill-rule="evenodd"></path><path d="M0 0 C4.26 0, 8.53 0, 19.48 0 M0 0 C4.45 0, 8.9 0, 19.48 0 M19.48 0 C19.48 -7, 19.48 -14, 19.48 -29.21 M19.48 0 C19.48 -6.76, 19.48 -13.53, 19.48 -29.21 M19.48 -29.21 C12.61 -29.21, 5.73 -29.21, 0 -29.21 M19.48 -29.21 C13.33 -29.21, 7.19 -29.21, 0 -29.21 M0 -29.21 C0 -21.3, 0 -13.4, 0 0 M0 -29.21 C0 -22.68, 0 -16.15, 0 0 M0 0 C0 0, 0 0, 0 0 M0 0 C0 0, 0 0, 0 0 M0 0 C0 0, 0 0, 0 0 M0 0 C0 0, 0 0, 0 0" stroke="transparent" stroke-width="1" fill="none"></path></g></g><g stroke-linecap="round"><g transform="translate(623.6285979747772 441.4604324102402) rotate(0 0.9757189750671387 -1.460432529449463)" fill-rule="evenodd"><path d="M0 0 L-4.87 0 L1.95 -11.31 L1.95 -2.92 L6.82 -2.92 L0 8.38 L0 0 L0 0" stroke="none" stroke-width="0" fill="#aecbfa" fill-rule="evenodd"></path><path d="M0 0 C-1.71 0, -3.43 0, -4.87 0 M0 0 C-1.76 0, -3.53 0, -4.87 0 M-4.87 0 C-2.94 -3.19, -1.01 -6.39, 1.95 -11.31 M-4.87 0 C-3.38 -2.47, -1.89 -4.94, 1.95 -11.31 M1.95 -11.31 C1.95 -8.97, 1.95 -6.64, 1.95 -2.92 M1.95 -11.31 C1.95 -9.23, 1.95 -7.15, 1.95 -2.92 M1.95 -2.92 C3.33 -2.92, 4.71 -2.92, 6.82 -2.92 M1.95 -2.92 C3.67 -2.92, 5.39 -2.92, 6.82 -2.92 M6.82 -2.92 C4.9 0.26, 2.98 3.44, 0 8.38 M6.82 -2.92 C4.72 0.55, 2.63 4.02, 0 8.38 M0 8.38 C0 5.63, 0 2.87, 0 0 M0 8.38 C0 6.57, 0 4.76, 0 0 M0 0 C0 0, 0 0, 0 0 M0 0 C0 0, 0 0, 0 0 M0 0 C0 0, 0 0, 0 0 M0 0 C0 0, 0 0, 0 0" stroke="transparent" stroke-width="1" fill="none"></path></g></g><g stroke-linecap="round"><g transform="translate(623.6285979747772 454.60431706905365) rotate(0 5.3570146560668945 -14.60431706905365)" fill-rule="evenodd"><path d="M0 0 L0 -4.71 L6.82 -16.02 L1.95 -16.02 L1.95 -29.21 L10.71 -29.21 L10.71 0 L0 0" stroke="none" stroke-width="0" fill="#669df6" fill-rule="evenodd"></path><path d="M0 0 C0 -1.24, 0 -2.49, 0 -4.71 M0 0 C0 -1.34, 0 -2.67, 0 -4.71 M0 -4.71 C1.7 -7.53, 3.4 -10.35, 6.82 -16.02 M0 -4.71 C2.32 -8.57, 4.65 -12.42, 6.82 -16.02 M6.82 -16.02 C5.13 -16.02, 3.45 -16.02, 1.95 -16.02 M6.82 -16.02 C5.05 -16.02, 3.27 -16.02, 1.95 -16.02 M1.95 -16.02 C1.95 -19.77, 1.95 -23.53, 1.95 -29.21 M1.95 -16.02 C1.95 -19.99, 1.95 -23.95, 1.95 -29.21 M1.95 -29.21 C3.99 -29.21, 6.03 -29.21, 10.71 -29.21 M1.95 -29.21 C4.58 -29.21, 7.22 -29.21, 10.71 -29.21 M10.71 -29.21 C10.71 -21.48, 10.71 -13.76, 10.71 0 M10.71 -29.21 C10.71 -19.04, 10.71 -8.88, 10.71 0 M10.71 0 C8.27 0, 5.82 0, 0 0 M10.71 0 C7.56 0, 4.4 0, 0 0 M0 0 C0 0, 0 0, 0 0 M0 0 C0 0, 0 0, 0 0" stroke="transparent" stroke-width="1" fill="none"></path></g></g><g stroke-linecap="round"><g transform="translate(623.6285979747772 441.4604324102402) rotate(0 0.9757189750671387 -1.460432529449463)" fill-rule="evenodd"><path d="M0 0 L-4.87 0 L1.95 -11.31 L1.95 -2.92 L6.82 -2.92 L0 8.38 L0 0 L0 0" stroke="none" stroke-width="0" fill="#fff" fill-rule="evenodd"></path><path d="M0 0 C-1 0, -2.01 0, -4.87 0 M0 0 C-1.68 0, -3.36 0, -4.87 0 M-4.87 0 C-2.56 -3.82, -0.26 -7.64, 1.95 -11.31 M-4.87 0 C-2.4 -4.08, 0.06 -8.17, 1.95 -11.31 M1.95 -11.31 C1.95 -8.82, 1.95 -6.34, 1.95 -2.92 M1.95 -11.31 C1.95 -8.03, 1.95 -4.75, 1.95 -2.92 M1.95 -2.92 C3.03 -2.92, 4.11 -2.92, 6.82 -2.92 M1.95 -2.92 C3.25 -2.92, 4.55 -2.92, 6.82 -2.92 M6.82 -2.92 C4.16 1.48, 1.51 5.89, 0 8.38 M6.82 -2.92 C4.79 0.45, 2.75 3.82, 0 8.38 M0 8.38 C0 6.36, 0 4.34, 0 0 M0 8.38 C0 5.57, 0 2.76, 0 0 M0 0 C0 0, 0 0, 0 0 M0 0 C0 0, 0 0, 0 0 M0 0 C0 0, 0 0, 0 0 M0 0 C0 0, 0 0, 0 0" stroke="transparent" stroke-width="1" fill="none"></path></g></g><g stroke-linecap="round" transform="translate(550 310) rotate(0 10 10)"><path d="M20 10 C20 10.58, 19.95 11.17, 19.85 11.74 C19.75 12.31, 19.59 12.88, 19.4 13.42 C19.2 13.96, 18.95 14.5, 18.66 15 C18.37 15.5, 18.03 15.98, 17.66 16.43 C17.29 16.87, 16.87 17.29, 16.43 17.66 C15.98 18.03, 15.5 18.37, 15 18.66 C14.5 18.95, 13.96 19.2, 13.42 19.4 C12.88 19.59, 12.31 19.75, 11.74 19.85 C11.17 19.95, 10.58 20, 10 20 C9.42 20, 8.83 19.95, 8.26 19.85 C7.69 19.75, 7.12 19.59, 6.58 19.4 C6.04 19.2, 5.5 18.95, 5 18.66 C4.5 18.37, 4.02 18.03, 3.57 17.66 C3.13 17.29, 2.71 16.87, 2.34 16.43 C1.97 15.98, 1.63 15.5, 1.34 15 C1.05 14.5, 0.8 13.96, 0.6 13.42 C0.41 12.88, 0.25 12.31, 0.15 11.74 C0.05 11.17, 0 10.58, 0 10 C0 9.42, 0.05 8.83, 0.15 8.26 C0.25 7.69, 0.41 7.12, 0.6 6.58 C0.8 6.04, 1.05 5.5, 1.34 5 C1.63 4.5, 1.97 4.02, 2.34 3.57 C2.71 3.13, 3.13 2.71, 3.57 2.34 C4.02 1.97, 4.5 1.63, 5 1.34 C5.5 1.05, 6.04 0.8, 6.58 0.6 C7.12 0.41, 7.69 0.25, 8.26 0.15 C8.83 0.05, 9.42 0, 10 0 C10.58 0, 11.17 0.05, 11.74 0.15 C12.31 0.25, 12.88 0.41, 13.42 0.6 C13.96 0.8, 14.5 1.05, 15 1.34 C15.5 1.63, 15.98 1.97, 16.43 2.34 C16.87 2.71, 17.29 3.13, 17.66 3.57 C18.03 4.02, 18.37 4.5, 18.66 5 C18.95 5.5, 19.2 6.04, 19.4 6.58 C19.59 7.12, 19.75 7.69, 19.85 8.26 C19.95 8.83, 19.97 9.71, 20 10 C20.03 10.29, 20.03 9.71, 20 10" stroke="#34a853" stroke-width="2" fill="none"></path></g><g transform="translate(558 310) rotate(0 2 10)"><text x="0" y="14" font-family="Virgil, Segoe UI Emoji" font-size="16px" fill="#34a853" text-anchor="start" style="white-space: pre;" direction="ltr">1</text></g><g stroke-linecap="round" transform="translate(550 310) rotate(0 10 10)"><path d="M20 10 C20 10.58, 19.95 11.17, 19.85 11.74 C19.75 12.31, 19.59 12.88, 19.4 13.42 C19.2 13.96, 18.95 14.5, 18.66 15 C18.37 15.5, 18.03 15.98, 17.66 16.43 C17.29 16.87, 16.87 17.29, 16.43 17.66 C15.98 18.03, 15.5 18.37, 15 18.66 C14.5 18.95, 13.96 19.2, 13.42 19.4 C12.88 19.59, 12.31 19.75, 11.74 19.85 C11.17 19.95, 10.58 20, 10 20 C9.42 20, 8.83 19.95, 8.26 19.85 C7.69 19.75, 7.12 19.59, 6.58 19.4 C6.04 19.2, 5.5 18.95, 5 18.66 C4.5 18.37, 4.02 18.03, 3.57 17.66 C3.13 17.29, 2.71 16.87, 2.34 16.43 C1.97 15.98, 1.63 15.5, 1.34 15 C1.05 14.5, 0.8 13.96, 0.6 13.42 C0.41 12.88, 0.25 12.31, 0.15 11.74 C0.05 11.17, 0 10.58, 0 10 C0 9.42, 0.05 8.83, 0.15 8.26 C0.25 7.69, 0.41 7.12, 0.6 6.58 C0.8 6.04, 1.05 5.5, 1.34 5 C1.63 4.5, 1.97 4.02, 2.34 3.57 C2.71 3.13, 3.13 2.71, 3.57 2.34 C4.02 1.97, 4.5 1.63, 5 1.34 C5.5 1.05, 6.04 0.8, 6.58 0.6 C7.12 0.41, 7.69 0.25, 8.26 0.15 C8.83 0.05, 9.42 0, 10 0 C10.58 0, 11.17 0.05, 11.74 0.15 C12.31 0.25, 12.88 0.41, 13.42 0.6 C13.96 0.8, 14.5 1.05, 15 1.34 C15.5 1.63, 15.98 1.97, 16.43 2.34 C16.87 2.71, 17.29 3.13, 17.66 3.57 C18.03 4.02, 18.37 4.5, 18.66 5 C18.95 5.5, 19.2 6.04, 19.4 6.58 C19.59 7.12, 19.75 7.69, 19.85 8.26 C19.95 8.83, 19.97 9.71, 20 10 C20.03 10.29, 20.03 9.71, 20 10" stroke="none" stroke-width="0" fill="#0d652d"></path><path d="M20 10 C20 10.58, 19.95 11.17, 19.85 11.74 C19.75 12.31, 19.59 12.88, 19.4 13.42 C19.2 13.96, 18.95 14.5, 18.66 15 C18.37 15.5, 18.03 15.98, 17.66 16.43 C17.29 16.87, 16.87 17.29, 16.43 17.66 C15.98 18.03, 15.5 18.37, 15 18.66 C14.5 18.95, 13.96 19.2, 13.42 19.4 C12.88 19.59, 12.31 19.75, 11.74 19.85 C11.17 19.95, 10.58 20, 10 20 C9.42 20, 8.83 19.95, 8.26 19.85 C7.69 19.75, 7.12 19.59, 6.58 19.4 C6.04 19.2, 5.5 18.95, 5 18.66 C4.5 18.37, 4.02 18.03, 3.57 17.66 C3.13 17.29, 2.71 16.87, 2.34 16.43 C1.97 15.98, 1.63 15.5, 1.34 15 C1.05 14.5, 0.8 13.96, 0.6 13.42 C0.41 12.88, 0.25 12.31, 0.15 11.74 C0.05 11.17, 0 10.58, 0 10 C0 9.42, 0.05 8.83, 0.15 8.26 C0.25 7.69, 0.41 7.12, 0.6 6.58 C0.8 6.04, 1.05 5.5, 1.34 5 C1.63 4.5, 1.97 4.02, 2.34 3.57 C2.71 3.13, 3.13 2.71, 3.57 2.34 C4.02 1.97, 4.5 1.63, 5 1.34 C5.5 1.05, 6.04 0.8, 6.58 0.6 C7.12 0.41, 7.69 0.25, 8.26 0.15 C8.83 0.05, 9.42 0, 10 0 C10.58 0, 11.17 0.05, 11.74 0.15 C12.31 0.25, 12.88 0.41, 13.42 0.6 C13.96 0.8, 14.5 1.05, 15 1.34 C15.5 1.63, 15.98 1.97, 16.43 2.34 C16.87 2.71, 17.29 3.13, 17.66 3.57 C18.03 4.02, 18.37 4.5, 18.66 5 C18.95 5.5, 19.2 6.04, 19.4 6.58 C19.59 7.12, 19.75 7.69, 19.85 8.26 C19.95 8.83, 19.97 9.71, 20 10 C20.03 10.29, 20.03 9.71, 20 10" stroke="#0d652d" stroke-width="2" fill="none"></path></g><g transform="translate(555 311) rotate(0 5 9)"><text x="5" y="14" font-family="Helvetica, Segoe UI Emoji" font-size="16px" fill="white" text-anchor="middle" style="white-space: pre;" direction="ltr">4</text></g></svg>